<svg width="49" height="49" viewBox="0 0 49 49" fill="none" xmlns="http://www.w3.org/2000/svg">
<path d="M0.590149 24.773C0.590149 11.5182 11.3353 0.77301 24.5901 0.77301C37.845 0.77301 48.5901 11.5182 48.5901 24.773C48.5901 38.0278 37.845 48.773 24.5901 48.773C11.3353 48.773 0.590149 38.0278 0.590149 24.773Z" fill="#55ACEE"/>
<path d="M23.8714 20.2805L23.9217 21.111L23.0823 21.0093C20.027 20.6195 17.3578 19.2975 15.0915 17.0773L13.9835 15.9757L13.6981 16.7892C13.0938 18.6026 13.4799 20.5178 14.7389 21.8058C15.4104 22.5176 15.2594 22.6193 14.101 22.1956C13.6981 22.06 13.3456 21.9584 13.312 22.0092C13.1945 22.1278 13.5974 23.6701 13.9164 24.2802C14.3528 25.1276 15.2426 25.9581 16.2162 26.4496L17.0388 26.8394L16.0652 26.8563C15.1251 26.8563 15.0915 26.8733 15.1922 27.2292C15.528 28.3308 16.8542 29.5002 18.3315 30.0087L19.3723 30.3646L18.4658 30.9069C17.1228 31.6865 15.5447 32.1272 13.9667 32.1611C13.2113 32.178 12.5901 32.2458 12.5901 32.2967C12.5901 32.4661 14.6382 33.4152 15.8301 33.7881C19.4059 34.8897 23.6531 34.4152 26.8427 32.5339C29.1091 31.195 31.3754 28.5342 32.433 25.9581C33.0038 24.5853 33.5745 22.077 33.5745 20.8737C33.5745 20.0941 33.6249 19.9924 34.565 19.0602C35.119 18.5179 35.6394 17.9247 35.7401 17.7552C35.908 17.4332 35.8912 17.4332 35.035 17.7214C33.6081 18.2298 33.4067 18.162 34.1117 17.3993C34.6321 16.857 35.2533 15.874 35.2533 15.5859C35.2533 15.5351 35.0015 15.6198 34.7161 15.7723C34.4139 15.9418 33.7424 16.196 33.2388 16.3486L32.3323 16.6367L31.5097 16.0774C31.0564 15.7723 30.4185 15.4334 30.0827 15.3317C29.2266 15.0944 27.9171 15.1283 27.1449 15.3995C25.0465 16.1621 23.7203 18.1281 23.8714 20.2805Z" fill="white"/>
</svg>
