<svg width="49" height="49" viewBox="0 0 49 49" fill="none" xmlns="http://www.w3.org/2000/svg">
<path d="M0.590149 24.773C0.590149 11.5182 11.3353 0.77301 24.5901 0.77301C37.845 0.77301 48.5901 11.5182 48.5901 24.773C48.5901 38.0278 37.845 48.773 24.5901 48.773C11.3353 48.773 0.590149 38.0278 0.590149 24.773Z" fill="#F26798"/>
<path fill-rule="evenodd" clip-rule="evenodd" d="M37.3902 24.7553C37.3902 25.6209 37.302 26.4854 37.1289 27.328C36.9601 28.1506 36.7101 28.9582 36.3826 29.7302C36.0626 30.4886 35.6658 31.2194 35.202 31.901C34.7451 32.5782 34.2188 33.2135 33.6406 33.7927C33.0612 34.3694 32.4237 34.8942 31.7468 35.3531C31.063 35.8136 30.3312 36.2099 29.5723 36.5314C28.7992 36.8572 27.9897 37.1068 27.1678 37.2753C26.3241 37.4489 25.4565 37.5375 24.5896 37.5375C23.722 37.5375 22.8545 37.4489 22.012 37.2753C21.1888 37.1068 20.3794 36.8572 19.6068 36.5314C18.8481 36.2099 18.1155 35.8136 17.4317 35.3531C16.7548 34.8943 16.1173 34.3694 15.5391 33.7927C14.9604 33.2135 14.4341 32.5782 13.9765 31.901C13.5153 31.2194 13.1177 30.4886 12.7965 29.7302C12.4689 28.9582 12.2183 28.1505 12.0489 27.328C11.8777 26.4854 11.7902 25.6209 11.7902 24.7553C11.7902 23.889 11.8776 23.0227 12.049 22.1819C12.2184 21.3593 12.469 20.5505 12.7965 19.7797C13.1178 19.0207 13.5153 18.2893 13.9766 17.6077C14.4341 16.9299 14.9604 16.2958 15.5392 15.7159C16.1173 15.1392 16.7549 14.6156 17.4318 14.1575C18.1155 13.695 18.8481 13.2987 19.6069 12.9766C20.3794 12.6502 21.1888 12.3999 22.012 12.2327C22.8546 12.0604 23.7221 11.973 24.5896 11.973C25.4565 11.973 26.3241 12.0604 27.1679 12.2327C27.9898 12.4 28.7992 12.6502 29.5724 12.9766C30.3312 13.2987 31.0631 13.695 31.7468 14.1575C32.4237 14.6156 33.0613 15.1392 33.6407 15.7159C34.2188 16.2958 34.7452 16.9299 35.202 17.6077C35.6658 18.2893 36.0626 19.0208 36.3826 19.7797C36.7101 20.5505 36.9601 21.3593 37.1289 22.1819C37.302 23.0227 37.3902 23.889 37.3902 24.7553ZM19.9256 14.8821C16.8773 16.3195 14.6022 19.1244 13.8927 22.5047L13.9032 22.5048C14.2768 22.5082 18.7913 22.5499 23.9845 21.1721C22.0926 17.8155 20.0712 15.0763 19.9256 14.8821ZM13.6671 24.407C13.8609 24.4145 19.2618 24.5356 24.8902 22.853C25.2033 23.4658 25.5028 24.0875 25.7771 24.7079C25.6334 24.749 25.4883 24.7915 25.3459 24.8389C19.4468 26.7437 16.4554 32.0432 16.4591 32.0489C14.7178 30.1159 13.6584 27.5595 13.6584 24.7553C13.6584 24.6743 13.661 24.5952 13.6637 24.5154L13.6637 24.5154L13.6637 24.5153L13.6637 24.5153L13.6637 24.5153L13.6637 24.5153C13.6649 24.4794 13.6661 24.4434 13.6671 24.407ZM31.8087 16.5629C29.8842 14.8684 27.3572 13.8405 24.5896 13.8405C23.7014 13.8405 22.8395 13.9478 22.0138 14.1463L22.0316 14.1701L22.0316 14.1701L22.0316 14.1701L22.0316 14.1701C22.2906 14.5165 24.2823 17.1804 26.1003 20.5136C30.1911 18.9822 31.7562 16.6415 31.8077 16.5644L31.8087 16.5629ZM26.4956 26.5251L26.5222 26.5166C28.0603 30.5085 28.6954 33.8514 28.8572 34.805C27.5453 35.3623 26.1034 35.6701 24.5896 35.6701C22.0545 35.6701 19.7268 34.8006 17.8711 33.3595C17.8939 33.3102 20.0001 28.7855 26.4497 26.5403C26.4648 26.5347 26.4802 26.5299 26.4956 26.5251ZM30.698 33.8077C33.1525 32.1537 34.8957 29.5274 35.382 26.4853C35.157 26.4129 32.0987 25.4461 28.5704 26.011C30.0042 29.9456 30.5868 33.1499 30.698 33.8077ZM27.6679 23.7229C27.441 23.1905 27.1953 22.6607 26.9416 22.1402C31.2297 20.3914 32.988 17.8829 33.0307 17.822L33.0313 17.8212C34.5651 19.6804 35.4921 22.0553 35.5171 24.6429C35.514 24.6422 35.5097 24.6413 35.5041 24.6402C35.2172 24.5805 31.5874 23.8256 27.9041 24.2884C27.8273 24.1012 27.7485 23.914 27.6679 23.7229Z" fill="white"/>
</svg>
