<svg width="49" height="49" viewBox="0 0 49 49" fill="none" xmlns="http://www.w3.org/2000/svg">
<path d="M0.590149 24.773C0.590149 11.5182 11.3353 0.77301 24.5901 0.77301C37.8449 0.77301 48.5901 11.5182 48.5901 24.773C48.5901 38.0278 37.8449 48.773 24.5901 48.773C11.3353 48.773 0.590149 38.0278 0.590149 24.773Z" fill="#333333"/>
<path d="M19.7902 39.173C22.4411 39.173 24.5902 37.024 24.5902 34.373V29.573H19.7902C17.1392 29.573 14.9902 31.7221 14.9902 34.373C14.9902 37.024 17.1392 39.173 19.7902 39.173Z" fill="#0ACF83"/>
<path d="M14.9902 24.773C14.9902 22.1221 17.1392 19.973 19.7902 19.973H24.5902V29.573H19.7902C17.1392 29.573 14.9902 27.424 14.9902 24.773Z" fill="#A259FF"/>
<path d="M14.9902 15.173C14.9902 12.522 17.1392 10.373 19.7902 10.373H24.5902V19.973H19.7902C17.1392 19.973 14.9902 17.824 14.9902 15.173Z" fill="#F24E1E"/>
<path d="M24.5901 10.373H29.3901C32.0411 10.373 34.1901 12.522 34.1901 15.173C34.1901 17.824 32.0411 19.973 29.3901 19.973H24.5901V10.373Z" fill="#FF7262"/>
<path d="M34.1901 24.773C34.1901 27.424 32.0411 29.573 29.3901 29.573C26.7392 29.573 24.5901 27.424 24.5901 24.773C24.5901 22.1221 26.7392 19.973 29.3901 19.973C32.0411 19.973 34.1901 22.1221 34.1901 24.773Z" fill="#1ABCFE"/>
</svg>
