<svg width="49" height="49" viewBox="0 0 49 49" fill="none" xmlns="http://www.w3.org/2000/svg">
<path d="M0.590149 24.773C0.590149 11.5182 11.3353 0.77301 24.5901 0.77301C37.845 0.77301 48.5901 11.5182 48.5901 24.773C48.5901 38.0278 37.845 48.773 24.5901 48.773C11.3353 48.773 0.590149 38.0278 0.590149 24.773Z" fill="#0077B5"/>
<path fill-rule="evenodd" clip-rule="evenodd" d="M17.9089 15.5957C17.9089 17.1648 16.7278 18.4204 14.8313 18.4204H14.7966C12.9706 18.4204 11.7902 17.1648 11.7902 15.5957C11.7902 13.9934 13.0066 12.773 14.8672 12.773C16.7278 12.773 17.8736 13.9934 17.9089 15.5957ZM17.5507 20.6509V36.9926H12.1118V20.6509H17.5507ZM37.1653 36.9926L37.1655 27.6227C37.1655 22.6033 34.4824 20.2671 30.9033 20.2671C28.0156 20.2671 26.7227 21.8533 26.0008 22.966V20.6513H20.5613C20.6329 22.1847 20.5613 36.993 20.5613 36.993H26.0008V27.8664C26.0008 27.378 26.0361 26.8908 26.1799 26.5412C26.573 25.5654 27.468 24.5552 28.9707 24.5552C30.9396 24.5552 31.7266 26.0537 31.7266 28.2497V36.9926H37.1653Z" fill="white"/>
</svg>
