<svg width="755" height="526" viewBox="0 0 755 526" fill="none" xmlns="http://www.w3.org/2000/svg">
<g filter="url(#filter0_d_201_2719)">
<g clip-path="url(#clip0_201_2719)">
<rect width="482.609" height="361.957" rx="7.38858" transform="matrix(0.866044 -0.499967 0.866044 0.499967 12 241.289)" fill="#E297AB"/>
<path d="M100.869 227.944L45.6297 222.429L36.076 190.539L81.8218 164.13L137.061 169.645L146.615 201.535L100.869 227.944Z" stroke="black" stroke-width="0.369429"/>
<path d="M59.8313 177.474L123.82 214.415" stroke="black" stroke-width="0.369429"/>
<path d="M76.3253 204.708L59.4057 177.413L106.686 187.181L123.605 214.476L76.3253 204.708Z" stroke="black" stroke-width="0.369429"/>
<path d="M45.5939 222.265L76.3083 204.533" stroke="black" stroke-width="0.369429"/>
<path d="M106.383 187.171L136.777 169.624" stroke="black" stroke-width="0.369429"/>
<path d="M45.5939 222.265L59.3514 177.382L136.617 169.717L123.66 214.507L45.5939 222.265Z" stroke="black" stroke-width="0.369429"/>
<circle r="2.03186" transform="matrix(0.866044 -0.499967 0.866044 0.499967 59.6713 177.197)" fill="black" stroke="#E297AB" stroke-width="0.369429"/>
<circle r="2.03186" transform="matrix(0.866044 -0.499967 0.866044 0.499967 136.777 169.624)" fill="black" stroke="#E297AB" stroke-width="0.369429"/>
<circle r="2.03186" transform="matrix(0.866044 -0.499967 0.866044 0.499967 45.5939 222.265)" fill="black" stroke="#E297AB" stroke-width="0.369429"/>
<circle r="2.03186" transform="matrix(0.866044 -0.499967 0.866044 0.499967 123.98 214.322)" fill="black" stroke="#E297AB" stroke-width="0.369429"/>
<circle r="2.40129" transform="matrix(0.866044 -0.499967 0.866044 0.499967 123.98 214.322)" stroke="black" stroke-width="0.369429" stroke-dasharray="0.37 0.37"/>
<circle r="2.40129" transform="matrix(0.866044 -0.499967 0.866044 0.499967 59.6713 177.197)" stroke="black" stroke-width="0.369429" stroke-dasharray="0.37 0.37"/>
<circle r="2.40129" transform="matrix(0.866044 -0.499967 0.866044 0.499967 45.5939 222.265)" stroke="black" stroke-width="0.369429" stroke-dasharray="0.37 0.37"/>
<circle r="2.40129" transform="matrix(0.866044 -0.499967 0.866044 0.499967 136.777 169.624)" stroke="black" stroke-width="0.369429" stroke-dasharray="0.37 0.37"/>
<path d="M165.498 265.254L110.258 259.739L100.704 227.849L146.45 201.44L201.69 206.955L211.243 238.845L165.498 265.254Z" stroke="black" stroke-width="0.369429"/>
<path d="M124.46 214.784L188.448 251.725" stroke="black" stroke-width="0.369429"/>
<path d="M140.954 242.018L124.034 214.723L171.314 224.491L188.234 251.786L140.954 242.018Z" stroke="black" stroke-width="0.369429"/>
<path d="M110.222 259.574L140.937 241.843" stroke="black" stroke-width="0.369429"/>
<path d="M171.011 224.481L201.406 206.934" stroke="black" stroke-width="0.369429"/>
<path d="M110.222 259.575L123.98 214.692L201.246 207.027L188.288 251.817L110.222 259.575Z" stroke="black" stroke-width="0.369429"/>
<circle r="2.03186" transform="matrix(0.866044 -0.499967 0.866044 0.499967 124.3 214.507)" fill="black" stroke="#E297AB" stroke-width="0.369429"/>
<circle r="2.03186" transform="matrix(0.866044 -0.499967 0.866044 0.499967 201.406 206.934)" fill="black" stroke="#E297AB" stroke-width="0.369429"/>
<circle r="2.03186" transform="matrix(0.866044 -0.499967 0.866044 0.499967 110.222 259.575)" fill="black" stroke="#E297AB" stroke-width="0.369429"/>
<circle r="2.03186" transform="matrix(0.866044 -0.499967 0.866044 0.499967 188.608 251.632)" fill="black" stroke="#E297AB" stroke-width="0.369429"/>
<circle r="2.40129" transform="matrix(0.866044 -0.499967 0.866044 0.499967 188.608 251.632)" stroke="black" stroke-width="0.369429" stroke-dasharray="0.37 0.37"/>
<circle r="2.40129" transform="matrix(0.866044 -0.499967 0.866044 0.499967 124.3 214.507)" stroke="black" stroke-width="0.369429" stroke-dasharray="0.37 0.37"/>
<circle r="2.40129" transform="matrix(0.866044 -0.499967 0.866044 0.499967 110.222 259.575)" stroke="black" stroke-width="0.369429" stroke-dasharray="0.37 0.37"/>
<circle r="2.40129" transform="matrix(0.866044 -0.499967 0.866044 0.499967 201.406 206.934)" stroke="black" stroke-width="0.369429" stroke-dasharray="0.37 0.37"/>
<path d="M192.053 175.304L136.813 169.789L127.259 137.899L173.005 111.49L228.245 117.005L237.799 148.895L192.053 175.304Z" stroke="black" stroke-width="0.369429"/>
<path d="M151.015 124.834L215.003 161.775" stroke="black" stroke-width="0.369429"/>
<path d="M167.509 152.068L150.589 124.773L197.869 134.541L214.789 161.836L167.509 152.068Z" stroke="black" stroke-width="0.369429"/>
<path d="M136.777 169.624L167.492 151.893" stroke="black" stroke-width="0.369429"/>
<path d="M197.566 134.531L227.961 116.984" stroke="black" stroke-width="0.369429"/>
<path d="M136.777 169.624L150.535 124.742L227.801 117.077L214.843 161.867L136.777 169.624Z" stroke="black" stroke-width="0.369429"/>
<circle r="2.03186" transform="matrix(0.866044 -0.499967 0.866044 0.499967 150.855 124.557)" fill="black" stroke="#E297AB" stroke-width="0.369429"/>
<circle r="2.03186" transform="matrix(0.866044 -0.499967 0.866044 0.499967 227.961 116.984)" fill="black" stroke="#E297AB" stroke-width="0.369429"/>
<circle r="2.03186" transform="matrix(0.866044 -0.499967 0.866044 0.499967 136.777 169.624)" fill="black" stroke="#E297AB" stroke-width="0.369429"/>
<circle r="2.03186" transform="matrix(0.866044 -0.499967 0.866044 0.499967 215.163 161.682)" fill="black" stroke="#E297AB" stroke-width="0.369429"/>
<circle r="2.40129" transform="matrix(0.866044 -0.499967 0.866044 0.499967 215.163 161.682)" stroke="black" stroke-width="0.369429" stroke-dasharray="0.37 0.37"/>
<circle r="2.40129" transform="matrix(0.866044 -0.499967 0.866044 0.499967 150.855 124.557)" stroke="black" stroke-width="0.369429" stroke-dasharray="0.37 0.37"/>
<circle r="2.40129" transform="matrix(0.866044 -0.499967 0.866044 0.499967 136.777 169.624)" stroke="black" stroke-width="0.369429" stroke-dasharray="0.37 0.37"/>
<circle r="2.40129" transform="matrix(0.866044 -0.499967 0.866044 0.499967 227.961 116.984)" stroke="black" stroke-width="0.369429" stroke-dasharray="0.37 0.37"/>
<path d="M256.681 212.614L201.441 207.098L191.888 175.209L237.633 148.799L292.873 154.315L302.427 186.205L256.681 212.614Z" stroke="black" stroke-width="0.369429"/>
<path d="M215.643 162.144L279.631 199.084" stroke="black" stroke-width="0.369429"/>
<path d="M232.137 189.378L215.217 162.083L262.497 171.851L279.417 199.146L232.137 189.378Z" stroke="black" stroke-width="0.369429"/>
<path d="M201.406 206.934L232.12 189.203" stroke="black" stroke-width="0.369429"/>
<path d="M262.194 171.841L292.589 154.294" stroke="black" stroke-width="0.369429"/>
<path d="M201.406 206.934L215.163 162.052L292.429 154.386L279.471 199.177L201.406 206.934Z" stroke="black" stroke-width="0.369429"/>
<circle r="2.03186" transform="matrix(0.866044 -0.499967 0.866044 0.499967 215.483 161.867)" fill="black" stroke="#E297AB" stroke-width="0.369429"/>
<circle r="2.03186" transform="matrix(0.866044 -0.499967 0.866044 0.499967 292.589 154.294)" fill="black" stroke="#E297AB" stroke-width="0.369429"/>
<circle r="2.03186" transform="matrix(0.866044 -0.499967 0.866044 0.499967 201.406 206.934)" fill="black" stroke="#E297AB" stroke-width="0.369429"/>
<circle r="2.03186" transform="matrix(0.866044 -0.499967 0.866044 0.499967 279.791 198.992)" fill="black" stroke="#E297AB" stroke-width="0.369429"/>
<circle r="2.40129" transform="matrix(0.866044 -0.499967 0.866044 0.499967 279.791 198.992)" stroke="black" stroke-width="0.369429" stroke-dasharray="0.37 0.37"/>
<circle r="2.40129" transform="matrix(0.866044 -0.499967 0.866044 0.499967 215.483 161.867)" stroke="black" stroke-width="0.369429" stroke-dasharray="0.37 0.37"/>
<circle r="2.40129" transform="matrix(0.866044 -0.499967 0.866044 0.499967 201.406 206.934)" stroke="black" stroke-width="0.369429" stroke-dasharray="0.37 0.37"/>
<circle r="2.40129" transform="matrix(0.866044 -0.499967 0.866044 0.499967 292.589 154.294)" stroke="black" stroke-width="0.369429" stroke-dasharray="0.37 0.37"/>
<path d="M136.937 169.717L201.566 207.027L234.36 225.959" stroke="black" stroke-width="0.369429"/>
<path d="M136.617 169.532L103.823 150.6" stroke="black" stroke-width="0.369429"/>
<path d="M230.446 302.748L175.206 297.233L165.652 265.343L211.398 238.934L266.638 244.45L276.192 276.339L230.446 302.748Z" stroke="black" stroke-width="0.369429"/>
<path d="M189.408 252.279L253.396 289.219" stroke="black" stroke-width="0.369429"/>
<path d="M205.902 279.513L188.982 252.218L236.262 261.985L253.182 289.28L205.902 279.513Z" stroke="black" stroke-width="0.369429"/>
<path d="M175.17 297.069L205.885 279.338" stroke="black" stroke-width="0.369429"/>
<path d="M235.959 261.976L266.354 244.429" stroke="black" stroke-width="0.369429"/>
<path d="M175.17 297.069L188.928 252.186L266.194 244.521L253.236 289.312L175.17 297.069Z" stroke="black" stroke-width="0.369429"/>
<circle r="2.03186" transform="matrix(0.866044 -0.499967 0.866044 0.499967 189.248 252.002)" fill="black" stroke="#E297AB" stroke-width="0.369429"/>
<circle r="2.03186" transform="matrix(0.866044 -0.499967 0.866044 0.499967 266.354 244.429)" fill="black" stroke="#E297AB" stroke-width="0.369429"/>
<circle r="2.03186" transform="matrix(0.866044 -0.499967 0.866044 0.499967 175.17 297.069)" fill="black" stroke="#E297AB" stroke-width="0.369429"/>
<circle r="2.03186" transform="matrix(0.866044 -0.499967 0.866044 0.499967 253.556 289.127)" fill="black" stroke="#E297AB" stroke-width="0.369429"/>
<circle r="2.40129" transform="matrix(0.866044 -0.499967 0.866044 0.499967 253.556 289.127)" stroke="black" stroke-width="0.369429" stroke-dasharray="0.37 0.37"/>
<circle r="2.40129" transform="matrix(0.866044 -0.499967 0.866044 0.499967 189.248 252.002)" stroke="black" stroke-width="0.369429" stroke-dasharray="0.37 0.37"/>
<circle r="2.40129" transform="matrix(0.866044 -0.499967 0.866044 0.499967 175.17 297.069)" stroke="black" stroke-width="0.369429" stroke-dasharray="0.37 0.37"/>
<circle r="2.40129" transform="matrix(0.866044 -0.499967 0.866044 0.499967 266.354 244.429)" stroke="black" stroke-width="0.369429" stroke-dasharray="0.37 0.37"/>
<path d="M295.074 340.058L239.834 334.543L230.281 302.653L276.026 276.244L331.266 281.759L340.82 313.649L295.074 340.058Z" stroke="black" stroke-width="0.369429"/>
<path d="M254.036 289.589L318.024 326.529" stroke="black" stroke-width="0.369429"/>
<path d="M270.53 316.822L253.61 289.528L300.89 299.295L317.81 326.59L270.53 316.822Z" stroke="black" stroke-width="0.369429"/>
<path d="M239.799 334.379L270.513 316.648" stroke="black" stroke-width="0.369429"/>
<path d="M300.587 299.286L330.982 281.739" stroke="black" stroke-width="0.369429"/>
<path d="M239.799 334.379L253.556 289.496L330.822 281.831L317.864 326.621L239.799 334.379Z" stroke="black" stroke-width="0.369429"/>
<circle r="2.03186" transform="matrix(0.866044 -0.499967 0.866044 0.499967 253.876 289.312)" fill="black" stroke="#E297AB" stroke-width="0.369429"/>
<circle r="2.03186" transform="matrix(0.866044 -0.499967 0.866044 0.499967 330.982 281.739)" fill="black" stroke="#E297AB" stroke-width="0.369429"/>
<circle r="2.03186" transform="matrix(0.866044 -0.499967 0.866044 0.499967 239.799 334.379)" fill="black" stroke="#E297AB" stroke-width="0.369429"/>
<circle r="2.03186" transform="matrix(0.866044 -0.499967 0.866044 0.499967 318.184 326.437)" fill="black" stroke="#E297AB" stroke-width="0.369429"/>
<circle r="2.40129" transform="matrix(0.866044 -0.499967 0.866044 0.499967 318.184 326.437)" stroke="black" stroke-width="0.369429" stroke-dasharray="0.37 0.37"/>
<circle r="2.40129" transform="matrix(0.866044 -0.499967 0.866044 0.499967 253.876 289.312)" stroke="black" stroke-width="0.369429" stroke-dasharray="0.37 0.37"/>
<circle r="2.40129" transform="matrix(0.866044 -0.499967 0.866044 0.499967 239.799 334.379)" stroke="black" stroke-width="0.369429" stroke-dasharray="0.37 0.37"/>
<circle r="2.40129" transform="matrix(0.866044 -0.499967 0.866044 0.499967 330.982 281.739)" stroke="black" stroke-width="0.369429" stroke-dasharray="0.37 0.37"/>
<path d="M321.629 250.108L266.389 244.593L256.836 212.703L302.582 186.294L357.821 191.809L367.375 223.699L321.629 250.108Z" stroke="black" stroke-width="0.369429"/>
<path d="M280.591 199.639L344.579 236.579" stroke="black" stroke-width="0.369429"/>
<path d="M297.085 226.872L280.165 199.578L327.446 209.345L344.365 236.64L297.085 226.872Z" stroke="black" stroke-width="0.369429"/>
<path d="M266.354 244.429L297.068 226.697" stroke="black" stroke-width="0.369429"/>
<path d="M327.143 209.335L357.537 191.789" stroke="black" stroke-width="0.369429"/>
<path d="M266.354 244.429L280.111 199.546L357.377 191.881L344.419 236.671L266.354 244.429Z" stroke="black" stroke-width="0.369429"/>
<circle r="2.03186" transform="matrix(0.866044 -0.499967 0.866044 0.499967 280.431 199.362)" fill="black" stroke="#E297AB" stroke-width="0.369429"/>
<circle r="2.03186" transform="matrix(0.866044 -0.499967 0.866044 0.499967 357.537 191.789)" fill="black" stroke="#E297AB" stroke-width="0.369429"/>
<circle r="2.03186" transform="matrix(0.866044 -0.499967 0.866044 0.499967 266.354 244.429)" fill="black" stroke="#E297AB" stroke-width="0.369429"/>
<circle r="2.03186" transform="matrix(0.866044 -0.499967 0.866044 0.499967 344.739 236.487)" fill="black" stroke="#E297AB" stroke-width="0.369429"/>
<circle r="2.40129" transform="matrix(0.866044 -0.499967 0.866044 0.499967 344.739 236.487)" stroke="black" stroke-width="0.369429" stroke-dasharray="0.37 0.37"/>
<circle r="2.40129" transform="matrix(0.866044 -0.499967 0.866044 0.499967 280.431 199.362)" stroke="black" stroke-width="0.369429" stroke-dasharray="0.37 0.37"/>
<circle r="2.40129" transform="matrix(0.866044 -0.499967 0.866044 0.499967 266.354 244.429)" stroke="black" stroke-width="0.369429" stroke-dasharray="0.37 0.37"/>
<circle r="2.40129" transform="matrix(0.866044 -0.499967 0.866044 0.499967 357.537 191.789)" stroke="black" stroke-width="0.369429" stroke-dasharray="0.37 0.37"/>
<path d="M386.257 287.418L331.018 281.903L321.464 250.013L367.21 223.604L422.449 229.119L432.003 261.009L386.257 287.418Z" stroke="black" stroke-width="0.369429"/>
<path d="M345.219 236.948L409.208 273.889" stroke="black" stroke-width="0.369429"/>
<path d="M361.713 264.182L344.794 236.887L392.074 246.655L408.993 273.95L361.713 264.182Z" stroke="black" stroke-width="0.369429"/>
<path d="M330.982 281.739L361.696 264.007" stroke="black" stroke-width="0.369429"/>
<path d="M391.771 246.645L422.165 229.099" stroke="black" stroke-width="0.369429"/>
<path d="M330.982 281.739L344.739 236.856L422.005 229.191L409.048 273.981L330.982 281.739Z" stroke="black" stroke-width="0.369429"/>
<circle r="2.03186" transform="matrix(0.866044 -0.499967 0.866044 0.499967 345.059 236.671)" fill="black" stroke="#E297AB" stroke-width="0.369429"/>
<circle r="2.03186" transform="matrix(0.866044 -0.499967 0.866044 0.499967 422.165 229.099)" fill="black" stroke="#E297AB" stroke-width="0.369429"/>
<circle r="2.03186" transform="matrix(0.866044 -0.499967 0.866044 0.499967 330.982 281.739)" fill="black" stroke="#E297AB" stroke-width="0.369429"/>
<circle r="2.03186" transform="matrix(0.866044 -0.499967 0.866044 0.499967 409.368 273.797)" fill="black" stroke="#E297AB" stroke-width="0.369429"/>
<circle r="2.40129" transform="matrix(0.866044 -0.499967 0.866044 0.499967 409.368 273.797)" stroke="black" stroke-width="0.369429" stroke-dasharray="0.37 0.37"/>
<circle r="2.40129" transform="matrix(0.866044 -0.499967 0.866044 0.499967 345.059 236.671)" stroke="black" stroke-width="0.369429" stroke-dasharray="0.37 0.37"/>
<circle r="2.40129" transform="matrix(0.866044 -0.499967 0.866044 0.499967 330.982 281.739)" stroke="black" stroke-width="0.369429" stroke-dasharray="0.37 0.37"/>
<circle r="2.40129" transform="matrix(0.866044 -0.499967 0.866044 0.499967 422.165 229.099)" stroke="black" stroke-width="0.369429" stroke-dasharray="0.37 0.37"/>
<path d="M266.514 244.521L331.142 281.831L363.936 300.763" stroke="black" stroke-width="0.369429"/>
<path d="M266.194 244.337L233.4 225.405" stroke="black" stroke-width="0.369429"/>
<path d="M359.702 377.368L304.463 371.853L294.909 339.963L340.655 313.554L395.894 319.069L405.448 350.959L359.702 377.368Z" stroke="black" stroke-width="0.369429"/>
<path d="M318.664 326.899L382.653 363.839" stroke="black" stroke-width="0.369429"/>
<path d="M335.158 354.132L318.239 326.837L365.519 336.605L382.438 363.9L335.158 354.132Z" stroke="black" stroke-width="0.369429"/>
<path d="M304.427 371.689L335.141 353.957" stroke="black" stroke-width="0.369429"/>
<path d="M365.216 336.595L395.61 319.049" stroke="black" stroke-width="0.369429"/>
<path d="M304.427 371.689L318.184 326.806L395.45 319.141L382.493 363.931L304.427 371.689Z" stroke="black" stroke-width="0.369429"/>
<circle r="2.03186" transform="matrix(0.866044 -0.499967 0.866044 0.499967 318.504 326.621)" fill="black" stroke="#E297AB" stroke-width="0.369429"/>
<circle r="2.03186" transform="matrix(0.866044 -0.499967 0.866044 0.499967 395.61 319.049)" fill="black" stroke="#E297AB" stroke-width="0.369429"/>
<circle r="2.03186" transform="matrix(0.866044 -0.499967 0.866044 0.499967 304.427 371.689)" fill="black" stroke="#E297AB" stroke-width="0.369429"/>
<circle r="2.03186" transform="matrix(0.866044 -0.499967 0.866044 0.499967 382.813 363.747)" fill="black" stroke="#E297AB" stroke-width="0.369429"/>
<circle r="2.40129" transform="matrix(0.866044 -0.499967 0.866044 0.499967 382.812 363.747)" stroke="black" stroke-width="0.369429" stroke-dasharray="0.37 0.37"/>
<circle r="2.40129" transform="matrix(0.866044 -0.499967 0.866044 0.499967 318.504 326.621)" stroke="black" stroke-width="0.369429" stroke-dasharray="0.37 0.37"/>
<circle r="2.40129" transform="matrix(0.866044 -0.499967 0.866044 0.499967 304.427 371.689)" stroke="black" stroke-width="0.369429" stroke-dasharray="0.37 0.37"/>
<circle r="2.40129" transform="matrix(0.866044 -0.499967 0.866044 0.499967 395.61 319.049)" stroke="black" stroke-width="0.369429" stroke-dasharray="0.37 0.37"/>
<path d="M424.33 414.678L369.091 409.163L359.537 377.273L405.283 350.864L460.523 356.379L470.076 388.269L424.33 414.678Z" stroke="black" stroke-width="0.369429"/>
<path d="M383.292 364.208L447.281 401.149" stroke="black" stroke-width="0.369429"/>
<path d="M399.786 391.442L382.867 364.147L430.147 373.915L447.067 401.21L399.786 391.442Z" stroke="black" stroke-width="0.369429"/>
<path d="M369.055 408.999L399.769 391.267" stroke="black" stroke-width="0.369429"/>
<path d="M429.844 373.905L460.238 356.359" stroke="black" stroke-width="0.369429"/>
<path d="M369.055 408.999L382.812 364.116L460.078 356.451L447.121 401.241L369.055 408.999Z" stroke="black" stroke-width="0.369429"/>
<circle r="2.03186" transform="matrix(0.866044 -0.499967 0.866044 0.499967 383.132 363.931)" fill="black" stroke="#E297AB" stroke-width="0.369429"/>
<circle r="2.03186" transform="matrix(0.866044 -0.499967 0.866044 0.499967 460.238 356.359)" fill="black" stroke="#E297AB" stroke-width="0.369429"/>
<circle r="2.03186" transform="matrix(0.866044 -0.499967 0.866044 0.499967 369.055 408.999)" fill="black" stroke="#E297AB" stroke-width="0.369429"/>
<circle r="2.03186" transform="matrix(0.866044 -0.499967 0.866044 0.499967 447.441 401.057)" fill="black" stroke="#E297AB" stroke-width="0.369429"/>
<circle r="2.40129" transform="matrix(0.866044 -0.499967 0.866044 0.499967 447.441 401.057)" stroke="black" stroke-width="0.369429" stroke-dasharray="0.37 0.37"/>
<circle r="2.40129" transform="matrix(0.866044 -0.499967 0.866044 0.499967 383.132 363.931)" stroke="black" stroke-width="0.369429" stroke-dasharray="0.37 0.37"/>
<circle r="2.40129" transform="matrix(0.866044 -0.499967 0.866044 0.499967 369.055 408.999)" stroke="black" stroke-width="0.369429" stroke-dasharray="0.37 0.37"/>
<circle r="2.40129" transform="matrix(0.866044 -0.499967 0.866044 0.499967 460.238 356.359)" stroke="black" stroke-width="0.369429" stroke-dasharray="0.37 0.37"/>
<path d="M450.886 324.728L395.646 319.213L386.092 287.323L431.838 260.914L487.078 266.429L496.631 298.319L450.886 324.728Z" stroke="black" stroke-width="0.369429"/>
<path d="M409.848 274.258L473.836 311.199" stroke="black" stroke-width="0.369429"/>
<path d="M426.342 301.492L409.422 274.197L456.702 283.965L473.622 311.26L426.342 301.492Z" stroke="black" stroke-width="0.369429"/>
<path d="M395.61 319.049L426.325 301.317" stroke="black" stroke-width="0.369429"/>
<path d="M456.399 283.955L486.794 266.408" stroke="black" stroke-width="0.369429"/>
<path d="M395.61 319.049L409.368 274.166L486.634 266.501L473.676 311.291L395.61 319.049Z" stroke="black" stroke-width="0.369429"/>
<circle r="2.03186" transform="matrix(0.866044 -0.499967 0.866044 0.499967 409.688 273.981)" fill="black" stroke="#E297AB" stroke-width="0.369429"/>
<circle r="2.03186" transform="matrix(0.866044 -0.499967 0.866044 0.499967 486.794 266.408)" fill="black" stroke="#E297AB" stroke-width="0.369429"/>
<circle r="2.03186" transform="matrix(0.866044 -0.499967 0.866044 0.499967 395.61 319.049)" fill="black" stroke="#E297AB" stroke-width="0.369429"/>
<circle r="2.03186" transform="matrix(0.866044 -0.499967 0.866044 0.499967 473.996 311.106)" fill="black" stroke="#E297AB" stroke-width="0.369429"/>
<circle r="2.40129" transform="matrix(0.866044 -0.499967 0.866044 0.499967 473.996 311.106)" stroke="black" stroke-width="0.369429" stroke-dasharray="0.37 0.37"/>
<circle r="2.40129" transform="matrix(0.866044 -0.499967 0.866044 0.499967 409.688 273.981)" stroke="black" stroke-width="0.369429" stroke-dasharray="0.37 0.37"/>
<circle r="2.40129" transform="matrix(0.866044 -0.499967 0.866044 0.499967 395.61 319.049)" stroke="black" stroke-width="0.369429" stroke-dasharray="0.37 0.37"/>
<circle r="2.40129" transform="matrix(0.866044 -0.499967 0.866044 0.499967 486.794 266.408)" stroke="black" stroke-width="0.369429" stroke-dasharray="0.37 0.37"/>
<path d="M515.514 362.038L460.274 356.523L450.721 324.633L496.466 298.224L551.706 303.739L561.26 335.629L515.514 362.038Z" stroke="black" stroke-width="0.369429"/>
<path d="M474.476 311.568L538.464 348.509" stroke="black" stroke-width="0.369429"/>
<path d="M490.97 338.802L474.05 311.507L521.33 321.275L538.25 348.57L490.97 338.802Z" stroke="black" stroke-width="0.369429"/>
<path d="M460.238 356.359L490.953 338.627" stroke="black" stroke-width="0.369429"/>
<path d="M521.027 321.265L551.422 303.718" stroke="black" stroke-width="0.369429"/>
<path d="M460.238 356.359L473.996 311.476L551.262 303.811L538.304 348.601L460.238 356.359Z" stroke="black" stroke-width="0.369429"/>
<circle r="2.03186" transform="matrix(0.866044 -0.499967 0.866044 0.499967 474.316 311.291)" fill="black" stroke="#E297AB" stroke-width="0.369429"/>
<circle r="2.03186" transform="matrix(0.866044 -0.499967 0.866044 0.499967 551.422 303.718)" fill="black" stroke="#E297AB" stroke-width="0.369429"/>
<circle r="2.03186" transform="matrix(0.866044 -0.499967 0.866044 0.499967 460.238 356.359)" fill="black" stroke="#E297AB" stroke-width="0.369429"/>
<circle r="2.03186" transform="matrix(0.866044 -0.499967 0.866044 0.499967 538.624 348.416)" fill="black" stroke="#E297AB" stroke-width="0.369429"/>
<circle r="2.40129" transform="matrix(0.866044 -0.499967 0.866044 0.499967 538.624 348.416)" stroke="black" stroke-width="0.369429" stroke-dasharray="0.37 0.37"/>
<circle r="2.40129" transform="matrix(0.866044 -0.499967 0.866044 0.499967 474.316 311.291)" stroke="black" stroke-width="0.369429" stroke-dasharray="0.37 0.37"/>
<circle r="2.40129" transform="matrix(0.866044 -0.499967 0.866044 0.499967 460.238 356.359)" stroke="black" stroke-width="0.369429" stroke-dasharray="0.37 0.37"/>
<circle r="2.40129" transform="matrix(0.866044 -0.499967 0.866044 0.499967 551.422 303.718)" stroke="black" stroke-width="0.369429" stroke-dasharray="0.37 0.37"/>
<path d="M395.77 319.141L460.398 356.451L493.192 375.383" stroke="black" stroke-width="0.369429"/>
<path d="M395.45 318.956L362.656 300.024" stroke="black" stroke-width="0.369429"/>
<path d="M488.959 451.988L433.719 446.473L424.165 414.583L469.911 388.174L525.151 393.689L534.705 425.579L488.959 451.988Z" stroke="black" stroke-width="0.369429"/>
<path d="M447.921 401.518L511.909 438.459" stroke="black" stroke-width="0.369429"/>
<path d="M464.415 428.752L447.495 401.457L494.775 411.225L511.695 438.52L464.415 428.752Z" stroke="black" stroke-width="0.369429"/>
<path d="M494.472 411.215L524.867 393.668" stroke="black" stroke-width="0.369429"/>
<path d="M433.683 446.309L447.441 401.426L524.707 393.761L511.749 438.551L433.683 446.309Z" stroke="black" stroke-width="0.369429"/>
<circle r="2.03186" transform="matrix(0.866044 -0.499967 0.866044 0.499967 447.761 401.241)" fill="black" stroke="#E297AB" stroke-width="0.369429"/>
<circle r="2.03186" transform="matrix(0.866044 -0.499967 0.866044 0.499967 524.867 393.668)" fill="black" stroke="#E297AB" stroke-width="0.369429"/>
<circle r="2.40129" transform="matrix(0.866044 -0.499967 0.866044 0.499967 447.761 401.241)" stroke="black" stroke-width="0.369429" stroke-dasharray="0.37 0.37"/>
<circle r="2.40129" transform="matrix(0.866044 -0.499967 0.866044 0.499967 524.867 393.668)" stroke="black" stroke-width="0.369429" stroke-dasharray="0.37 0.37"/>
<path d="M553.587 489.298L498.347 483.783L488.794 451.893L534.539 425.484L589.779 430.999L599.333 462.889L553.587 489.298Z" stroke="black" stroke-width="0.369429"/>
<path d="M498.312 483.619L512.069 438.736L589.335 431.071L576.377 475.861L498.312 483.619Z" stroke="black" stroke-width="0.369429"/>
<path d="M580.142 399.348L524.903 393.832L515.349 361.943L561.095 335.534L616.334 341.049L625.888 372.939L580.142 399.348Z" stroke="black" stroke-width="0.369429"/>
<path d="M539.104 348.878L603.092 385.819" stroke="black" stroke-width="0.369429"/>
<path d="M555.598 376.112L538.678 348.817L585.959 358.585L602.878 385.88L555.598 376.112Z" stroke="black" stroke-width="0.369429"/>
<path d="M524.867 393.668L555.581 375.937" stroke="black" stroke-width="0.369429"/>
<path d="M585.656 358.575L616.05 341.028" stroke="black" stroke-width="0.369429"/>
<path d="M524.867 393.668L538.624 348.786L615.89 341.121L602.933 385.911L524.867 393.668Z" stroke="black" stroke-width="0.369429"/>
<circle r="2.03186" transform="matrix(0.866044 -0.499967 0.866044 0.499967 538.944 348.601)" fill="black" stroke="#E297AB" stroke-width="0.369429"/>
<circle r="2.03186" transform="matrix(0.866044 -0.499967 0.866044 0.499967 616.05 341.028)" fill="black" stroke="#E297AB" stroke-width="0.369429"/>
<circle r="2.03186" transform="matrix(0.866044 -0.499967 0.866044 0.499967 524.867 393.668)" fill="black" stroke="#E297AB" stroke-width="0.369429"/>
<circle r="2.03186" transform="matrix(0.866044 -0.499967 0.866044 0.499967 603.252 385.726)" fill="black" stroke="#E297AB" stroke-width="0.369429"/>
<circle r="2.40129" transform="matrix(0.866044 -0.499967 0.866044 0.499967 603.252 385.726)" stroke="black" stroke-width="0.369429" stroke-dasharray="0.37 0.37"/>
<circle r="2.40129" transform="matrix(0.866044 -0.499967 0.866044 0.499967 538.944 348.601)" stroke="black" stroke-width="0.369429" stroke-dasharray="0.37 0.37"/>
<circle r="2.40129" transform="matrix(0.866044 -0.499967 0.866044 0.499967 524.867 393.668)" stroke="black" stroke-width="0.369429" stroke-dasharray="0.37 0.37"/>
<circle r="2.40129" transform="matrix(0.866044 -0.499967 0.866044 0.499967 616.05 341.028)" stroke="black" stroke-width="0.369429" stroke-dasharray="0.37 0.37"/>
<path d="M644.77 436.658L589.531 431.142L579.977 399.252L625.723 372.843L680.963 378.359L690.516 410.249L644.77 436.658Z" stroke="black" stroke-width="0.369429"/>
<path d="M603.732 386.188L667.721 423.128" stroke="black" stroke-width="0.369429"/>
<path d="M620.226 413.422L603.307 386.127L650.587 395.895L667.507 423.189L620.226 413.422Z" stroke="black" stroke-width="0.369429"/>
<path d="M589.495 430.978L620.209 413.247" stroke="black" stroke-width="0.369429"/>
<path d="M650.284 395.885L680.678 378.338" stroke="black" stroke-width="0.369429"/>
<path d="M589.495 430.978L603.252 386.096L680.518 378.43L667.561 423.221L589.495 430.978Z" stroke="black" stroke-width="0.369429"/>
<circle r="2.03186" transform="matrix(0.866044 -0.499967 0.866044 0.499967 603.572 385.911)" fill="black" stroke="#E297AB" stroke-width="0.369429"/>
<circle r="2.03186" transform="matrix(0.866044 -0.499967 0.866044 0.499967 680.678 378.338)" fill="black" stroke="#E297AB" stroke-width="0.369429"/>
<circle r="2.03186" transform="matrix(0.866044 -0.499967 0.866044 0.499967 667.881 423.036)" fill="black" stroke="#E297AB" stroke-width="0.369429"/>
<circle r="2.40129" transform="matrix(0.866044 -0.499967 0.866044 0.499967 667.881 423.036)" stroke="black" stroke-width="0.369429" stroke-dasharray="0.37 0.37"/>
<circle r="2.40129" transform="matrix(0.866044 -0.499967 0.866044 0.499967 603.572 385.911)" stroke="black" stroke-width="0.369429" stroke-dasharray="0.37 0.37"/>
<circle r="2.40129" transform="matrix(0.866044 -0.499967 0.866044 0.499967 680.678 378.338)" stroke="black" stroke-width="0.369429" stroke-dasharray="0.37 0.37"/>
<path d="M525.027 393.761L589.655 431.071L622.449 450.003" stroke="black" stroke-width="0.369429"/>
<path d="M524.707 393.576L491.913 374.644" stroke="black" stroke-width="0.369429"/>
<line y1="-0.184714" x2="445.901" y2="-0.184714" transform="matrix(0.866044 0.499967 -0.866044 0.499967 44.954 222.265)" stroke="black" stroke-width="0.369429"/>
<path d="M282.916 122.848L227.677 117.333L218.123 85.4432L263.869 59.0341L319.108 64.5494L328.662 96.4393L282.916 122.848Z" stroke="black" stroke-width="0.369429"/>
<path d="M241.878 72.3787L305.867 109.319" stroke="black" stroke-width="0.369429"/>
<path d="M258.372 99.6124L241.453 72.3176L288.733 82.0853L305.652 109.38L258.372 99.6124Z" stroke="black" stroke-width="0.369429"/>
<path d="M227.641 117.169L258.355 99.4375" stroke="black" stroke-width="0.369429"/>
<path d="M288.43 82.0755L318.824 64.5288" stroke="black" stroke-width="0.369429"/>
<path d="M227.641 117.169L241.398 72.2863L318.664 64.6211L305.707 109.411L227.641 117.169Z" stroke="black" stroke-width="0.369429"/>
<circle r="2.03186" transform="matrix(0.866044 -0.499967 0.866044 0.499967 241.718 72.1016)" fill="black" stroke="#E297AB" stroke-width="0.369429"/>
<circle r="2.03186" transform="matrix(0.866044 -0.499967 0.866044 0.499967 318.824 64.5288)" fill="black" stroke="#E297AB" stroke-width="0.369429"/>
<circle r="2.03186" transform="matrix(0.866044 -0.499967 0.866044 0.499967 227.641 117.169)" fill="black" stroke="#E297AB" stroke-width="0.369429"/>
<circle r="2.03186" transform="matrix(0.866044 -0.499967 0.866044 0.499967 306.027 109.227)" fill="black" stroke="#E297AB" stroke-width="0.369429"/>
<circle r="2.40129" transform="matrix(0.866044 -0.499967 0.866044 0.499967 306.027 109.227)" stroke="black" stroke-width="0.369429" stroke-dasharray="0.37 0.37"/>
<circle r="2.40129" transform="matrix(0.866044 -0.499967 0.866044 0.499967 241.718 72.1016)" stroke="black" stroke-width="0.369429" stroke-dasharray="0.37 0.37"/>
<circle r="2.40129" transform="matrix(0.866044 -0.499967 0.866044 0.499967 227.641 117.169)" stroke="black" stroke-width="0.369429" stroke-dasharray="0.37 0.37"/>
<circle r="2.40129" transform="matrix(0.866044 -0.499967 0.866044 0.499967 318.824 64.5288)" stroke="black" stroke-width="0.369429" stroke-dasharray="0.37 0.37"/>
<path d="M347.544 160.158L292.305 154.643L282.751 122.753L328.497 96.344L383.737 101.859L393.29 133.749L347.544 160.158Z" stroke="black" stroke-width="0.369429"/>
<path d="M306.506 109.689L370.495 146.629" stroke="black" stroke-width="0.369429"/>
<path d="M323 136.922L306.081 109.627L353.361 119.395L370.281 146.69L323 136.922Z" stroke="black" stroke-width="0.369429"/>
<path d="M292.269 154.479L322.983 136.747" stroke="black" stroke-width="0.369429"/>
<path d="M353.058 119.385L383.452 101.839" stroke="black" stroke-width="0.369429"/>
<path d="M292.269 154.479L306.027 109.596L383.292 101.931L370.335 146.721L292.269 154.479Z" stroke="black" stroke-width="0.369429"/>
<circle r="2.03186" transform="matrix(0.866044 -0.499967 0.866044 0.499967 306.346 109.411)" fill="black" stroke="#E297AB" stroke-width="0.369429"/>
<circle r="2.03186" transform="matrix(0.866044 -0.499967 0.866044 0.499967 383.452 101.839)" fill="black" stroke="#E297AB" stroke-width="0.369429"/>
<circle r="2.03186" transform="matrix(0.866044 -0.499967 0.866044 0.499967 292.269 154.479)" fill="black" stroke="#E297AB" stroke-width="0.369429"/>
<circle r="2.03186" transform="matrix(0.866044 -0.499967 0.866044 0.499967 370.655 146.537)" fill="black" stroke="#E297AB" stroke-width="0.369429"/>
<circle r="2.40129" transform="matrix(0.866044 -0.499967 0.866044 0.499967 370.655 146.537)" stroke="black" stroke-width="0.369429" stroke-dasharray="0.37 0.37"/>
<circle r="2.40129" transform="matrix(0.866044 -0.499967 0.866044 0.499967 306.346 109.411)" stroke="black" stroke-width="0.369429" stroke-dasharray="0.37 0.37"/>
<circle r="2.40129" transform="matrix(0.866044 -0.499967 0.866044 0.499967 292.269 154.479)" stroke="black" stroke-width="0.369429" stroke-dasharray="0.37 0.37"/>
<circle r="2.40129" transform="matrix(0.866044 -0.499967 0.866044 0.499967 383.452 101.839)" stroke="black" stroke-width="0.369429" stroke-dasharray="0.37 0.37"/>
<path d="M374.1 70.2082L318.86 64.6929L309.306 32.803L355.052 6.39396L410.292 11.9093L419.845 43.7991L374.1 70.2082Z" stroke="black" stroke-width="0.369429"/>
<path d="M333.062 19.7385L397.05 56.6789" stroke="black" stroke-width="0.369429"/>
<path d="M349.556 46.9723L332.636 19.6774L379.916 29.4451L396.836 56.74L349.556 46.9723Z" stroke="black" stroke-width="0.369429"/>
<path d="M318.824 64.5288L349.539 46.7974" stroke="black" stroke-width="0.369429"/>
<path d="M379.613 29.4353L410.008 11.8886" stroke="black" stroke-width="0.369429"/>
<path d="M318.824 64.5288L332.582 19.6461L409.848 11.981L396.89 56.7713L318.824 64.5288Z" stroke="black" stroke-width="0.369429"/>
<circle r="2.03186" transform="matrix(0.866044 -0.499967 0.866044 0.499967 332.902 19.4614)" fill="black" stroke="#E297AB" stroke-width="0.369429"/>
<circle r="2.03186" transform="matrix(0.866044 -0.499967 0.866044 0.499967 410.008 11.8886)" fill="black" stroke="#E297AB" stroke-width="0.369429"/>
<circle r="2.03186" transform="matrix(0.866044 -0.499967 0.866044 0.499967 318.824 64.5288)" fill="black" stroke="#E297AB" stroke-width="0.369429"/>
<circle r="2.03186" transform="matrix(0.866044 -0.499967 0.866044 0.499967 397.21 56.5866)" fill="black" stroke="#E297AB" stroke-width="0.369429"/>
<circle r="2.40129" transform="matrix(0.866044 -0.499967 0.866044 0.499967 397.21 56.5866)" stroke="black" stroke-width="0.369429" stroke-dasharray="0.37 0.37"/>
<circle r="2.40129" transform="matrix(0.866044 -0.499967 0.866044 0.499967 332.902 19.4614)" stroke="black" stroke-width="0.369429" stroke-dasharray="0.37 0.37"/>
<circle r="2.40129" transform="matrix(0.866044 -0.499967 0.866044 0.499967 318.824 64.5288)" stroke="black" stroke-width="0.369429" stroke-dasharray="0.37 0.37"/>
<circle r="2.40129" transform="matrix(0.866044 -0.499967 0.866044 0.499967 410.008 11.8886)" stroke="black" stroke-width="0.369429" stroke-dasharray="0.37 0.37"/>
<path d="M438.728 107.518L383.488 102.003L373.935 70.1129L419.68 43.7038L474.92 49.2192L484.474 81.109L438.728 107.518Z" stroke="black" stroke-width="0.369429"/>
<path d="M397.69 57.0483L461.678 93.9888" stroke="black" stroke-width="0.369429"/>
<path d="M414.184 84.2822L397.264 56.9873L444.544 66.755L461.464 94.0499L414.184 84.2822Z" stroke="black" stroke-width="0.369429"/>
<path d="M383.452 101.839L414.167 84.1073" stroke="black" stroke-width="0.369429"/>
<path d="M444.241 66.7452L474.636 49.1985" stroke="black" stroke-width="0.369429"/>
<path d="M383.452 101.839L397.21 56.956L474.476 49.2908L461.518 94.0812L383.452 101.839Z" stroke="black" stroke-width="0.369429"/>
<circle r="2.03186" transform="matrix(0.866044 -0.499967 0.866044 0.499967 397.53 56.7713)" fill="black" stroke="#E297AB" stroke-width="0.369429"/>
<circle r="2.03186" transform="matrix(0.866044 -0.499967 0.866044 0.499967 474.636 49.1985)" fill="black" stroke="#E297AB" stroke-width="0.369429"/>
<circle r="2.03186" transform="matrix(0.866044 -0.499967 0.866044 0.499967 383.452 101.839)" fill="black" stroke="#E297AB" stroke-width="0.369429"/>
<circle r="2.03186" transform="matrix(0.866044 -0.499967 0.866044 0.499967 461.838 93.8965)" fill="black" stroke="#E297AB" stroke-width="0.369429"/>
<circle r="2.40129" transform="matrix(0.866044 -0.499967 0.866044 0.499967 461.838 93.8965)" stroke="black" stroke-width="0.369429" stroke-dasharray="0.37 0.37"/>
<circle r="2.40129" transform="matrix(0.866044 -0.499967 0.866044 0.499967 397.53 56.7713)" stroke="black" stroke-width="0.369429" stroke-dasharray="0.37 0.37"/>
<circle r="2.40129" transform="matrix(0.866044 -0.499967 0.866044 0.499967 383.452 101.839)" stroke="black" stroke-width="0.369429" stroke-dasharray="0.37 0.37"/>
<circle r="2.40129" transform="matrix(0.866044 -0.499967 0.866044 0.499967 474.636 49.1985)" stroke="black" stroke-width="0.369429" stroke-dasharray="0.37 0.37"/>
<path d="M318.984 64.6212L383.612 101.931L416.406 120.863" stroke="black" stroke-width="0.369429"/>
<path d="M318.664 64.4364L285.87 45.5045" stroke="black" stroke-width="0.369429"/>
<path d="M412.493 197.653L357.253 192.137L347.699 160.248L393.445 133.839L448.685 139.354L458.238 171.244L412.493 197.653Z" stroke="black" stroke-width="0.369429"/>
<path d="M371.455 147.183L435.443 184.124" stroke="black" stroke-width="0.369429"/>
<path d="M387.949 174.417L371.029 147.122L418.309 156.89L435.229 184.185L387.949 174.417Z" stroke="black" stroke-width="0.369429"/>
<path d="M357.217 191.973L387.932 174.242" stroke="black" stroke-width="0.369429"/>
<path d="M418.006 156.88L448.401 139.333" stroke="black" stroke-width="0.369429"/>
<path d="M357.217 191.973L370.975 147.091L448.241 139.426L435.283 184.216L357.217 191.973Z" stroke="black" stroke-width="0.369429"/>
<circle r="2.03186" transform="matrix(0.866044 -0.499967 0.866044 0.499967 371.295 146.906)" fill="black" stroke="#E297AB" stroke-width="0.369429"/>
<circle r="2.03186" transform="matrix(0.866044 -0.499967 0.866044 0.499967 448.401 139.333)" fill="black" stroke="#E297AB" stroke-width="0.369429"/>
<circle r="2.03186" transform="matrix(0.866044 -0.499967 0.866044 0.499967 357.217 191.973)" fill="black" stroke="#E297AB" stroke-width="0.369429"/>
<circle r="2.03186" transform="matrix(0.866044 -0.499967 0.866044 0.499967 435.603 184.031)" fill="black" stroke="#E297AB" stroke-width="0.369429"/>
<circle r="2.40129" transform="matrix(0.866044 -0.499967 0.866044 0.499967 435.603 184.031)" stroke="black" stroke-width="0.369429" stroke-dasharray="0.37 0.37"/>
<circle r="2.40129" transform="matrix(0.866044 -0.499967 0.866044 0.499967 371.295 146.906)" stroke="black" stroke-width="0.369429" stroke-dasharray="0.37 0.37"/>
<circle r="2.40129" transform="matrix(0.866044 -0.499967 0.866044 0.499967 357.217 191.973)" stroke="black" stroke-width="0.369429" stroke-dasharray="0.37 0.37"/>
<circle r="2.40129" transform="matrix(0.866044 -0.499967 0.866044 0.499967 448.401 139.333)" stroke="black" stroke-width="0.369429" stroke-dasharray="0.37 0.37"/>
<path d="M477.121 234.963L421.881 229.447L412.328 197.558L458.073 171.148L513.313 176.664L522.867 208.554L477.121 234.963Z" stroke="black" stroke-width="0.369429"/>
<path d="M436.083 184.493L500.071 221.433" stroke="black" stroke-width="0.369429"/>
<path d="M452.577 211.727L435.657 184.432L482.937 194.2L499.857 221.495L452.577 211.727Z" stroke="black" stroke-width="0.369429"/>
<path d="M421.845 229.283L452.56 211.552" stroke="black" stroke-width="0.369429"/>
<path d="M482.634 194.19L513.029 176.643" stroke="black" stroke-width="0.369429"/>
<path d="M421.845 229.283L435.603 184.401L512.869 176.735L499.911 221.526L421.845 229.283Z" stroke="black" stroke-width="0.369429"/>
<circle r="2.03186" transform="matrix(0.866044 -0.499967 0.866044 0.499967 435.923 184.216)" fill="black" stroke="#E297AB" stroke-width="0.369429"/>
<circle r="2.03186" transform="matrix(0.866044 -0.499967 0.866044 0.499967 513.029 176.643)" fill="black" stroke="#E297AB" stroke-width="0.369429"/>
<circle r="2.03186" transform="matrix(0.866044 -0.499967 0.866044 0.499967 421.845 229.283)" fill="black" stroke="#E297AB" stroke-width="0.369429"/>
<circle r="2.03186" transform="matrix(0.866044 -0.499967 0.866044 0.499967 500.231 221.341)" fill="black" stroke="#E297AB" stroke-width="0.369429"/>
<circle r="2.40129" transform="matrix(0.866044 -0.499967 0.866044 0.499967 500.231 221.341)" stroke="black" stroke-width="0.369429" stroke-dasharray="0.37 0.37"/>
<circle r="2.40129" transform="matrix(0.866044 -0.499967 0.866044 0.499967 435.923 184.216)" stroke="black" stroke-width="0.369429" stroke-dasharray="0.37 0.37"/>
<circle r="2.40129" transform="matrix(0.866044 -0.499967 0.866044 0.499967 421.845 229.283)" stroke="black" stroke-width="0.369429" stroke-dasharray="0.37 0.37"/>
<circle r="2.40129" transform="matrix(0.866044 -0.499967 0.866044 0.499967 513.029 176.643)" stroke="black" stroke-width="0.369429" stroke-dasharray="0.37 0.37"/>
<path d="M503.676 145.013L448.436 139.497L438.883 107.607L484.629 81.1984L539.868 86.7137L549.422 118.604L503.676 145.013Z" stroke="black" stroke-width="0.369429"/>
<path d="M462.638 94.5429L526.626 131.483" stroke="black" stroke-width="0.369429"/>
<path d="M479.132 121.777L462.212 94.4819L509.492 104.25L526.412 131.544L479.132 121.777Z" stroke="black" stroke-width="0.369429"/>
<path d="M448.401 139.333L479.115 121.602" stroke="black" stroke-width="0.369429"/>
<path d="M509.19 104.24L539.584 86.6931" stroke="black" stroke-width="0.369429"/>
<path d="M448.401 139.333L462.158 94.4506L539.424 86.7854L526.466 131.576L448.401 139.333Z" stroke="black" stroke-width="0.369429"/>
<circle r="2.03186" transform="matrix(0.866044 -0.499967 0.866044 0.499967 462.478 94.2659)" fill="black" stroke="#E297AB" stroke-width="0.369429"/>
<circle r="2.03186" transform="matrix(0.866044 -0.499967 0.866044 0.499967 539.584 86.6931)" fill="black" stroke="#E297AB" stroke-width="0.369429"/>
<circle r="2.03186" transform="matrix(0.866044 -0.499967 0.866044 0.499967 448.401 139.333)" fill="black" stroke="#E297AB" stroke-width="0.369429"/>
<circle r="2.03186" transform="matrix(0.866044 -0.499967 0.866044 0.499967 526.786 131.391)" fill="black" stroke="#E297AB" stroke-width="0.369429"/>
<circle r="2.40129" transform="matrix(0.866044 -0.499967 0.866044 0.499967 526.786 131.391)" stroke="black" stroke-width="0.369429" stroke-dasharray="0.37 0.37"/>
<circle r="2.40129" transform="matrix(0.866044 -0.499967 0.866044 0.499967 462.478 94.2659)" stroke="black" stroke-width="0.369429" stroke-dasharray="0.37 0.37"/>
<circle r="2.40129" transform="matrix(0.866044 -0.499967 0.866044 0.499967 448.401 139.333)" stroke="black" stroke-width="0.369429" stroke-dasharray="0.37 0.37"/>
<circle r="2.40129" transform="matrix(0.866044 -0.499967 0.866044 0.499967 539.584 86.6931)" stroke="black" stroke-width="0.369429" stroke-dasharray="0.37 0.37"/>
<path d="M568.304 182.322L513.065 176.807L503.511 144.917L549.257 118.508L604.496 124.024L614.05 155.913L568.304 182.322Z" stroke="black" stroke-width="0.369429"/>
<path d="M527.266 131.853L591.255 168.793" stroke="black" stroke-width="0.369429"/>
<path d="M543.76 159.087L526.841 131.792L574.121 141.559L591.04 168.854L543.76 159.087Z" stroke="black" stroke-width="0.369429"/>
<path d="M513.029 176.643L543.743 158.912" stroke="black" stroke-width="0.369429"/>
<path d="M573.818 141.55L604.212 124.003" stroke="black" stroke-width="0.369429"/>
<path d="M513.029 176.643L526.786 131.76L604.052 124.095L591.095 168.886L513.029 176.643Z" stroke="black" stroke-width="0.369429"/>
<circle r="2.03186" transform="matrix(0.866044 -0.499967 0.866044 0.499967 527.106 131.576)" fill="black" stroke="#E297AB" stroke-width="0.369429"/>
<circle r="2.03186" transform="matrix(0.866044 -0.499967 0.866044 0.499967 604.212 124.003)" fill="black" stroke="#E297AB" stroke-width="0.369429"/>
<circle r="2.03186" transform="matrix(0.866044 -0.499967 0.866044 0.499967 513.029 176.643)" fill="black" stroke="#E297AB" stroke-width="0.369429"/>
<circle r="2.03186" transform="matrix(0.866044 -0.499967 0.866044 0.499967 591.415 168.701)" fill="black" stroke="#E297AB" stroke-width="0.369429"/>
<circle r="2.40129" transform="matrix(0.866044 -0.499967 0.866044 0.499967 591.415 168.701)" stroke="black" stroke-width="0.369429" stroke-dasharray="0.37 0.37"/>
<circle r="2.40129" transform="matrix(0.866044 -0.499967 0.866044 0.499967 527.106 131.576)" stroke="black" stroke-width="0.369429" stroke-dasharray="0.37 0.37"/>
<circle r="2.40129" transform="matrix(0.866044 -0.499967 0.866044 0.499967 513.029 176.643)" stroke="black" stroke-width="0.369429" stroke-dasharray="0.37 0.37"/>
<circle r="2.40129" transform="matrix(0.866044 -0.499967 0.866044 0.499967 604.212 124.003)" stroke="black" stroke-width="0.369429" stroke-dasharray="0.37 0.37"/>
<path d="M448.561 139.426L513.189 176.736L545.983 195.668" stroke="black" stroke-width="0.369429"/>
<path d="M448.241 139.241L415.447 120.309" stroke="black" stroke-width="0.369429"/>
<path d="M541.749 272.273L486.509 266.757L476.956 234.867L522.702 208.458L577.941 213.974L587.495 245.864L541.749 272.273Z" stroke="black" stroke-width="0.369429"/>
<path d="M500.711 221.803L564.699 258.743" stroke="black" stroke-width="0.369429"/>
<path d="M517.205 249.037L500.285 221.742L547.566 231.51L564.485 258.804L517.205 249.037Z" stroke="black" stroke-width="0.369429"/>
<path d="M486.474 266.593L517.188 248.862" stroke="black" stroke-width="0.369429"/>
<path d="M547.263 231.5L577.657 213.953" stroke="black" stroke-width="0.369429"/>
<path d="M486.474 266.593L500.231 221.711L577.497 214.045L564.539 258.836L486.474 266.593Z" stroke="black" stroke-width="0.369429"/>
<circle r="2.03186" transform="matrix(0.866044 -0.499967 0.866044 0.499967 500.551 221.526)" fill="black" stroke="#E297AB" stroke-width="0.369429"/>
<circle r="2.03186" transform="matrix(0.866044 -0.499967 0.866044 0.499967 577.657 213.953)" fill="black" stroke="#E297AB" stroke-width="0.369429"/>
<circle r="2.03186" transform="matrix(0.866044 -0.499967 0.866044 0.499967 486.474 266.593)" fill="black" stroke="#E297AB" stroke-width="0.369429"/>
<circle r="2.03186" transform="matrix(0.866044 -0.499967 0.866044 0.499967 564.859 258.651)" fill="black" stroke="#E297AB" stroke-width="0.369429"/>
<circle r="2.40129" transform="matrix(0.866044 -0.499967 0.866044 0.499967 564.859 258.651)" stroke="black" stroke-width="0.369429" stroke-dasharray="0.37 0.37"/>
<circle r="2.40129" transform="matrix(0.866044 -0.499967 0.866044 0.499967 500.551 221.526)" stroke="black" stroke-width="0.369429" stroke-dasharray="0.37 0.37"/>
<circle r="2.40129" transform="matrix(0.866044 -0.499967 0.866044 0.499967 486.474 266.593)" stroke="black" stroke-width="0.369429" stroke-dasharray="0.37 0.37"/>
<circle r="2.40129" transform="matrix(0.866044 -0.499967 0.866044 0.499967 577.657 213.953)" stroke="black" stroke-width="0.369429" stroke-dasharray="0.37 0.37"/>
<path d="M606.377 309.582L551.138 304.067L541.584 272.177L587.33 245.768L642.569 251.284L652.123 283.173L606.377 309.582Z" stroke="black" stroke-width="0.369429"/>
<path d="M565.339 259.113L629.328 296.053" stroke="black" stroke-width="0.369429"/>
<path d="M581.833 286.347L564.914 259.052L612.194 268.819L629.113 296.114L581.833 286.347Z" stroke="black" stroke-width="0.369429"/>
<path d="M551.102 303.903L581.816 286.172" stroke="black" stroke-width="0.369429"/>
<path d="M611.891 268.81L642.285 251.263" stroke="black" stroke-width="0.369429"/>
<path d="M551.102 303.903L564.859 259.02L642.125 251.355L629.168 296.146L551.102 303.903Z" stroke="black" stroke-width="0.369429"/>
<circle r="2.03186" transform="matrix(0.866044 -0.499967 0.866044 0.499967 565.179 258.836)" fill="black" stroke="#E297AB" stroke-width="0.369429"/>
<circle r="2.03186" transform="matrix(0.866044 -0.499967 0.866044 0.499967 642.285 251.263)" fill="black" stroke="#E297AB" stroke-width="0.369429"/>
<circle r="2.03186" transform="matrix(0.866044 -0.499967 0.866044 0.499967 551.102 303.903)" fill="black" stroke="#E297AB" stroke-width="0.369429"/>
<circle r="2.03186" transform="matrix(0.866044 -0.499967 0.866044 0.499967 629.488 295.961)" fill="black" stroke="#E297AB" stroke-width="0.369429"/>
<circle r="2.40129" transform="matrix(0.866044 -0.499967 0.866044 0.499967 629.488 295.961)" stroke="black" stroke-width="0.369429" stroke-dasharray="0.37 0.37"/>
<circle r="2.40129" transform="matrix(0.866044 -0.499967 0.866044 0.499967 565.179 258.836)" stroke="black" stroke-width="0.369429" stroke-dasharray="0.37 0.37"/>
<circle r="2.40129" transform="matrix(0.866044 -0.499967 0.866044 0.499967 551.102 303.903)" stroke="black" stroke-width="0.369429" stroke-dasharray="0.37 0.37"/>
<circle r="2.40129" transform="matrix(0.866044 -0.499967 0.866044 0.499967 642.285 251.263)" stroke="black" stroke-width="0.369429" stroke-dasharray="0.37 0.37"/>
<path d="M632.933 219.632L577.693 214.117L568.139 182.227L613.885 155.818L669.125 161.334L678.678 193.223L632.933 219.632Z" stroke="black" stroke-width="0.369429"/>
<path d="M591.895 169.163L655.883 206.103" stroke="black" stroke-width="0.369429"/>
<path d="M608.388 196.397L591.469 169.102L638.749 178.869L655.669 206.164L608.388 196.397Z" stroke="black" stroke-width="0.369429"/>
<path d="M577.657 213.953L608.372 196.222" stroke="black" stroke-width="0.369429"/>
<path d="M638.446 178.86L668.841 161.313" stroke="black" stroke-width="0.369429"/>
<path d="M577.657 213.953L591.415 169.07L668.681 161.405L655.723 206.196L577.657 213.953Z" stroke="black" stroke-width="0.369429"/>
<circle r="2.03186" transform="matrix(0.866044 -0.499967 0.866044 0.499967 591.735 168.886)" fill="black" stroke="#E297AB" stroke-width="0.369429"/>
<circle r="2.03186" transform="matrix(0.866044 -0.499967 0.866044 0.499967 668.841 161.313)" fill="black" stroke="#E297AB" stroke-width="0.369429"/>
<circle r="2.03186" transform="matrix(0.866044 -0.499967 0.866044 0.499967 577.657 213.953)" fill="black" stroke="#E297AB" stroke-width="0.369429"/>
<circle r="2.03186" transform="matrix(0.866044 -0.499967 0.866044 0.499967 656.043 206.011)" fill="black" stroke="#E297AB" stroke-width="0.369429"/>
<circle r="2.40129" transform="matrix(0.866044 -0.499967 0.866044 0.499967 656.043 206.011)" stroke="black" stroke-width="0.369429" stroke-dasharray="0.37 0.37"/>
<circle r="2.40129" transform="matrix(0.866044 -0.499967 0.866044 0.499967 591.735 168.886)" stroke="black" stroke-width="0.369429" stroke-dasharray="0.37 0.37"/>
<circle r="2.40129" transform="matrix(0.866044 -0.499967 0.866044 0.499967 577.657 213.953)" stroke="black" stroke-width="0.369429" stroke-dasharray="0.37 0.37"/>
<circle r="2.40129" transform="matrix(0.866044 -0.499967 0.866044 0.499967 668.841 161.313)" stroke="black" stroke-width="0.369429" stroke-dasharray="0.37 0.37"/>
<path d="M697.561 256.942L642.321 251.427L632.767 219.537L678.513 193.128L733.753 198.643L743.307 230.533L697.561 256.942Z" stroke="black" stroke-width="0.369429"/>
<path d="M656.523 206.473L720.511 243.413" stroke="black" stroke-width="0.369429"/>
<path d="M673.017 233.706L656.097 206.412L703.377 216.179L720.297 243.474L673.017 233.706Z" stroke="black" stroke-width="0.369429"/>
<path d="M642.285 251.263L673 233.531" stroke="black" stroke-width="0.369429"/>
<path d="M703.074 216.169L733.469 198.623" stroke="black" stroke-width="0.369429"/>
<path d="M642.285 251.263L656.043 206.38L733.309 198.715L720.351 243.505L642.285 251.263Z" stroke="black" stroke-width="0.369429"/>
<circle r="2.03186" transform="matrix(0.866044 -0.499967 0.866044 0.499967 656.363 206.196)" fill="black" stroke="#E297AB" stroke-width="0.369429"/>
<circle r="2.03186" transform="matrix(0.866044 -0.499967 0.866044 0.499967 733.469 198.623)" fill="black" stroke="#E297AB" stroke-width="0.369429"/>
<circle r="2.03186" transform="matrix(0.866044 -0.499967 0.866044 0.499967 642.285 251.263)" fill="black" stroke="#E297AB" stroke-width="0.369429"/>
<circle r="2.03186" transform="matrix(0.866044 -0.499967 0.866044 0.499967 720.671 243.321)" fill="black" stroke="#E297AB" stroke-width="0.369429"/>
<circle r="2.40129" transform="matrix(0.866044 -0.499967 0.866044 0.499967 720.671 243.321)" stroke="black" stroke-width="0.369429" stroke-dasharray="0.37 0.37"/>
<circle r="2.40129" transform="matrix(0.866044 -0.499967 0.866044 0.499967 656.363 206.196)" stroke="black" stroke-width="0.369429" stroke-dasharray="0.37 0.37"/>
<circle r="2.40129" transform="matrix(0.866044 -0.499967 0.866044 0.499967 642.285 251.263)" stroke="black" stroke-width="0.369429" stroke-dasharray="0.37 0.37"/>
<circle r="2.40129" transform="matrix(0.866044 -0.499967 0.866044 0.499967 733.469 198.623)" stroke="black" stroke-width="0.369429" stroke-dasharray="0.37 0.37"/>
<path d="M577.817 214.045L642.445 251.355L675.239 270.287" stroke="black" stroke-width="0.369429"/>
<path d="M577.497 213.861L544.703 194.929" stroke="black" stroke-width="0.369429"/>
<path d="M671.006 346.892L615.766 341.377L606.212 309.487L651.958 283.078L707.198 288.593L716.751 320.483L671.006 346.892Z" stroke="black" stroke-width="0.369429"/>
<path d="M629.968 296.423L693.956 333.363" stroke="black" stroke-width="0.369429"/>
<path d="M646.462 323.656L629.542 296.362L676.822 306.129L693.742 333.424L646.462 323.656Z" stroke="black" stroke-width="0.369429"/>
<path d="M615.73 341.213L646.445 323.482" stroke="black" stroke-width="0.369429"/>
<path d="M676.519 306.12L706.914 288.573" stroke="black" stroke-width="0.369429"/>
<path d="M615.73 341.213L629.488 296.33L706.754 288.665L693.796 333.455L615.73 341.213Z" stroke="black" stroke-width="0.369429"/>
<circle r="2.03186" transform="matrix(0.866044 -0.499967 0.866044 0.499967 629.808 296.146)" fill="black" stroke="#E297AB" stroke-width="0.369429"/>
<circle r="2.03186" transform="matrix(0.866044 -0.499967 0.866044 0.499967 706.914 288.573)" fill="black" stroke="#E297AB" stroke-width="0.369429"/>
<circle r="2.03186" transform="matrix(0.866044 -0.499967 0.866044 0.499967 615.73 341.213)" fill="black" stroke="#E297AB" stroke-width="0.369429"/>
<circle r="2.03186" transform="matrix(0.866044 -0.499967 0.866044 0.499967 694.116 333.271)" fill="black" stroke="#E297AB" stroke-width="0.369429"/>
<circle r="2.40129" transform="matrix(0.866044 -0.499967 0.866044 0.499967 694.116 333.271)" stroke="black" stroke-width="0.369429" stroke-dasharray="0.37 0.37"/>
<circle r="2.40129" transform="matrix(0.866044 -0.499967 0.866044 0.499967 629.808 296.146)" stroke="black" stroke-width="0.369429" stroke-dasharray="0.37 0.37"/>
<circle r="2.40129" transform="matrix(0.866044 -0.499967 0.866044 0.499967 615.73 341.213)" stroke="black" stroke-width="0.369429" stroke-dasharray="0.37 0.37"/>
<circle r="2.40129" transform="matrix(0.866044 -0.499967 0.866044 0.499967 706.914 288.573)" stroke="black" stroke-width="0.369429" stroke-dasharray="0.37 0.37"/>
<path d="M735.634 384.202L680.394 378.687L670.841 346.797L716.586 320.388L771.826 325.903L781.38 357.793L735.634 384.202Z" stroke="black" stroke-width="0.369429"/>
<path d="M694.596 333.733L758.584 370.673" stroke="black" stroke-width="0.369429"/>
<path d="M711.09 360.966L694.17 333.671L741.45 343.439L758.37 370.734L711.09 360.966Z" stroke="black" stroke-width="0.369429"/>
<path d="M680.358 378.523L711.073 360.791" stroke="black" stroke-width="0.369429"/>
<path d="M741.147 343.429L771.542 325.883" stroke="black" stroke-width="0.369429"/>
<path d="M680.358 378.523L694.116 333.64L771.382 325.975L758.424 370.765L680.358 378.523Z" stroke="black" stroke-width="0.369429"/>
<circle r="2.03186" transform="matrix(0.866044 -0.499967 0.866044 0.499967 694.436 333.455)" fill="black" stroke="#E297AB" stroke-width="0.369429"/>
<circle r="2.03186" transform="matrix(0.866044 -0.499967 0.866044 0.499967 680.358 378.523)" fill="black" stroke="#E297AB" stroke-width="0.369429"/>
<circle r="2.40129" transform="matrix(0.866044 -0.499967 0.866044 0.499967 694.436 333.455)" stroke="black" stroke-width="0.369429" stroke-dasharray="0.37 0.37"/>
<circle r="2.40129" transform="matrix(0.866044 -0.499967 0.866044 0.499967 680.358 378.523)" stroke="black" stroke-width="0.369429" stroke-dasharray="0.37 0.37"/>
<path d="M762.189 294.252L706.949 288.737L697.396 256.847L743.141 230.438L798.381 235.953L807.935 267.843L762.189 294.252Z" stroke="black" stroke-width="0.369429"/>
<path d="M721.151 243.782L785.139 280.723" stroke="black" stroke-width="0.369429"/>
<path d="M737.645 271.016L720.725 243.721L768.005 253.489L784.925 280.784L737.645 271.016Z" stroke="black" stroke-width="0.369429"/>
<path d="M706.914 288.573L737.628 270.841" stroke="black" stroke-width="0.369429"/>
<path d="M706.914 288.573L720.671 243.69L797.937 236.025L784.979 280.815L706.914 288.573Z" stroke="black" stroke-width="0.369429"/>
<circle r="2.03186" transform="matrix(0.866044 -0.499967 0.866044 0.499967 720.991 243.505)" fill="black" stroke="#E297AB" stroke-width="0.369429"/>
<circle r="2.03186" transform="matrix(0.866044 -0.499967 0.866044 0.499967 706.914 288.573)" fill="black" stroke="#E297AB" stroke-width="0.369429"/>
<circle r="2.40129" transform="matrix(0.866044 -0.499967 0.866044 0.499967 720.991 243.505)" stroke="black" stroke-width="0.369429" stroke-dasharray="0.37 0.37"/>
<circle r="2.40129" transform="matrix(0.866044 -0.499967 0.866044 0.499967 706.914 288.573)" stroke="black" stroke-width="0.369429" stroke-dasharray="0.37 0.37"/>
<path d="M826.817 331.562L771.577 326.047L762.024 294.157L807.77 267.748L863.009 273.263L872.563 305.153L826.817 331.562Z" stroke="black" stroke-width="0.369429"/>
<path d="M771.542 325.883L785.299 281L862.565 273.335L849.608 318.125L771.542 325.883Z" stroke="black" stroke-width="0.369429"/>
<path d="M707.074 288.665L771.702 325.975L804.496 344.907" stroke="black" stroke-width="0.369429"/>
<path d="M706.754 288.48L673.96 269.548" stroke="black" stroke-width="0.369429"/>
<line y1="-0.184714" x2="445.901" y2="-0.184714" transform="matrix(0.866044 0.499967 -0.866044 0.499967 227.001 117.169)" stroke="black" stroke-width="0.369429"/>
<path d="M465.283 17.568L410.043 12.0527L400.49 -19.8372L446.235 -46.2462L501.475 -40.7309L511.029 -8.84102L465.283 17.568Z" stroke="black" stroke-width="0.369429"/>
<path d="M424.245 -32.9017L488.233 4.0388" stroke="black" stroke-width="0.369429"/>
<path d="M440.739 -5.66788L423.819 -32.9627L471.099 -23.195L488.019 4.09983L440.739 -5.66788Z" stroke="black" stroke-width="0.369429"/>
<path d="M410.008 11.8886L440.722 -5.84279" stroke="black" stroke-width="0.369429"/>
<path d="M410.008 11.8886L423.765 -32.994L501.031 -40.6592L488.073 4.13113L410.008 11.8886Z" stroke="black" stroke-width="0.369429"/>
<circle r="2.03186" transform="matrix(0.866044 -0.499967 0.866044 0.499967 410.008 11.8886)" fill="black" stroke="#E297AB" stroke-width="0.369429"/>
<circle r="2.03186" transform="matrix(0.866044 -0.499967 0.866044 0.499967 488.393 3.94644)" fill="black" stroke="#E297AB" stroke-width="0.369429"/>
<circle r="2.40129" transform="matrix(0.866044 -0.499967 0.866044 0.499967 488.393 3.94644)" stroke="black" stroke-width="0.369429" stroke-dasharray="0.37 0.37"/>
<circle r="2.40129" transform="matrix(0.866044 -0.499967 0.866044 0.499967 410.008 11.8886)" stroke="black" stroke-width="0.369429" stroke-dasharray="0.37 0.37"/>
<path d="M529.911 54.8779L474.672 49.3626L465.118 17.4727L510.864 -8.93633L566.103 -3.42101L575.657 28.4689L529.911 54.8779Z" stroke="black" stroke-width="0.369429"/>
<path d="M488.873 4.4082L552.862 41.3487" stroke="black" stroke-width="0.369429"/>
<path d="M505.367 31.642L488.448 4.34716L535.728 14.1149L552.647 41.4097L505.367 31.642Z" stroke="black" stroke-width="0.369429"/>
<path d="M474.636 49.1985L505.35 31.4671" stroke="black" stroke-width="0.369429"/>
<path d="M535.425 14.1051L565.819 -3.44165" stroke="black" stroke-width="0.369429"/>
<path d="M474.636 49.1985L488.393 4.31583L565.659 -3.34932L552.702 41.441L474.636 49.1985Z" stroke="black" stroke-width="0.369429"/>
<circle r="2.03186" transform="matrix(0.866044 -0.499967 0.866044 0.499967 488.713 4.13113)" fill="black" stroke="#E297AB" stroke-width="0.369429"/>
<circle r="2.03186" transform="matrix(0.866044 -0.499967 0.866044 0.499967 474.636 49.1985)" fill="black" stroke="#E297AB" stroke-width="0.369429"/>
<circle r="2.03186" transform="matrix(0.866044 -0.499967 0.866044 0.499967 553.021 41.2563)" fill="black" stroke="#E297AB" stroke-width="0.369429"/>
<circle r="2.40129" transform="matrix(0.866044 -0.499967 0.866044 0.499967 553.022 41.2563)" stroke="black" stroke-width="0.369429" stroke-dasharray="0.37 0.37"/>
<circle r="2.40129" transform="matrix(0.866044 -0.499967 0.866044 0.499967 488.713 4.13113)" stroke="black" stroke-width="0.369429" stroke-dasharray="0.37 0.37"/>
<circle r="2.40129" transform="matrix(0.866044 -0.499967 0.866044 0.499967 474.636 49.1985)" stroke="black" stroke-width="0.369429" stroke-dasharray="0.37 0.37"/>
<path d="M621.095 2.23772L565.855 -3.2776L556.301 -35.1675L602.047 -61.5765L657.287 -56.0612L666.84 -24.1713L621.095 2.23772Z" stroke="black" stroke-width="0.369429"/>
<path d="M565.819 -3.44166L579.577 -48.3243L656.843 -55.9895L643.885 -11.1992L565.819 -3.44166Z" stroke="black" stroke-width="0.369429"/>
<path d="M501.351 -40.6592L565.979 -3.3493L598.773 15.5827" stroke="black" stroke-width="0.369429"/>
<path d="M594.859 92.3725L539.62 86.8572L530.066 54.9673L575.812 28.5583L631.052 34.0736L640.605 65.9635L594.859 92.3725Z" stroke="black" stroke-width="0.369429"/>
<path d="M553.821 41.9028L617.81 78.8432" stroke="black" stroke-width="0.369429"/>
<path d="M570.315 69.1366L553.396 41.8418L600.676 51.6095L617.595 78.9043L570.315 69.1366Z" stroke="black" stroke-width="0.369429"/>
<path d="M539.584 86.6931L570.298 68.9617" stroke="black" stroke-width="0.369429"/>
<path d="M600.373 51.5996L630.767 34.0529" stroke="black" stroke-width="0.369429"/>
<path d="M539.584 86.6931L553.341 41.8104L630.607 34.1453L617.65 78.9356L539.584 86.6931Z" stroke="black" stroke-width="0.369429"/>
<circle r="2.03186" transform="matrix(0.866044 -0.499967 0.866044 0.499967 553.661 41.6257)" fill="black" stroke="#E297AB" stroke-width="0.369429"/>
<circle r="2.03186" transform="matrix(0.866044 -0.499967 0.866044 0.499967 630.767 34.0529)" fill="black" stroke="#E297AB" stroke-width="0.369429"/>
<circle r="2.03186" transform="matrix(0.866044 -0.499967 0.866044 0.499967 539.584 86.6931)" fill="black" stroke="#E297AB" stroke-width="0.369429"/>
<circle r="2.03186" transform="matrix(0.866044 -0.499967 0.866044 0.499967 617.97 78.7509)" fill="black" stroke="#E297AB" stroke-width="0.369429"/>
<circle r="2.40129" transform="matrix(0.866044 -0.499967 0.866044 0.499967 617.97 78.7509)" stroke="black" stroke-width="0.369429" stroke-dasharray="0.37 0.37"/>
<circle r="2.40129" transform="matrix(0.866044 -0.499967 0.866044 0.499967 553.661 41.6257)" stroke="black" stroke-width="0.369429" stroke-dasharray="0.37 0.37"/>
<circle r="2.40129" transform="matrix(0.866044 -0.499967 0.866044 0.499967 539.584 86.6931)" stroke="black" stroke-width="0.369429" stroke-dasharray="0.37 0.37"/>
<circle r="2.40129" transform="matrix(0.866044 -0.499967 0.866044 0.499967 630.767 34.0529)" stroke="black" stroke-width="0.369429" stroke-dasharray="0.37 0.37"/>
<path d="M659.488 129.682L604.248 124.167L594.694 92.2772L640.44 65.8681L695.68 71.3835L705.233 103.273L659.488 129.682Z" stroke="black" stroke-width="0.369429"/>
<path d="M618.45 79.2126L682.438 116.153" stroke="black" stroke-width="0.369429"/>
<path d="M634.944 106.446L618.024 79.1516L665.304 88.9194L682.224 116.214L634.944 106.446Z" stroke="black" stroke-width="0.369429"/>
<path d="M604.212 124.003L634.927 106.272" stroke="black" stroke-width="0.369429"/>
<path d="M665.001 88.9095L695.396 71.3628" stroke="black" stroke-width="0.369429"/>
<path d="M604.212 124.003L617.97 79.1203L695.236 71.4552L682.278 116.245L604.212 124.003Z" stroke="black" stroke-width="0.369429"/>
<circle r="2.03186" transform="matrix(0.866044 -0.499967 0.866044 0.499967 618.29 78.9356)" fill="black" stroke="#E297AB" stroke-width="0.369429"/>
<circle r="2.03186" transform="matrix(0.866044 -0.499967 0.866044 0.499967 695.396 71.3628)" fill="black" stroke="#E297AB" stroke-width="0.369429"/>
<circle r="2.03186" transform="matrix(0.866044 -0.499967 0.866044 0.499967 604.212 124.003)" fill="black" stroke="#E297AB" stroke-width="0.369429"/>
<circle r="2.03186" transform="matrix(0.866044 -0.499967 0.866044 0.499967 682.598 116.061)" fill="black" stroke="#E297AB" stroke-width="0.369429"/>
<circle r="2.40129" transform="matrix(0.866044 -0.499967 0.866044 0.499967 682.598 116.061)" stroke="black" stroke-width="0.369429" stroke-dasharray="0.37 0.37"/>
<circle r="2.40129" transform="matrix(0.866044 -0.499967 0.866044 0.499967 618.29 78.9356)" stroke="black" stroke-width="0.369429" stroke-dasharray="0.37 0.37"/>
<circle r="2.40129" transform="matrix(0.866044 -0.499967 0.866044 0.499967 604.212 124.003)" stroke="black" stroke-width="0.369429" stroke-dasharray="0.37 0.37"/>
<circle r="2.40129" transform="matrix(0.866044 -0.499967 0.866044 0.499967 695.396 71.3628)" stroke="black" stroke-width="0.369429" stroke-dasharray="0.37 0.37"/>
<path d="M686.043 39.7323L630.803 34.217L621.25 2.32713L666.995 -24.0819L722.235 -18.5666L731.789 13.3233L686.043 39.7323Z" stroke="black" stroke-width="0.369429"/>
<path d="M645.005 -10.7374L708.993 26.2031" stroke="black" stroke-width="0.369429"/>
<path d="M661.499 16.4964L644.579 -10.7984L691.859 -1.03072L708.779 26.2641L661.499 16.4964Z" stroke="black" stroke-width="0.369429"/>
<path d="M630.767 34.0529L661.482 16.3215" stroke="black" stroke-width="0.369429"/>
<path d="M630.767 34.0529L644.525 -10.8297L721.791 -18.4949L708.833 26.2954L630.767 34.0529Z" stroke="black" stroke-width="0.369429"/>
<circle r="2.03186" transform="matrix(0.866044 -0.499967 0.866044 0.499967 630.767 34.0529)" fill="black" stroke="#E297AB" stroke-width="0.369429"/>
<circle r="2.03186" transform="matrix(0.866044 -0.499967 0.866044 0.499967 709.153 26.1107)" fill="black" stroke="#E297AB" stroke-width="0.369429"/>
<circle r="2.40129" transform="matrix(0.866044 -0.499967 0.866044 0.499967 709.153 26.1107)" stroke="black" stroke-width="0.369429" stroke-dasharray="0.37 0.37"/>
<circle r="2.40129" transform="matrix(0.866044 -0.499967 0.866044 0.499967 630.767 34.0529)" stroke="black" stroke-width="0.369429" stroke-dasharray="0.37 0.37"/>
<path d="M750.671 77.0422L695.431 71.5269L685.878 39.637L731.623 13.228L786.863 18.7433L796.417 50.6332L750.671 77.0422Z" stroke="black" stroke-width="0.369429"/>
<path d="M709.633 26.5725L773.621 63.513" stroke="black" stroke-width="0.369429"/>
<path d="M726.127 53.8063L709.207 26.5115L756.487 36.2792L773.407 63.574L726.127 53.8063Z" stroke="black" stroke-width="0.369429"/>
<path d="M695.396 71.3628L726.11 53.6314" stroke="black" stroke-width="0.369429"/>
<path d="M695.396 71.3628L709.153 26.4801L786.419 18.815L773.461 63.6053L695.396 71.3628Z" stroke="black" stroke-width="0.369429"/>
<circle r="2.03186" transform="matrix(0.866044 -0.499967 0.866044 0.499967 709.473 26.2954)" fill="black" stroke="#E297AB" stroke-width="0.369429"/>
<circle r="2.03186" transform="matrix(0.866044 -0.499967 0.866044 0.499967 695.396 71.3628)" fill="black" stroke="#E297AB" stroke-width="0.369429"/>
<circle r="2.40129" transform="matrix(0.866044 -0.499967 0.866044 0.499967 709.473 26.2954)" stroke="black" stroke-width="0.369429" stroke-dasharray="0.37 0.37"/>
<circle r="2.40129" transform="matrix(0.866044 -0.499967 0.866044 0.499967 695.396 71.3628)" stroke="black" stroke-width="0.369429" stroke-dasharray="0.37 0.37"/>
<path d="M630.927 34.1453L695.556 71.4551L728.35 90.3871" stroke="black" stroke-width="0.369429"/>
<path d="M630.607 33.9606L597.813 15.0286" stroke="black" stroke-width="0.369429"/>
<path d="M724.116 166.992L668.876 161.477L659.323 129.587L705.068 103.178L760.308 108.693L769.862 140.583L724.116 166.992Z" stroke="black" stroke-width="0.369429"/>
<path d="M683.078 116.523L747.066 153.463" stroke="black" stroke-width="0.369429"/>
<path d="M699.572 143.756L682.652 116.462L729.932 126.229L746.852 153.524L699.572 143.756Z" stroke="black" stroke-width="0.369429"/>
<path d="M668.84 161.313L699.555 143.581" stroke="black" stroke-width="0.369429"/>
<path d="M729.629 126.219L760.024 108.673" stroke="black" stroke-width="0.369429"/>
<path d="M668.84 161.313L682.598 116.43L759.864 108.765L746.906 153.555L668.84 161.313Z" stroke="black" stroke-width="0.369429"/>
<circle r="2.03186" transform="matrix(0.866044 -0.499967 0.866044 0.499967 682.918 116.245)" fill="black" stroke="#E297AB" stroke-width="0.369429"/>
<circle r="2.03186" transform="matrix(0.866044 -0.499967 0.866044 0.499967 668.84 161.313)" fill="black" stroke="#E297AB" stroke-width="0.369429"/>
<circle r="2.03186" transform="matrix(0.866044 -0.499967 0.866044 0.499967 747.226 153.371)" fill="black" stroke="#E297AB" stroke-width="0.369429"/>
<circle r="2.40129" transform="matrix(0.866044 -0.499967 0.866044 0.499967 747.226 153.371)" stroke="black" stroke-width="0.369429" stroke-dasharray="0.37 0.37"/>
<circle r="2.40129" transform="matrix(0.866044 -0.499967 0.866044 0.499967 682.918 116.245)" stroke="black" stroke-width="0.369429" stroke-dasharray="0.37 0.37"/>
<circle r="2.40129" transform="matrix(0.866044 -0.499967 0.866044 0.499967 668.84 161.313)" stroke="black" stroke-width="0.369429" stroke-dasharray="0.37 0.37"/>
<path d="M788.744 204.302L733.504 198.787L723.951 166.897L769.697 140.488L824.936 146.003L834.49 177.893L788.744 204.302Z" stroke="black" stroke-width="0.369429"/>
<path d="M764.2 181.066L747.28 153.771L794.561 163.539L811.48 190.834L764.2 181.066Z" stroke="black" stroke-width="0.369429"/>
<path d="M733.469 198.623L764.183 180.891" stroke="black" stroke-width="0.369429"/>
<path d="M733.469 198.623L747.226 153.74L824.492 146.075L811.534 190.865L733.469 198.623Z" stroke="black" stroke-width="0.369429"/>
<circle r="2.03186" transform="matrix(0.866044 -0.499967 0.866044 0.499967 733.469 198.623)" fill="black" stroke="#E297AB" stroke-width="0.369429"/>
<circle r="2.40129" transform="matrix(0.866044 -0.499967 0.866044 0.499967 747.546 153.555)" stroke="black" stroke-width="0.369429" stroke-dasharray="0.37 0.37"/>
<circle r="2.40129" transform="matrix(0.866044 -0.499967 0.866044 0.499967 733.469 198.623)" stroke="black" stroke-width="0.369429" stroke-dasharray="0.37 0.37"/>
<path d="M815.299 114.352L760.06 108.837L750.506 76.9469L796.252 50.5379L851.491 56.0532L861.045 87.943L815.299 114.352Z" stroke="black" stroke-width="0.369429"/>
<path d="M760.024 108.673L773.781 63.79L851.047 56.1249L838.09 100.915L760.024 108.673Z" stroke="black" stroke-width="0.369429"/>
<path d="M759.864 108.58L727.07 89.6483" stroke="black" stroke-width="0.369429"/>
<line y1="-0.184714" x2="445.901" y2="-0.184714" transform="matrix(0.866044 0.499967 -0.866044 0.499967 409.368 11.8886)" stroke="black" stroke-width="0.369429"/>
<path d="M-16.8692 370.534L-72.1088 365.019L-81.6625 333.129L-35.9167 306.72L19.323 312.235L28.8766 344.125L-16.8692 370.534Z" stroke="black" stroke-width="0.369429"/>
<path d="M-41.4132 347.298L-58.3329 320.003L-11.0527 329.771L5.86692 357.066L-41.4132 347.298Z" stroke="black" stroke-width="0.369429"/>
<path d="M-11.3557 329.761L19.0388 312.215" stroke="black" stroke-width="0.369429"/>
<path d="M-72.1446 364.855L-58.3871 319.972L18.8788 312.307L5.92118 357.097L-72.1446 364.855Z" stroke="black" stroke-width="0.369429"/>
<circle r="2.03186" transform="matrix(0.866044 -0.499967 0.866044 0.499967 19.0388 312.215)" fill="black" stroke="#E297AB" stroke-width="0.369429"/>
<circle r="2.40129" transform="matrix(0.866044 -0.499967 0.866044 0.499967 19.0388 312.215)" stroke="black" stroke-width="0.369429" stroke-dasharray="0.37 0.37"/>
<path d="M9.686 280.584L-45.5537 275.069L-55.1073 243.179L-9.36157 216.77L45.8781 222.285L55.4318 254.175L9.686 280.584Z" stroke="black" stroke-width="0.369429"/>
<path d="M-31.352 230.114L32.6363 267.055" stroke="black" stroke-width="0.369429"/>
<path d="M-14.8581 257.348L-31.7777 230.053L15.5024 239.821L32.4221 267.116L-14.8581 257.348Z" stroke="black" stroke-width="0.369429"/>
<path d="M15.1995 239.811L45.5939 222.265" stroke="black" stroke-width="0.369429"/>
<path d="M-45.5894 274.905L-31.832 230.022L45.434 222.357L32.4763 267.147L-45.5894 274.905Z" stroke="black" stroke-width="0.369429"/>
<circle r="2.03186" transform="matrix(0.866044 -0.499967 0.866044 0.499967 45.594 222.265)" fill="black" stroke="#E297AB" stroke-width="0.369429"/>
<circle r="2.03186" transform="matrix(0.866044 -0.499967 0.866044 0.499967 32.7963 266.963)" fill="black" stroke="#E297AB" stroke-width="0.369429"/>
<circle r="2.40129" transform="matrix(0.866044 -0.499967 0.866044 0.499967 32.7963 266.963)" stroke="black" stroke-width="0.369429" stroke-dasharray="0.37 0.37"/>
<circle r="2.40129" transform="matrix(0.866044 -0.499967 0.866044 0.499967 45.594 222.265)" stroke="black" stroke-width="0.369429" stroke-dasharray="0.37 0.37"/>
<path d="M74.3142 317.894L19.0746 312.379L9.52093 280.489L55.2667 254.08L110.506 259.595L120.06 291.485L74.3142 317.894Z" stroke="black" stroke-width="0.369429"/>
<path d="M33.2762 267.424L97.2646 304.365" stroke="black" stroke-width="0.369429"/>
<path d="M49.7702 294.658L32.8505 267.363L80.1307 277.131L97.0503 304.426L49.7702 294.658Z" stroke="black" stroke-width="0.369429"/>
<path d="M19.0388 312.215L49.7532 294.483" stroke="black" stroke-width="0.369429"/>
<path d="M79.8277 277.121L110.222 259.574" stroke="black" stroke-width="0.369429"/>
<path d="M19.0388 312.215L32.7963 267.332L110.062 259.667L97.1046 304.457L19.0388 312.215Z" stroke="black" stroke-width="0.369429"/>
<circle r="2.03186" transform="matrix(0.866044 -0.499967 0.866044 0.499967 33.1162 267.147)" fill="black" stroke="#E297AB" stroke-width="0.369429"/>
<circle r="2.03186" transform="matrix(0.866044 -0.499967 0.866044 0.499967 110.222 259.574)" fill="black" stroke="#E297AB" stroke-width="0.369429"/>
<circle r="2.03186" transform="matrix(0.866044 -0.499967 0.866044 0.499967 19.0388 312.215)" fill="black" stroke="#E297AB" stroke-width="0.369429"/>
<circle r="2.03186" transform="matrix(0.866044 -0.499967 0.866044 0.499967 97.4245 304.272)" fill="black" stroke="#E297AB" stroke-width="0.369429"/>
<circle r="2.40129" transform="matrix(0.866044 -0.499967 0.866044 0.499967 97.4245 304.272)" stroke="black" stroke-width="0.369429" stroke-dasharray="0.37 0.37"/>
<circle r="2.40129" transform="matrix(0.866044 -0.499967 0.866044 0.499967 33.1162 267.147)" stroke="black" stroke-width="0.369429" stroke-dasharray="0.37 0.37"/>
<circle r="2.40129" transform="matrix(0.866044 -0.499967 0.866044 0.499967 19.0388 312.215)" stroke="black" stroke-width="0.369429" stroke-dasharray="0.37 0.37"/>
<circle r="2.40129" transform="matrix(0.866044 -0.499967 0.866044 0.499967 110.222 259.574)" stroke="black" stroke-width="0.369429" stroke-dasharray="0.37 0.37"/>
<path d="M-45.4295 274.997L19.1987 312.307L51.9928 331.239" stroke="black" stroke-width="0.369429"/>
<path d="M48.079 408.029L-7.16068 402.513L-16.7143 370.624L29.0314 344.215L84.2711 349.73L93.8248 381.62L48.079 408.029Z" stroke="black" stroke-width="0.369429"/>
<path d="M7.04097 357.559L71.0293 394.5" stroke="black" stroke-width="0.369429"/>
<path d="M23.535 384.793L6.61531 357.498L53.8955 367.266L70.8151 394.561L23.535 384.793Z" stroke="black" stroke-width="0.369429"/>
<path d="M-7.19643 402.349L23.518 384.618" stroke="black" stroke-width="0.369429"/>
<path d="M53.5925 367.256L83.987 349.709" stroke="black" stroke-width="0.369429"/>
<path d="M-7.19644 402.349L6.56106 357.467L83.827 349.802L70.8694 394.592L-7.19644 402.349Z" stroke="black" stroke-width="0.369429"/>
<circle r="2.03186" transform="matrix(0.866044 -0.499967 0.866044 0.499967 83.987 349.709)" fill="black" stroke="#E297AB" stroke-width="0.369429"/>
<circle r="2.03186" transform="matrix(0.866044 -0.499967 0.866044 0.499967 71.1893 394.407)" fill="black" stroke="#E297AB" stroke-width="0.369429"/>
<circle r="2.40129" transform="matrix(0.866044 -0.499967 0.866044 0.499967 71.1893 394.407)" stroke="black" stroke-width="0.369429" stroke-dasharray="0.37 0.37"/>
<circle r="2.40129" transform="matrix(0.866044 -0.499967 0.866044 0.499967 83.987 349.709)" stroke="black" stroke-width="0.369429" stroke-dasharray="0.37 0.37"/>
<path d="M112.707 445.339L57.4676 439.823L47.9139 407.933L93.6597 381.524L148.899 387.04L158.453 418.93L112.707 445.339Z" stroke="black" stroke-width="0.369429"/>
<path d="M71.6692 394.869L135.658 431.809" stroke="black" stroke-width="0.369429"/>
<path d="M88.1632 422.103L71.2436 394.808L118.524 404.576L135.443 431.87L88.1632 422.103Z" stroke="black" stroke-width="0.369429"/>
<path d="M57.4318 439.659L88.1462 421.928" stroke="black" stroke-width="0.369429"/>
<path d="M118.221 404.566L148.615 387.019" stroke="black" stroke-width="0.369429"/>
<path d="M57.4318 439.659L71.1893 394.777L148.455 387.111L135.498 431.902L57.4318 439.659Z" stroke="black" stroke-width="0.369429"/>
<circle r="2.03186" transform="matrix(0.866044 -0.499967 0.866044 0.499967 71.5092 394.592)" fill="black" stroke="#E297AB" stroke-width="0.369429"/>
<circle r="2.03186" transform="matrix(0.866044 -0.499967 0.866044 0.499967 148.615 387.019)" fill="black" stroke="#E297AB" stroke-width="0.369429"/>
<circle r="2.40129" transform="matrix(0.866044 -0.499967 0.866044 0.499967 71.5092 394.592)" stroke="black" stroke-width="0.369429" stroke-dasharray="0.37 0.37"/>
<circle r="2.40129" transform="matrix(0.866044 -0.499967 0.866044 0.499967 148.615 387.019)" stroke="black" stroke-width="0.369429" stroke-dasharray="0.37 0.37"/>
<path d="M139.262 355.389L84.0227 349.873L74.4691 317.983L120.215 291.574L175.455 297.09L185.008 328.98L139.262 355.389Z" stroke="black" stroke-width="0.369429"/>
<path d="M98.2244 304.919L162.213 341.859" stroke="black" stroke-width="0.369429"/>
<path d="M114.718 332.153L97.7987 304.858L145.079 314.626L161.999 341.92L114.718 332.153Z" stroke="black" stroke-width="0.369429"/>
<path d="M83.987 349.709L114.701 331.978" stroke="black" stroke-width="0.369429"/>
<path d="M144.776 314.616L175.17 297.069" stroke="black" stroke-width="0.369429"/>
<path d="M83.987 349.709L97.7445 304.827L175.01 297.161L162.053 341.952L83.987 349.709Z" stroke="black" stroke-width="0.369429"/>
<circle r="2.03186" transform="matrix(0.866044 -0.499967 0.866044 0.499967 98.0644 304.642)" fill="black" stroke="#E297AB" stroke-width="0.369429"/>
<circle r="2.03186" transform="matrix(0.866044 -0.499967 0.866044 0.499967 175.17 297.069)" fill="black" stroke="#E297AB" stroke-width="0.369429"/>
<circle r="2.03186" transform="matrix(0.866044 -0.499967 0.866044 0.499967 83.987 349.709)" fill="black" stroke="#E297AB" stroke-width="0.369429"/>
<circle r="2.03186" transform="matrix(0.866044 -0.499967 0.866044 0.499967 162.373 341.767)" fill="black" stroke="#E297AB" stroke-width="0.369429"/>
<circle r="2.40129" transform="matrix(0.866044 -0.499967 0.866044 0.499967 162.373 341.767)" stroke="black" stroke-width="0.369429" stroke-dasharray="0.37 0.37"/>
<circle r="2.40129" transform="matrix(0.866044 -0.499967 0.866044 0.499967 98.0644 304.642)" stroke="black" stroke-width="0.369429" stroke-dasharray="0.37 0.37"/>
<circle r="2.40129" transform="matrix(0.866044 -0.499967 0.866044 0.499967 83.987 349.709)" stroke="black" stroke-width="0.369429" stroke-dasharray="0.37 0.37"/>
<circle r="2.40129" transform="matrix(0.866044 -0.499967 0.866044 0.499967 175.17 297.069)" stroke="black" stroke-width="0.369429" stroke-dasharray="0.37 0.37"/>
<path d="M203.891 392.698L148.651 387.183L139.097 355.293L184.843 328.884L240.083 334.4L249.636 366.289L203.891 392.698Z" stroke="black" stroke-width="0.369429"/>
<path d="M162.853 342.229L226.841 379.169" stroke="black" stroke-width="0.369429"/>
<path d="M179.347 369.463L162.427 342.168L209.707 351.935L226.627 379.23L179.347 369.463Z" stroke="black" stroke-width="0.369429"/>
<path d="M148.615 387.019L179.33 369.288" stroke="black" stroke-width="0.369429"/>
<path d="M209.404 351.926L239.799 334.379" stroke="black" stroke-width="0.369429"/>
<path d="M148.615 387.019L162.373 342.136L239.639 334.471L226.681 379.262L148.615 387.019Z" stroke="black" stroke-width="0.369429"/>
<circle r="2.03186" transform="matrix(0.866044 -0.499967 0.866044 0.499967 162.693 341.952)" fill="black" stroke="#E297AB" stroke-width="0.369429"/>
<circle r="2.03186" transform="matrix(0.866044 -0.499967 0.866044 0.499967 239.799 334.379)" fill="black" stroke="#E297AB" stroke-width="0.369429"/>
<circle r="2.03186" transform="matrix(0.866044 -0.499967 0.866044 0.499967 148.615 387.019)" fill="black" stroke="#E297AB" stroke-width="0.369429"/>
<circle r="2.03186" transform="matrix(0.866044 -0.499967 0.866044 0.499967 227.001 379.077)" fill="black" stroke="#E297AB" stroke-width="0.369429"/>
<circle r="2.40129" transform="matrix(0.866044 -0.499967 0.866044 0.499967 227.001 379.077)" stroke="black" stroke-width="0.369429" stroke-dasharray="0.37 0.37"/>
<circle r="2.40129" transform="matrix(0.866044 -0.499967 0.866044 0.499967 162.693 341.952)" stroke="black" stroke-width="0.369429" stroke-dasharray="0.37 0.37"/>
<circle r="2.40129" transform="matrix(0.866044 -0.499967 0.866044 0.499967 148.615 387.019)" stroke="black" stroke-width="0.369429" stroke-dasharray="0.37 0.37"/>
<circle r="2.40129" transform="matrix(0.866044 -0.499967 0.866044 0.499967 239.799 334.379)" stroke="black" stroke-width="0.369429" stroke-dasharray="0.37 0.37"/>
<path d="M84.1469 349.802L148.775 387.111L181.569 406.043" stroke="black" stroke-width="0.369429"/>
<path d="M83.827 349.617L51.033 330.685" stroke="black" stroke-width="0.369429"/>
<path d="M177.335 482.649L122.096 477.133L112.542 445.243L158.288 418.834L213.528 424.35L223.081 456.24L177.335 482.649Z" stroke="black" stroke-width="0.369429"/>
<path d="M122.06 476.969L135.818 432.087L213.083 424.421L200.126 469.212L122.06 476.969Z" stroke="black" stroke-width="0.369429"/>
<circle r="2.03186" transform="matrix(0.866044 -0.499967 0.866044 0.499967 213.243 424.329)" fill="black" stroke="#E297AB" stroke-width="0.369429"/>
<circle r="2.40129" transform="matrix(0.866044 -0.499967 0.866044 0.499967 213.243 424.329)" stroke="black" stroke-width="0.369429" stroke-dasharray="0.37 0.37"/>
<path d="M268.519 430.008L213.279 424.493L203.726 392.603L249.471 366.194L304.711 371.709L314.265 403.599L268.519 430.008Z" stroke="black" stroke-width="0.369429"/>
<path d="M227.481 379.539L291.469 416.479" stroke="black" stroke-width="0.369429"/>
<path d="M243.975 406.772L227.055 379.478L274.335 389.245L291.255 416.54L243.975 406.772Z" stroke="black" stroke-width="0.369429"/>
<path d="M213.243 424.329L243.958 406.598" stroke="black" stroke-width="0.369429"/>
<path d="M274.032 389.236L304.427 371.689" stroke="black" stroke-width="0.369429"/>
<path d="M213.243 424.329L227.001 379.446L304.267 371.781L291.309 416.572L213.243 424.329Z" stroke="black" stroke-width="0.369429"/>
<circle r="2.03186" transform="matrix(0.866044 -0.499967 0.866044 0.499967 227.321 379.262)" fill="black" stroke="#E297AB" stroke-width="0.369429"/>
<circle r="2.03186" transform="matrix(0.866044 -0.499967 0.866044 0.499967 304.427 371.689)" fill="black" stroke="#E297AB" stroke-width="0.369429"/>
<circle r="2.03186" transform="matrix(0.866044 -0.499967 0.866044 0.499967 213.243 424.329)" fill="black" stroke="#E297AB" stroke-width="0.369429"/>
<circle r="2.03186" transform="matrix(0.866044 -0.499967 0.866044 0.499967 291.629 416.387)" fill="black" stroke="#E297AB" stroke-width="0.369429"/>
<circle r="2.40129" transform="matrix(0.866044 -0.499967 0.866044 0.499967 291.629 416.387)" stroke="black" stroke-width="0.369429" stroke-dasharray="0.37 0.37"/>
<circle r="2.40129" transform="matrix(0.866044 -0.499967 0.866044 0.499967 227.321 379.262)" stroke="black" stroke-width="0.369429" stroke-dasharray="0.37 0.37"/>
<circle r="2.40129" transform="matrix(0.866044 -0.499967 0.866044 0.499967 213.243 424.329)" stroke="black" stroke-width="0.369429" stroke-dasharray="0.37 0.37"/>
<circle r="2.40129" transform="matrix(0.866044 -0.499967 0.866044 0.499967 304.427 371.689)" stroke="black" stroke-width="0.369429" stroke-dasharray="0.37 0.37"/>
<path d="M333.147 467.318L277.907 461.803L268.354 429.913L314.1 403.504L369.339 409.019L378.893 440.909L333.147 467.318Z" stroke="black" stroke-width="0.369429"/>
<path d="M292.109 416.849L356.097 453.789" stroke="black" stroke-width="0.369429"/>
<path d="M308.603 444.082L291.683 416.788L338.964 426.555L355.883 453.85L308.603 444.082Z" stroke="black" stroke-width="0.369429"/>
<path d="M338.661 426.545L369.055 408.999" stroke="black" stroke-width="0.369429"/>
<path d="M277.872 461.639L291.629 416.756L368.895 409.091L355.937 453.881L277.872 461.639Z" stroke="black" stroke-width="0.369429"/>
<circle r="2.03186" transform="matrix(0.866044 -0.499967 0.866044 0.499967 291.949 416.572)" fill="black" stroke="#E297AB" stroke-width="0.369429"/>
<circle r="2.03186" transform="matrix(0.866044 -0.499967 0.866044 0.499967 369.055 408.999)" fill="black" stroke="#E297AB" stroke-width="0.369429"/>
<circle r="2.40129" transform="matrix(0.866044 -0.499967 0.866044 0.499967 291.949 416.572)" stroke="black" stroke-width="0.369429" stroke-dasharray="0.37 0.37"/>
<circle r="2.40129" transform="matrix(0.866044 -0.499967 0.866044 0.499967 369.055 408.999)" stroke="black" stroke-width="0.369429" stroke-dasharray="0.37 0.37"/>
<path d="M213.083 424.237L180.289 405.305" stroke="black" stroke-width="0.369429"/>
<line y1="-0.184714" x2="445.901" y2="-0.184714" transform="matrix(0.866044 0.499967 -0.866044 0.499967 -137.413 327.545)" stroke="black" stroke-width="0.369429"/>
</g>
</g>
<defs>
<filter id="filter0_d_201_2719" x="0.502588" y="0" width="754.427" height="525.732" filterUnits="userSpaceOnUse" color-interpolation-filters="sRGB">
<feFlood flood-opacity="0" result="BackgroundImageFix"/>
<feColorMatrix in="SourceAlpha" type="matrix" values="0 0 0 0 0 0 0 0 0 0 0 0 0 0 0 0 0 0 127 0" result="hardAlpha"/>
<feOffset dy="91.9793"/>
<feGaussianBlur stdDeviation="5.74871"/>
<feColorMatrix type="matrix" values="0 0 0 0 0 0 0 0 0 0 0 0 0 0 0 0 0 0 0.25 0"/>
<feBlend mode="normal" in2="BackgroundImageFix" result="effect1_dropShadow_201_2719"/>
<feBlend mode="normal" in="SourceGraphic" in2="effect1_dropShadow_201_2719" result="shape"/>
</filter>
<clipPath id="clip0_201_2719">
<rect width="482.609" height="361.957" rx="7.38858" transform="matrix(0.866044 -0.499967 0.866044 0.499967 12 241.289)" fill="white"/>
</clipPath>
</defs>
</svg>
