<svg width="778" height="515" viewBox="0 0 778 515" fill="none" xmlns="http://www.w3.org/2000/svg">
<g filter="url(#filter0_d_201_2655)">
<g clip-path="url(#clip0_201_2655)">
<rect width="482.609" height="361.957" rx="7.38858" transform="matrix(0.866044 -0.499967 0.866044 0.499967 23 241.289)" fill="white"/>
<rect width="29.5543" height="29.5543" transform="matrix(0.866044 -0.499967 0.866044 0.499967 176.572 152.632)" fill="#339966"/>
<rect width="29.5543" height="29.5543" transform="matrix(0.866044 -0.499967 0.866044 0.499967 227.763 182.184)" fill="#339966"/>
<rect width="29.5543" height="29.5543" transform="matrix(0.866044 -0.499967 0.866044 0.499967 278.953 152.632)" fill="#339966"/>
<rect width="29.5543" height="29.5543" transform="matrix(0.866044 -0.499967 0.866044 0.499967 227.763 152.632)" fill="#339966"/>
<rect width="29.5543" height="29.5543" transform="matrix(0.866044 -0.499967 0.866044 0.499967 227.763 123.079)" fill="#339966"/>
<rect width="29.5543" height="29.5543" transform="matrix(0.866044 -0.499967 0.866044 0.499967 202.167 137.856)" fill="black"/>
<rect width="29.5543" height="29.5543" transform="matrix(0.866044 -0.499967 0.866044 0.499967 202.167 167.408)" fill="black"/>
<rect width="29.5543" height="29.5543" transform="matrix(0.866044 -0.499967 0.866044 0.499967 253.358 137.856)" fill="black"/>
<rect width="29.5543" height="29.5543" transform="matrix(0.866044 -0.499967 0.866044 0.499967 253.358 167.408)" fill="black"/>
<rect width="29.5543" height="29.5543" transform="matrix(0.866044 -0.499967 0.866044 0.499967 278.953 93.527)" fill="#339966"/>
<rect width="29.5543" height="29.5543" transform="matrix(0.866044 -0.499967 0.866044 0.499967 330.144 123.079)" fill="#339966"/>
<rect width="29.5543" height="29.5543" transform="matrix(0.866044 -0.499967 0.866044 0.499967 355.74 108.303)" fill="black"/>
<rect width="29.5543" height="29.5543" transform="matrix(0.866044 -0.499967 0.866044 0.499967 278.953 123.079)" fill="#339966"/>
<rect width="29.5543" height="29.5543" transform="matrix(0.866044 -0.499967 0.866044 0.499967 330.144 93.527)" fill="#339966"/>
<rect width="29.5543" height="29.5543" transform="matrix(0.866044 -0.499967 0.866044 0.499967 253.358 108.303)" fill="black"/>
<rect width="29.5543" height="29.5543" transform="matrix(0.866044 -0.499967 0.866044 0.499967 304.549 108.303)" fill="black"/>
<rect width="29.5543" height="29.5543" transform="matrix(0.866044 -0.499967 0.866044 0.499967 304.549 78.7508)" fill="black"/>
<rect width="29.5543" height="29.5543" transform="matrix(0.866044 -0.499967 0.866044 0.499967 304.549 137.856)" fill="black"/>
<rect width="29.5543" height="29.5543" transform="matrix(0.866044 -0.499967 0.866044 0.499967 330.144 63.9747)" fill="#339966"/>
<rect width="29.5543" height="29.5543" transform="matrix(0.866044 -0.499967 0.866044 0.499967 381.335 93.5271)" fill="#339966"/>
<rect width="29.5543" height="29.5543" transform="matrix(0.866044 -0.499967 0.866044 0.499967 432.526 63.9747)" fill="#339966"/>
<rect width="29.5543" height="29.5543" transform="matrix(0.866044 -0.499967 0.866044 0.499967 381.335 63.9747)" fill="#339966"/>
<rect width="29.5543" height="29.5543" transform="matrix(0.866044 -0.499967 0.866044 0.499967 381.335 34.4223)" fill="#339966"/>
<rect width="29.5543" height="29.5543" transform="matrix(0.866044 -0.499967 0.866044 0.499967 355.74 49.1985)" fill="black"/>
<rect width="29.5543" height="29.5543" transform="matrix(0.866044 -0.499967 0.866044 0.499967 355.739 78.7509)" fill="black"/>
<rect width="29.5543" height="29.5543" transform="matrix(0.866044 -0.499967 0.866044 0.499967 406.93 49.1985)" fill="black"/>
<rect width="29.5543" height="29.5543" transform="matrix(0.866044 -0.499967 0.866044 0.499967 406.93 78.7509)" fill="black"/>
<rect width="29.5543" height="29.5543" transform="matrix(0.866044 -0.499967 0.866044 0.499967 432.526 4.86991)" fill="#339966"/>
<rect width="29.5543" height="29.5543" transform="matrix(0.866044 -0.499967 0.866044 0.499967 483.716 34.4223)" fill="#339966"/>
<rect width="29.5543" height="29.5543" transform="matrix(0.866044 -0.499967 0.866044 0.499967 509.312 19.6461)" fill="black"/>
<rect width="29.5543" height="29.5543" transform="matrix(0.866044 -0.499967 0.866044 0.499967 432.526 34.4223)" fill="#339966"/>
<rect width="29.5543" height="29.5543" transform="matrix(0.866044 -0.499967 0.866044 0.499967 483.716 4.86991)" fill="#339966"/>
<rect width="29.5543" height="29.5543" transform="matrix(0.866044 -0.499967 0.866044 0.499967 406.93 19.6461)" fill="black"/>
<rect width="29.5543" height="29.5543" transform="matrix(0.866044 -0.499967 0.866044 0.499967 458.121 19.6461)" fill="black"/>
<rect width="29.5543" height="29.5543" transform="matrix(0.866044 -0.499967 0.866044 0.499967 458.121 -9.90628)" fill="black"/>
<rect width="29.5543" height="29.5543" transform="matrix(0.866044 -0.499967 0.866044 0.499967 458.121 49.1985)" fill="black"/>
<rect width="29.5543" height="29.5543" transform="matrix(0.866044 -0.499967 0.866044 0.499967 534.907 4.86992)" fill="#339966"/>
<rect width="29.5543" height="29.5543" transform="matrix(0.866044 -0.499967 0.866044 0.499967 509.312 -9.90627)" fill="black"/>
<rect width="29.5543" height="29.5543" transform="matrix(0.866044 -0.499967 0.866044 0.499967 560.502 -9.90628)" fill="black"/>
<rect width="29.5543" height="29.5543" transform="matrix(-0.866044 0.499967 0.866044 0.499967 253.358 196.96)" fill="#339966"/>
<rect width="29.5543" height="29.5543" transform="matrix(-0.866044 0.499967 0.866044 0.499967 304.549 226.513)" fill="#339966"/>
<rect width="29.5543" height="29.5543" transform="matrix(-0.866044 0.499967 0.866044 0.499967 253.358 256.065)" fill="#339966"/>
<rect width="29.5543" height="29.5543" transform="matrix(-0.866044 0.499967 0.866044 0.499967 253.358 226.513)" fill="#339966"/>
<rect width="29.5543" height="29.5543" transform="matrix(-0.866044 0.499967 0.866044 0.499967 202.167 226.513)" fill="#339966"/>
<rect width="29.5543" height="29.5543" transform="matrix(-0.866044 0.499967 0.866044 0.499967 227.763 211.737)" fill="black"/>
<rect width="29.5543" height="29.5543" transform="matrix(-0.866044 0.499967 0.866044 0.499967 278.953 211.737)" fill="black"/>
<rect width="29.5543" height="29.5543" transform="matrix(-0.866044 0.499967 0.866044 0.499967 227.763 241.289)" fill="black"/>
<rect width="29.5543" height="29.5543" transform="matrix(-0.866044 0.499967 0.866044 0.499967 278.953 241.289)" fill="black"/>
<rect width="29.5543" height="29.5543" transform="matrix(-0.866044 0.499967 0.866044 0.499967 150.977 256.065)" fill="#339966"/>
<rect width="29.5543" height="29.5543" transform="matrix(-0.866044 0.499967 0.866044 0.499967 202.167 285.618)" fill="#339966"/>
<rect width="29.5543" height="29.5543" transform="matrix(-0.866044 0.499967 0.866044 0.499967 176.572 300.394)" fill="black"/>
<rect width="29.5543" height="29.5543" transform="matrix(-0.866044 0.499967 0.866044 0.499967 202.167 256.065)" fill="#339966"/>
<rect width="29.5543" height="29.5543" transform="matrix(-0.866044 0.499967 0.866044 0.499967 150.977 285.617)" fill="#339966"/>
<rect width="29.5543" height="29.5543" transform="matrix(-0.866044 0.499967 0.866044 0.499967 176.572 241.289)" fill="black"/>
<rect width="29.5543" height="29.5543" transform="matrix(-0.866044 0.499967 0.866044 0.499967 176.572 270.841)" fill="black"/>
<rect width="29.5543" height="29.5543" transform="matrix(-0.866044 0.499967 0.866044 0.499967 125.381 270.841)" fill="black"/>
<rect width="29.5543" height="29.5543" transform="matrix(-0.866044 0.499967 0.866044 0.499967 227.763 270.841)" fill="black"/>
<rect width="29.5543" height="29.5543" transform="matrix(-0.866044 0.499967 0.866044 0.499967 406.93 108.303)" fill="#339966"/>
<rect width="29.5543" height="29.5543" transform="matrix(-0.866044 0.499967 0.866044 0.499967 458.121 137.856)" fill="#339966"/>
<rect width="29.5543" height="29.5543" transform="matrix(-0.866044 0.499967 0.866044 0.499967 406.93 167.408)" fill="#339966"/>
<rect width="29.5543" height="29.5543" transform="matrix(-0.866044 0.499967 0.866044 0.499967 406.93 137.856)" fill="#339966"/>
<rect width="29.5543" height="29.5543" transform="matrix(-0.866044 0.499967 0.866044 0.499967 355.739 137.856)" fill="#339966"/>
<rect width="29.5543" height="29.5543" transform="matrix(-0.866044 0.499967 0.866044 0.499967 381.335 123.079)" fill="black"/>
<rect width="29.5543" height="29.5543" transform="matrix(-0.866044 0.499967 0.866044 0.499967 432.525 123.079)" fill="black"/>
<rect width="29.5543" height="29.5543" transform="matrix(-0.866044 0.499967 0.866044 0.499967 381.335 152.632)" fill="black"/>
<rect width="29.5543" height="29.5543" transform="matrix(-0.866044 0.499967 0.866044 0.499967 432.525 152.632)" fill="black"/>
<rect width="29.5543" height="29.5543" transform="matrix(-0.866044 0.499967 0.866044 0.499967 304.549 167.408)" fill="#339966"/>
<rect width="29.5543" height="29.5543" transform="matrix(-0.866044 0.499967 0.866044 0.499967 355.739 196.96)" fill="#339966"/>
<rect width="29.5543" height="29.5543" transform="matrix(-0.866044 0.499967 0.866044 0.499967 330.144 211.737)" fill="black"/>
<rect width="29.5543" height="29.5543" transform="matrix(-0.866044 0.499967 0.866044 0.499967 355.739 167.408)" fill="#339966"/>
<rect width="29.5543" height="29.5543" transform="matrix(-0.866044 0.499967 0.866044 0.499967 304.549 196.96)" fill="#339966"/>
<rect width="29.5543" height="29.5543" transform="matrix(-0.866044 0.499967 0.866044 0.499967 330.144 152.632)" fill="black"/>
<rect width="29.5543" height="29.5543" transform="matrix(-0.866044 0.499967 0.866044 0.499967 330.144 182.184)" fill="black"/>
<rect width="29.5543" height="29.5543" transform="matrix(-0.866044 0.499967 0.866044 0.499967 278.953 182.184)" fill="black"/>
<rect width="29.5543" height="29.5543" transform="matrix(-0.866044 0.499967 0.866044 0.499967 381.335 182.184)" fill="black"/>
<rect width="29.5543" height="29.5543" transform="matrix(-0.866044 0.499967 0.866044 0.499967 560.502 19.6461)" fill="#339966"/>
<rect width="29.5543" height="29.5543" transform="matrix(-0.866044 0.499967 0.866044 0.499967 611.693 49.1985)" fill="#339966"/>
<rect width="29.5543" height="29.5543" transform="matrix(-0.866044 0.499967 0.866044 0.499967 560.502 78.7509)" fill="#339966"/>
<rect width="29.5543" height="29.5543" transform="matrix(-0.866044 0.499967 0.866044 0.499967 560.502 49.1985)" fill="#339966"/>
<rect width="29.5543" height="29.5543" transform="matrix(-0.866044 0.499967 0.866044 0.499967 509.311 49.1985)" fill="#339966"/>
<rect width="29.5543" height="29.5543" transform="matrix(-0.866044 0.499967 0.866044 0.499967 534.907 34.4223)" fill="black"/>
<rect width="29.5543" height="29.5543" transform="matrix(-0.866044 0.499967 0.866044 0.499967 586.097 34.4223)" fill="black"/>
<rect width="29.5543" height="29.5543" transform="matrix(-0.866044 0.499967 0.866044 0.499967 534.907 63.9747)" fill="black"/>
<rect width="29.5543" height="29.5543" transform="matrix(-0.866044 0.499967 0.866044 0.499967 586.097 63.9747)" fill="black"/>
<rect width="29.5543" height="29.5543" transform="matrix(-0.866044 0.499967 0.866044 0.499967 458.121 78.7509)" fill="#339966"/>
<rect width="29.5543" height="29.5543" transform="matrix(-0.866044 0.499967 0.866044 0.499967 509.311 108.303)" fill="#339966"/>
<rect width="29.5543" height="29.5543" transform="matrix(-0.866044 0.499967 0.866044 0.499967 483.716 123.079)" fill="black"/>
<rect width="29.5543" height="29.5543" transform="matrix(-0.866044 0.499967 0.866044 0.499967 509.311 78.7509)" fill="#339966"/>
<rect width="29.5543" height="29.5543" transform="matrix(-0.866044 0.499967 0.866044 0.499967 458.121 108.303)" fill="#339966"/>
<rect width="29.5543" height="29.5543" transform="matrix(-0.866044 0.499967 0.866044 0.499967 483.716 63.9747)" fill="black"/>
<rect width="29.5543" height="29.5543" transform="matrix(-0.866044 0.499967 0.866044 0.499967 483.716 93.527)" fill="black"/>
<rect width="29.5543" height="29.5543" transform="matrix(-0.866044 0.499967 0.866044 0.499967 432.525 93.527)" fill="black"/>
<rect width="29.5543" height="29.5543" transform="matrix(-0.866044 0.499967 0.866044 0.499967 534.907 93.527)" fill="black"/>
<rect width="29.5543" height="29.5543" transform="matrix(-0.866044 0.499967 0.866044 0.499967 714.074 -9.90635)" fill="#339966"/>
<rect width="29.5543" height="29.5543" transform="matrix(-0.866044 0.499967 0.866044 0.499967 688.479 -24.6825)" fill="black"/>
<rect width="29.5543" height="29.5543" transform="matrix(-0.866044 0.499967 0.866044 0.499967 739.67 -24.6825)" fill="black"/>
<rect width="29.5543" height="29.5543" transform="matrix(-0.866044 0.499967 0.866044 0.499967 611.693 -9.90635)" fill="#339966"/>
<rect width="29.5543" height="29.5543" transform="matrix(-0.866044 0.499967 0.866044 0.499967 662.884 19.646)" fill="#339966"/>
<rect width="29.5543" height="29.5543" transform="matrix(-0.866044 0.499967 0.866044 0.499967 637.288 34.4222)" fill="black"/>
<rect width="29.5543" height="29.5543" transform="matrix(-0.866044 0.499967 0.866044 0.499967 662.884 -9.90634)" fill="#339966"/>
<rect width="29.5543" height="29.5543" transform="matrix(-0.866044 0.499967 0.866044 0.499967 611.693 19.646)" fill="#339966"/>
<rect width="29.5543" height="29.5543" transform="matrix(-0.866044 0.499967 0.866044 0.499967 637.288 -24.6825)" fill="black"/>
<rect width="29.5543" height="29.5543" transform="matrix(-0.866044 0.499967 0.866044 0.499967 637.288 4.86985)" fill="black"/>
<rect width="29.5543" height="29.5543" transform="matrix(-0.866044 0.499967 0.866044 0.499967 586.098 4.86985)" fill="black"/>
<rect width="29.5543" height="29.5543" transform="matrix(-0.866044 0.499967 0.866044 0.499967 688.479 4.86985)" fill="black"/>
<rect width="29.5543" height="29.5543" transform="matrix(0.866044 -0.499967 0.866044 0.499967 176.572 329.946)" fill="#339966"/>
<rect width="29.5543" height="29.5543" transform="matrix(0.866044 -0.499967 0.866044 0.499967 227.763 359.498)" fill="#339966"/>
<rect width="29.5543" height="29.5543" transform="matrix(0.866044 -0.499967 0.866044 0.499967 278.953 329.946)" fill="#339966"/>
<rect width="29.5543" height="29.5543" transform="matrix(0.866044 -0.499967 0.866044 0.499967 227.763 329.946)" fill="#339966"/>
<rect width="29.5543" height="29.5543" transform="matrix(0.866044 -0.499967 0.866044 0.499967 227.763 300.394)" fill="#339966"/>
<rect width="29.5543" height="29.5543" transform="matrix(0.866044 -0.499967 0.866044 0.499967 202.167 315.17)" fill="black"/>
<rect width="29.5543" height="29.5543" transform="matrix(0.866044 -0.499967 0.866044 0.499967 202.167 344.722)" fill="black"/>
<rect width="29.5543" height="29.5543" transform="matrix(0.866044 -0.499967 0.866044 0.499967 253.358 315.17)" fill="black"/>
<rect width="29.5543" height="29.5543" transform="matrix(0.866044 -0.499967 0.866044 0.499967 253.358 344.722)" fill="black"/>
<rect width="29.5543" height="29.5543" transform="matrix(0.866044 -0.499967 0.866044 0.499967 278.953 270.841)" fill="#339966"/>
<rect width="29.5543" height="29.5543" transform="matrix(0.866044 -0.499967 0.866044 0.499967 330.144 300.394)" fill="#339966"/>
<rect width="29.5543" height="29.5543" transform="matrix(0.866044 -0.499967 0.866044 0.499967 355.739 285.618)" fill="black"/>
<rect width="29.5543" height="29.5543" transform="matrix(0.866044 -0.499967 0.866044 0.499967 278.953 300.394)" fill="#339966"/>
<rect width="29.5543" height="29.5543" transform="matrix(0.866044 -0.499967 0.866044 0.499967 330.144 270.841)" fill="#339966"/>
<rect width="29.5543" height="29.5543" transform="matrix(0.866044 -0.499967 0.866044 0.499967 253.358 285.618)" fill="black"/>
<rect width="29.5543" height="29.5543" transform="matrix(0.866044 -0.499967 0.866044 0.499967 304.549 285.618)" fill="black"/>
<rect width="29.5543" height="29.5543" transform="matrix(0.866044 -0.499967 0.866044 0.499967 304.549 256.065)" fill="black"/>
<rect width="29.5543" height="29.5543" transform="matrix(0.866044 -0.499967 0.866044 0.499967 304.549 315.17)" fill="black"/>
<rect width="29.5543" height="29.5543" transform="matrix(0.866044 -0.499967 0.866044 0.499967 330.144 241.289)" fill="#339966"/>
<rect width="29.5543" height="29.5543" transform="matrix(0.866044 -0.499967 0.866044 0.499967 381.335 270.841)" fill="#339966"/>
<rect width="29.5543" height="29.5543" transform="matrix(0.866044 -0.499967 0.866044 0.499967 432.526 241.289)" fill="#339966"/>
<rect width="29.5543" height="29.5543" transform="matrix(0.866044 -0.499967 0.866044 0.499967 381.335 241.289)" fill="#339966"/>
<rect width="29.5543" height="29.5543" transform="matrix(0.866044 -0.499967 0.866044 0.499967 381.335 211.737)" fill="#339966"/>
<rect width="29.5543" height="29.5543" transform="matrix(0.866044 -0.499967 0.866044 0.499967 355.74 226.513)" fill="black"/>
<rect width="29.5543" height="29.5543" transform="matrix(0.866044 -0.499967 0.866044 0.499967 355.739 256.065)" fill="black"/>
<rect width="29.5543" height="29.5543" transform="matrix(0.866044 -0.499967 0.866044 0.499967 406.93 226.513)" fill="black"/>
<rect width="29.5543" height="29.5543" transform="matrix(0.866044 -0.499967 0.866044 0.499967 406.93 256.065)" fill="black"/>
<rect width="29.5543" height="29.5543" transform="matrix(0.866044 -0.499967 0.866044 0.499967 432.526 182.184)" fill="#339966"/>
<rect width="29.5543" height="29.5543" transform="matrix(0.866044 -0.499967 0.866044 0.499967 483.716 211.737)" fill="#339966"/>
<rect width="29.5543" height="29.5543" transform="matrix(0.866044 -0.499967 0.866044 0.499967 509.312 196.96)" fill="black"/>
<rect width="29.5543" height="29.5543" transform="matrix(0.866044 -0.499967 0.866044 0.499967 432.526 211.737)" fill="#339966"/>
<rect width="29.5543" height="29.5543" transform="matrix(0.866044 -0.499967 0.866044 0.499967 483.716 182.184)" fill="#339966"/>
<rect width="29.5543" height="29.5543" transform="matrix(0.866044 -0.499967 0.866044 0.499967 406.93 196.96)" fill="black"/>
<rect width="29.5543" height="29.5543" transform="matrix(0.866044 -0.499967 0.866044 0.499967 458.121 196.96)" fill="black"/>
<rect width="29.5543" height="29.5543" transform="matrix(0.866044 -0.499967 0.866044 0.499967 458.121 167.408)" fill="black"/>
<rect width="29.5543" height="29.5543" transform="matrix(0.866044 -0.499967 0.866044 0.499967 458.121 226.513)" fill="black"/>
<rect width="29.5543" height="29.5543" transform="matrix(0.866044 -0.499967 0.866044 0.499967 483.716 152.632)" fill="#339966"/>
<rect width="29.5543" height="29.5543" transform="matrix(0.866044 -0.499967 0.866044 0.499967 534.907 182.184)" fill="#339966"/>
<rect width="29.5543" height="29.5543" transform="matrix(0.866044 -0.499967 0.866044 0.499967 586.098 152.632)" fill="#339966"/>
<rect width="29.5543" height="29.5543" transform="matrix(0.866044 -0.499967 0.866044 0.499967 534.907 152.632)" fill="#339966"/>
<rect width="29.5543" height="29.5543" transform="matrix(0.866044 -0.499967 0.866044 0.499967 534.907 123.079)" fill="#339966"/>
<rect width="29.5543" height="29.5543" transform="matrix(0.866044 -0.499967 0.866044 0.499967 509.312 137.856)" fill="black"/>
<rect width="29.5543" height="29.5543" transform="matrix(0.866044 -0.499967 0.866044 0.499967 509.312 167.408)" fill="black"/>
<rect width="29.5543" height="29.5543" transform="matrix(0.866044 -0.499967 0.866044 0.499967 560.502 137.856)" fill="black"/>
<rect width="29.5543" height="29.5543" transform="matrix(0.866044 -0.499967 0.866044 0.499967 560.502 167.408)" fill="black"/>
<rect width="29.5543" height="29.5543" transform="matrix(0.866044 -0.499967 0.866044 0.499967 586.098 93.527)" fill="#339966"/>
<rect width="29.5543" height="29.5543" transform="matrix(0.866044 -0.499967 0.866044 0.499967 637.288 123.079)" fill="#339966"/>
<rect width="29.5543" height="29.5543" transform="matrix(0.866044 -0.499967 0.866044 0.499967 662.884 108.303)" fill="black"/>
<rect width="29.5543" height="29.5543" transform="matrix(0.866044 -0.499967 0.866044 0.499967 586.098 123.079)" fill="#339966"/>
<rect width="29.5543" height="29.5543" transform="matrix(0.866044 -0.499967 0.866044 0.499967 637.288 93.527)" fill="#339966"/>
<rect width="29.5543" height="29.5543" transform="matrix(0.866044 -0.499967 0.866044 0.499967 560.502 108.303)" fill="black"/>
<rect width="29.5543" height="29.5543" transform="matrix(0.866044 -0.499967 0.866044 0.499967 611.693 108.303)" fill="black"/>
<rect width="29.5543" height="29.5543" transform="matrix(0.866044 -0.499967 0.866044 0.499967 611.693 78.7509)" fill="black"/>
<rect width="29.5543" height="29.5543" transform="matrix(0.866044 -0.499967 0.866044 0.499967 611.693 137.856)" fill="black"/>
<rect width="29.5543" height="29.5543" transform="matrix(0.866044 -0.499967 0.866044 0.499967 636.968 64.1594)" fill="#339966"/>
<rect width="29.5543" height="29.5543" transform="matrix(0.866044 -0.499967 0.866044 0.499967 688.159 93.7117)" fill="#339966"/>
<rect width="29.5543" height="29.5543" transform="matrix(0.866044 -0.499967 0.866044 0.499967 739.35 64.1594)" fill="#339966"/>
<rect width="29.5543" height="29.5543" transform="matrix(0.866044 -0.499967 0.866044 0.499967 688.159 64.1594)" fill="#339966"/>
<rect width="29.5543" height="29.5543" transform="matrix(0.866044 -0.499967 0.866044 0.499967 688.159 34.607)" fill="#339966"/>
<rect width="29.5543" height="29.5543" transform="matrix(0.866044 -0.499967 0.866044 0.499967 662.564 49.3832)" fill="black"/>
<rect width="29.5543" height="29.5543" transform="matrix(0.866044 -0.499967 0.866044 0.499967 662.564 78.9356)" fill="black"/>
<rect width="29.5543" height="29.5543" transform="matrix(0.866044 -0.499967 0.866044 0.499967 713.754 49.3832)" fill="black"/>
<rect width="29.5543" height="29.5543" transform="matrix(0.866044 -0.499967 0.866044 0.499967 713.754 78.9355)" fill="black"/>
<rect width="29.5543" height="29.5543" transform="matrix(0.866044 -0.499967 0.866044 0.499967 739.35 5.0546)" fill="#339966"/>
<rect width="29.5543" height="29.5543" transform="matrix(0.866044 -0.499967 0.866044 0.499967 739.35 34.607)" fill="#339966"/>
<rect width="29.5543" height="29.5543" transform="matrix(0.866044 -0.499967 0.866044 0.499967 713.754 19.8308)" fill="black"/>
<rect width="29.5543" height="29.5543" transform="matrix(-0.866044 0.499967 0.866044 0.499967 406.93 285.617)" fill="#339966"/>
<rect width="29.5543" height="29.5543" transform="matrix(-0.866044 0.499967 0.866044 0.499967 458.121 315.17)" fill="#339966"/>
<rect width="29.5543" height="29.5543" transform="matrix(-0.866044 0.499967 0.866044 0.499967 406.93 344.722)" fill="#339966"/>
<rect width="29.5543" height="29.5543" transform="matrix(-0.866044 0.499967 0.866044 0.499967 406.93 315.17)" fill="#339966"/>
<rect width="29.5543" height="29.5543" transform="matrix(-0.866044 0.499967 0.866044 0.499967 355.739 315.17)" fill="#339966"/>
<rect width="29.5543" height="29.5543" transform="matrix(-0.866044 0.499967 0.866044 0.499967 381.335 300.394)" fill="black"/>
<rect width="29.5543" height="29.5543" transform="matrix(-0.866044 0.499967 0.866044 0.499967 432.525 300.394)" fill="black"/>
<rect width="29.5543" height="29.5543" transform="matrix(-0.866044 0.499967 0.866044 0.499967 381.335 329.946)" fill="black"/>
<rect width="29.5543" height="29.5543" transform="matrix(-0.866044 0.499967 0.866044 0.499967 432.525 329.946)" fill="black"/>
<rect width="29.5543" height="29.5543" transform="matrix(-0.866044 0.499967 0.866044 0.499967 304.549 344.722)" fill="#339966"/>
<rect width="29.5543" height="29.5543" transform="matrix(-0.866044 0.499967 0.866044 0.499967 355.739 374.275)" fill="#339966"/>
<rect width="29.5543" height="29.5543" transform="matrix(-0.866044 0.499967 0.866044 0.499967 330.144 389.051)" fill="black"/>
<rect width="29.5543" height="29.5543" transform="matrix(-0.866044 0.499967 0.866044 0.499967 355.739 344.722)" fill="#339966"/>
<rect width="29.5543" height="29.5543" transform="matrix(-0.866044 0.499967 0.866044 0.499967 304.549 374.275)" fill="#339966"/>
<rect width="29.5543" height="29.5543" transform="matrix(-0.866044 0.499967 0.866044 0.499967 330.144 329.946)" fill="black"/>
<rect width="29.5543" height="29.5543" transform="matrix(-0.866044 0.499967 0.866044 0.499967 330.144 359.498)" fill="black"/>
<rect width="29.5543" height="29.5543" transform="matrix(-0.866044 0.499967 0.866044 0.499967 278.953 359.498)" fill="black"/>
<rect width="29.5543" height="29.5543" transform="matrix(-0.866044 0.499967 0.866044 0.499967 381.335 359.498)" fill="black"/>
<rect width="29.5543" height="29.5543" transform="matrix(-0.866044 0.499967 0.866044 0.499967 560.502 196.96)" fill="#339966"/>
<rect width="29.5543" height="29.5543" transform="matrix(-0.866044 0.499967 0.866044 0.499967 611.693 226.513)" fill="#339966"/>
<rect width="29.5543" height="29.5543" transform="matrix(-0.866044 0.499967 0.866044 0.499967 560.502 256.065)" fill="#339966"/>
<rect width="29.5543" height="29.5543" transform="matrix(-0.866044 0.499967 0.866044 0.499967 560.502 226.513)" fill="#339966"/>
<rect width="29.5543" height="29.5543" transform="matrix(-0.866044 0.499967 0.866044 0.499967 509.312 226.513)" fill="#339966"/>
<rect width="29.5543" height="29.5543" transform="matrix(-0.866044 0.499967 0.866044 0.499967 534.907 211.737)" fill="black"/>
<rect width="29.5543" height="29.5543" transform="matrix(-0.866044 0.499967 0.866044 0.499967 586.098 211.737)" fill="black"/>
<rect width="29.5543" height="29.5543" transform="matrix(-0.866044 0.499967 0.866044 0.499967 534.907 241.289)" fill="black"/>
<rect width="29.5543" height="29.5543" transform="matrix(-0.866044 0.499967 0.866044 0.499967 586.098 241.289)" fill="black"/>
<rect width="29.5543" height="29.5543" transform="matrix(-0.866044 0.499967 0.866044 0.499967 458.121 256.065)" fill="#339966"/>
<rect width="29.5543" height="29.5543" transform="matrix(-0.866044 0.499967 0.866044 0.499967 509.312 285.618)" fill="#339966"/>
<rect width="29.5543" height="29.5543" transform="matrix(-0.866044 0.499967 0.866044 0.499967 483.716 300.394)" fill="black"/>
<rect width="29.5543" height="29.5543" transform="matrix(-0.866044 0.499967 0.866044 0.499967 509.312 256.065)" fill="#339966"/>
<rect width="29.5543" height="29.5543" transform="matrix(-0.866044 0.499967 0.866044 0.499967 458.121 285.618)" fill="#339966"/>
<rect width="29.5543" height="29.5543" transform="matrix(-0.866044 0.499967 0.866044 0.499967 483.716 241.289)" fill="black"/>
<rect width="29.5543" height="29.5543" transform="matrix(-0.866044 0.499967 0.866044 0.499967 483.716 270.841)" fill="black"/>
<rect width="29.5543" height="29.5543" transform="matrix(-0.866044 0.499967 0.866044 0.499967 432.526 270.841)" fill="black"/>
<rect width="29.5543" height="29.5543" transform="matrix(-0.866044 0.499967 0.866044 0.499967 534.907 270.841)" fill="black"/>
<rect width="29.5543" height="29.5543" transform="matrix(-0.866044 0.499967 0.866044 0.499967 714.074 108.303)" fill="#339966"/>
<rect width="29.5543" height="29.5543" transform="matrix(-0.866044 0.499967 0.866044 0.499967 765.265 137.856)" fill="#339966"/>
<rect width="29.5543" height="29.5543" transform="matrix(-0.866044 0.499967 0.866044 0.499967 714.074 167.408)" fill="#339966"/>
<rect width="29.5543" height="29.5543" transform="matrix(-0.866044 0.499967 0.866044 0.499967 714.074 137.856)" fill="#339966"/>
<rect width="29.5543" height="29.5543" transform="matrix(-0.866044 0.499967 0.866044 0.499967 662.884 137.856)" fill="#339966"/>
<rect width="29.5543" height="29.5543" transform="matrix(-0.866044 0.499967 0.866044 0.499967 688.479 123.079)" fill="black"/>
<rect width="29.5543" height="29.5543" transform="matrix(-0.866044 0.499967 0.866044 0.499967 739.67 123.079)" fill="black"/>
<rect width="29.5543" height="29.5543" transform="matrix(-0.866044 0.499967 0.866044 0.499967 688.479 152.632)" fill="black"/>
<rect width="29.5543" height="29.5543" transform="matrix(-0.866044 0.499967 0.866044 0.499967 739.67 152.632)" fill="black"/>
<rect width="29.5543" height="29.5543" transform="matrix(-0.866044 0.499967 0.866044 0.499967 611.693 167.408)" fill="#339966"/>
<rect width="29.5543" height="29.5543" transform="matrix(-0.866044 0.499967 0.866044 0.499967 662.884 196.96)" fill="#339966"/>
<rect width="29.5543" height="29.5543" transform="matrix(-0.866044 0.499967 0.866044 0.499967 637.288 211.737)" fill="black"/>
<rect width="29.5543" height="29.5543" transform="matrix(-0.866044 0.499967 0.866044 0.499967 662.884 167.408)" fill="#339966"/>
<rect width="29.5543" height="29.5543" transform="matrix(-0.866044 0.499967 0.866044 0.499967 611.693 196.96)" fill="#339966"/>
<rect width="29.5543" height="29.5543" transform="matrix(-0.866044 0.499967 0.866044 0.499967 637.288 152.632)" fill="black"/>
<rect width="29.5543" height="29.5543" transform="matrix(-0.866044 0.499967 0.866044 0.499967 637.288 182.184)" fill="black"/>
<rect width="29.5543" height="29.5543" transform="matrix(-0.866044 0.499967 0.866044 0.499967 586.098 182.184)" fill="black"/>
<rect width="29.5543" height="29.5543" transform="matrix(-0.866044 0.499967 0.866044 0.499967 688.479 182.184)" fill="black"/>
<rect width="29.5543" height="29.5543" transform="matrix(-0.866044 0.499967 0.866044 0.499967 765.265 78.7508)" fill="#339966"/>
<rect width="29.5543" height="29.5543" transform="matrix(-0.866044 0.499967 0.866044 0.499967 765.265 108.303)" fill="#339966"/>
<rect width="29.5543" height="29.5543" transform="matrix(-0.866044 0.499967 0.866044 0.499967 739.67 93.527)" fill="black"/>
<rect width="29.5543" height="29.5543" transform="matrix(0.866044 -0.499967 0.866044 0.499967 330.144 418.603)" fill="#339966"/>
<rect width="29.5543" height="29.5543" transform="matrix(0.866044 -0.499967 0.866044 0.499967 432.526 418.603)" fill="#339966"/>
<rect width="29.5543" height="29.5543" transform="matrix(0.866044 -0.499967 0.866044 0.499967 381.335 418.603)" fill="#339966"/>
<rect width="29.5543" height="29.5543" transform="matrix(0.866044 -0.499967 0.866044 0.499967 381.335 389.051)" fill="#339966"/>
<rect width="29.5543" height="29.5543" transform="matrix(0.866044 -0.499967 0.866044 0.499967 355.74 403.827)" fill="black"/>
<rect width="29.5543" height="29.5543" transform="matrix(0.866044 -0.499967 0.866044 0.499967 355.739 433.379)" fill="black"/>
<rect width="29.5543" height="29.5543" transform="matrix(0.866044 -0.499967 0.866044 0.499967 406.93 403.827)" fill="black"/>
<rect width="29.5543" height="29.5543" transform="matrix(0.866044 -0.499967 0.866044 0.499967 406.93 433.379)" fill="black"/>
<rect width="29.5543" height="29.5543" transform="matrix(0.866044 -0.499967 0.866044 0.499967 432.526 359.498)" fill="#339966"/>
<rect width="29.5543" height="29.5543" transform="matrix(0.866044 -0.499967 0.866044 0.499967 483.716 389.051)" fill="#339966"/>
<rect width="29.5543" height="29.5543" transform="matrix(0.866044 -0.499967 0.866044 0.499967 509.312 374.275)" fill="black"/>
<rect width="29.5543" height="29.5543" transform="matrix(0.866044 -0.499967 0.866044 0.499967 432.526 389.051)" fill="#339966"/>
<rect width="29.5543" height="29.5543" transform="matrix(0.866044 -0.499967 0.866044 0.499967 483.716 359.498)" fill="#339966"/>
<rect width="29.5543" height="29.5543" transform="matrix(0.866044 -0.499967 0.866044 0.499967 406.93 374.275)" fill="black"/>
<rect width="29.5543" height="29.5543" transform="matrix(0.866044 -0.499967 0.866044 0.499967 458.121 374.275)" fill="black"/>
<rect width="29.5543" height="29.5543" transform="matrix(0.866044 -0.499967 0.866044 0.499967 458.121 344.722)" fill="black"/>
<rect width="29.5543" height="29.5543" transform="matrix(0.866044 -0.499967 0.866044 0.499967 458.121 403.827)" fill="black"/>
<rect width="29.5543" height="29.5543" transform="matrix(0.866044 -0.499967 0.866044 0.499967 483.716 329.946)" fill="#339966"/>
<rect width="29.5543" height="29.5543" transform="matrix(0.866044 -0.499967 0.866044 0.499967 534.907 359.498)" fill="#339966"/>
<rect width="29.5543" height="29.5543" transform="matrix(0.866044 -0.499967 0.866044 0.499967 586.098 329.946)" fill="#339966"/>
<rect width="29.5543" height="29.5543" transform="matrix(0.866044 -0.499967 0.866044 0.499967 534.907 329.946)" fill="#339966"/>
<rect width="29.5543" height="29.5543" transform="matrix(0.866044 -0.499967 0.866044 0.499967 534.907 300.394)" fill="#339966"/>
<rect width="29.5543" height="29.5543" transform="matrix(0.866044 -0.499967 0.866044 0.499967 509.312 315.17)" fill="black"/>
<rect width="29.5543" height="29.5543" transform="matrix(0.866044 -0.499967 0.866044 0.499967 509.312 344.722)" fill="black"/>
<rect width="29.5543" height="29.5543" transform="matrix(0.866044 -0.499967 0.866044 0.499967 560.502 315.17)" fill="black"/>
<rect width="29.5543" height="29.5543" transform="matrix(0.866044 -0.499967 0.866044 0.499967 560.502 344.722)" fill="black"/>
<rect width="29.5543" height="29.5543" transform="matrix(0.866044 -0.499967 0.866044 0.499967 586.098 270.841)" fill="#339966"/>
<rect width="29.5543" height="29.5543" transform="matrix(0.866044 -0.499967 0.866044 0.499967 637.288 300.394)" fill="#339966"/>
<rect width="29.5543" height="29.5543" transform="matrix(0.866044 -0.499967 0.866044 0.499967 662.884 285.618)" fill="black"/>
<rect width="29.5543" height="29.5543" transform="matrix(0.866044 -0.499967 0.866044 0.499967 586.098 300.394)" fill="#339966"/>
<rect width="29.5543" height="29.5543" transform="matrix(0.866044 -0.499967 0.866044 0.499967 637.288 270.841)" fill="#339966"/>
<rect width="29.5543" height="29.5543" transform="matrix(0.866044 -0.499967 0.866044 0.499967 560.502 285.618)" fill="black"/>
<rect width="29.5543" height="29.5543" transform="matrix(0.866044 -0.499967 0.866044 0.499967 611.693 285.618)" fill="black"/>
<rect width="29.5543" height="29.5543" transform="matrix(0.866044 -0.499967 0.866044 0.499967 611.693 256.065)" fill="black"/>
<rect width="29.5543" height="29.5543" transform="matrix(0.866044 -0.499967 0.866044 0.499967 611.693 315.17)" fill="black"/>
<rect width="29.5543" height="29.5543" transform="matrix(0.866044 -0.499967 0.866044 0.499967 637.288 241.289)" fill="#339966"/>
<rect width="29.5543" height="29.5543" transform="matrix(0.866044 -0.499967 0.866044 0.499967 688.479 270.841)" fill="#339966"/>
<rect width="29.5543" height="29.5543" transform="matrix(0.866044 -0.499967 0.866044 0.499967 739.669 241.289)" fill="#339966"/>
<rect width="29.5543" height="29.5543" transform="matrix(0.866044 -0.499967 0.866044 0.499967 688.479 241.289)" fill="#339966"/>
<rect width="29.5543" height="29.5543" transform="matrix(0.866044 -0.499967 0.866044 0.499967 688.479 211.737)" fill="#339966"/>
<rect width="29.5543" height="29.5543" transform="matrix(0.866044 -0.499967 0.866044 0.499967 662.883 226.513)" fill="black"/>
<rect width="29.5543" height="29.5543" transform="matrix(0.866044 -0.499967 0.866044 0.499967 662.883 256.065)" fill="black"/>
<rect width="29.5543" height="29.5543" transform="matrix(0.866044 -0.499967 0.866044 0.499967 714.074 226.513)" fill="black"/>
<rect width="29.5543" height="29.5543" transform="matrix(0.866044 -0.499967 0.866044 0.499967 714.074 256.065)" fill="black"/>
<rect width="29.5543" height="29.5543" transform="matrix(0.866044 -0.499967 0.866044 0.499967 739.67 182.184)" fill="#339966"/>
<rect width="29.5543" height="29.5543" transform="matrix(0.866044 -0.499967 0.866044 0.499967 739.67 211.737)" fill="#339966"/>
<rect width="29.5543" height="29.5543" transform="matrix(0.866044 -0.499967 0.866044 0.499967 714.074 196.96)" fill="black"/>
<rect width="29.5543" height="29.5543" transform="matrix(0.866044 -0.499967 0.866044 0.499967 23 241.289)" fill="#339966"/>
<rect width="29.5543" height="29.5543" transform="matrix(0.866044 -0.499967 0.866044 0.499967 74.1907 270.841)" fill="#339966"/>
<rect width="29.5543" height="29.5543" transform="matrix(0.866044 -0.499967 0.866044 0.499967 125.381 241.289)" fill="#339966"/>
<rect width="29.5543" height="29.5543" transform="matrix(0.866044 -0.499967 0.866044 0.499967 74.1907 241.289)" fill="#339966"/>
<rect width="29.5543" height="29.5543" transform="matrix(0.866044 -0.499967 0.866044 0.499967 74.1907 211.737)" fill="#339966"/>
<rect width="29.5543" height="29.5543" transform="matrix(0.866044 -0.499967 0.866044 0.499967 48.5954 226.513)" fill="black"/>
<rect width="29.5543" height="29.5543" transform="matrix(0.866044 -0.499967 0.866044 0.499967 48.5953 256.065)" fill="black"/>
<rect width="29.5543" height="29.5543" transform="matrix(0.866044 -0.499967 0.866044 0.499967 99.786 226.513)" fill="black"/>
<rect width="29.5543" height="29.5543" transform="matrix(0.866044 -0.499967 0.866044 0.499967 99.786 256.065)" fill="black"/>
<rect width="29.5543" height="29.5543" transform="matrix(0.866044 -0.499967 0.866044 0.499967 125.381 182.184)" fill="#339966"/>
<rect width="29.5543" height="29.5543" transform="matrix(0.866044 -0.499967 0.866044 0.499967 176.572 211.737)" fill="#339966"/>
<rect width="29.5543" height="29.5543" transform="matrix(0.866044 -0.499967 0.866044 0.499967 202.167 196.96)" fill="black"/>
<rect width="29.5543" height="29.5543" transform="matrix(0.866044 -0.499967 0.866044 0.499967 125.381 211.737)" fill="#339966"/>
<rect width="29.5543" height="29.5543" transform="matrix(0.866044 -0.499967 0.866044 0.499967 176.572 182.184)" fill="#339966"/>
<rect width="29.5543" height="29.5543" transform="matrix(0.866044 -0.499967 0.866044 0.499967 99.786 196.96)" fill="black"/>
<rect width="29.5543" height="29.5543" transform="matrix(0.866044 -0.499967 0.866044 0.499967 150.977 196.96)" fill="black"/>
<rect width="29.5543" height="29.5543" transform="matrix(0.866044 -0.499967 0.866044 0.499967 150.977 167.408)" fill="black"/>
<rect width="29.5543" height="29.5543" transform="matrix(0.866044 -0.499967 0.866044 0.499967 150.977 226.513)" fill="black"/>
</g>
<rect x="0.866044" width="481.609" height="360.957" rx="6.88858" transform="matrix(0.866044 -0.499967 0.866044 0.499967 23.116 241.722)" stroke="black"/>
</g>
<defs>
<filter id="filter0_d_201_2655" x="0.00517654" y="0" width="777.422" height="514.235" filterUnits="userSpaceOnUse" color-interpolation-filters="sRGB">
<feFlood flood-opacity="0" result="BackgroundImageFix"/>
<feColorMatrix in="SourceAlpha" type="matrix" values="0 0 0 0 0 0 0 0 0 0 0 0 0 0 0 0 0 0 127 0" result="hardAlpha"/>
<feOffset dy="68.9845"/>
<feGaussianBlur stdDeviation="11.4974"/>
<feColorMatrix type="matrix" values="0 0 0 0 0 0 0 0 0 0 0 0 0 0 0 0 0 0 0.25 0"/>
<feBlend mode="normal" in2="BackgroundImageFix" result="effect1_dropShadow_201_2655"/>
<feBlend mode="normal" in="SourceGraphic" in2="effect1_dropShadow_201_2655" result="shape"/>
</filter>
<clipPath id="clip0_201_2655">
<rect width="482.609" height="361.957" rx="7.38858" transform="matrix(0.866044 -0.499967 0.866044 0.499967 23 241.289)" fill="white"/>
</clipPath>
</defs>
</svg>
