<svg width="778" height="550" viewBox="0 0 778 550" fill="none" xmlns="http://www.w3.org/2000/svg">
<g filter="url(#filter0_d_201_2677)">
<g clip-path="url(#clip0_201_2677)">
<rect width="482.609" height="361.957" rx="7.38858" transform="matrix(0.866044 -0.499967 0.866044 0.499967 23.0778 241.813)" fill="url(#paint0_linear_201_2677)"/>
<path d="M69.9492 242.829L83.1966 244.878L73.4989 250.477L69.9492 242.829Z" fill="white"/>
<path d="M99.0639 226.021L112.311 228.071L102.614 233.669L99.0639 226.021Z" fill="white"/>
<path d="M128.179 209.213L141.426 211.263L131.728 216.861L128.179 209.213Z" fill="white"/>
<path d="M157.293 192.406L170.541 194.455L160.843 200.053L157.293 192.406Z" fill="white"/>
<path d="M186.408 175.598L199.655 177.647L189.958 183.245L186.408 175.598Z" fill="white"/>
<path d="M215.523 158.79L228.77 160.839L219.072 166.437L215.523 158.79Z" fill="white"/>
<path d="M244.637 141.982L257.885 144.031L248.187 149.629L244.637 141.982Z" fill="white"/>
<path d="M273.752 125.174L286.999 127.223L277.302 132.822L273.752 125.174Z" fill="white"/>
<path d="M302.867 108.366L316.114 110.415L306.416 116.014L302.867 108.366Z" fill="white"/>
<path d="M331.982 91.558L345.229 93.6072L335.531 99.2057L331.982 91.558Z" fill="white"/>
<path d="M361.096 74.7501L374.344 76.7993L364.646 82.3978L361.096 74.7501Z" fill="white"/>
<path d="M390.211 57.9422L403.458 59.9914L393.761 65.5899L390.211 57.9422Z" fill="white"/>
<path d="M419.326 41.1343L432.573 43.1835L422.875 48.782L419.326 41.1343Z" fill="white"/>
<path d="M448.44 24.3264L461.688 26.3756L451.99 31.974L448.44 24.3264Z" fill="white"/>
<path d="M477.555 7.51844L490.802 9.56763L481.105 15.1661L477.555 7.51844Z" fill="white"/>
<path d="M32.836 240.982L46.0833 243.031L36.3856 248.63L32.836 240.982Z" fill="white"/>
<path d="M61.9507 224.174L75.198 226.224L65.5003 231.822L61.9507 224.174Z" fill="white"/>
<path d="M91.0654 207.366L104.313 209.416L94.615 215.014L91.0654 207.366Z" fill="white"/>
<path d="M120.18 190.559L133.427 192.608L123.73 198.206L120.18 190.559Z" fill="white"/>
<path d="M149.295 173.751L162.542 175.8L152.844 181.398L149.295 173.751Z" fill="white"/>
<path d="M178.41 156.943L191.657 158.992L181.959 164.59L178.41 156.943Z" fill="white"/>
<path d="M207.524 140.135L220.772 142.184L211.074 147.782L207.524 140.135Z" fill="white"/>
<path d="M236.639 123.327L249.886 125.376L240.189 130.975L236.639 123.327Z" fill="white"/>
<path d="M265.754 106.519L279.001 108.568L269.303 114.167L265.754 106.519Z" fill="white"/>
<path d="M294.868 89.711L308.116 91.7602L298.418 97.3587L294.868 89.711Z" fill="white"/>
<path d="M323.983 72.9031L337.23 74.9523L327.533 80.5508L323.983 72.9031Z" fill="white"/>
<path d="M353.098 56.0952L366.345 58.1444L356.647 63.7428L353.098 56.0952Z" fill="white"/>
<path d="M382.212 39.2873L395.46 41.3365L385.762 46.935L382.212 39.2873Z" fill="white"/>
<path d="M411.327 22.4793L424.574 24.5285L414.877 30.127L411.327 22.4793Z" fill="white"/>
<path d="M440.442 5.67143L453.689 7.72062L443.991 13.3191L440.442 5.67143Z" fill="white"/>
<path d="M17.4788 272.751L30.7261 274.8L21.0284 280.399L17.4788 272.751Z" fill="white"/>
<path d="M46.5935 255.943L59.8409 257.992L50.1431 263.591L46.5935 255.943Z" fill="white"/>
<path d="M56.5117 295.285L69.759 297.334L60.0613 302.932L56.5117 295.285Z" fill="white"/>
<path d="M85.6264 278.477L98.8737 280.526L89.176 286.125L85.6264 278.477Z" fill="white"/>
<path d="M95.5445 317.818L108.792 319.868L99.0941 325.466L95.5445 317.818Z" fill="white"/>
<path d="M124.659 301.011L137.907 303.06L128.209 308.658L124.659 301.011Z" fill="white"/>
<path d="M134.577 340.352L147.825 342.401L138.127 348L134.577 340.352Z" fill="white"/>
<path d="M163.692 323.544L176.94 325.593L167.242 331.192L163.692 323.544Z" fill="white"/>
<path d="M212.963 385.604L226.211 387.653L216.513 393.252L212.963 385.604Z" fill="white"/>
<path d="M242.078 368.796L255.325 370.846L245.628 376.444L242.078 368.796Z" fill="white"/>
<path d="M251.676 407.953L264.923 410.002L255.226 415.601L251.676 407.953Z" fill="white"/>
<path d="M280.791 391.145L294.038 393.194L284.34 398.793L280.791 391.145Z" fill="white"/>
<path d="M319.824 413.679L333.071 415.728L323.373 421.327L319.824 413.679Z" fill="white"/>
<path d="M173.93 363.071L187.178 365.12L177.48 370.718L173.93 363.071Z" fill="white"/>
<path d="M203.045 346.263L216.292 348.312L206.595 353.91L203.045 346.263Z" fill="white"/>
<path d="M75.0682 262.038L88.3156 264.088L78.6178 269.686L75.0682 262.038Z" fill="white"/>
<path d="M104.183 245.23L117.43 247.28L107.733 252.878L104.183 245.23Z" fill="white"/>
<path d="M133.298 228.422L146.545 230.472L136.847 236.07L133.298 228.422Z" fill="white"/>
<path d="M162.412 211.615L175.66 213.664L165.962 219.262L162.412 211.615Z" fill="white"/>
<path d="M191.527 194.807L204.774 196.856L195.077 202.454L191.527 194.807Z" fill="white"/>
<path d="M220.642 177.999L233.889 180.048L224.191 185.646L220.642 177.999Z" fill="white"/>
<path d="M249.756 161.191L263.004 163.24L253.306 168.839L249.756 161.191Z" fill="white"/>
<path d="M278.871 144.383L292.118 146.432L282.421 152.031L278.871 144.383Z" fill="white"/>
<path d="M307.986 127.575L321.233 129.624L311.535 135.223L307.986 127.575Z" fill="white"/>
<path d="M337.101 110.767L350.348 112.816L340.65 118.415L337.101 110.767Z" fill="white"/>
<path d="M366.215 93.9591L379.463 96.0083L369.765 101.607L366.215 93.9591Z" fill="white"/>
<path d="M395.33 77.1513L408.577 79.2004L398.88 84.7989L395.33 77.1513Z" fill="white"/>
<path d="M424.445 60.3433L437.692 62.3925L427.994 67.991L424.445 60.3433Z" fill="white"/>
<path d="M453.559 43.5354L466.807 45.5846L457.109 51.1831L453.559 43.5354Z" fill="white"/>
<path d="M482.674 26.7275L495.921 28.7767L486.224 34.3752L482.674 26.7275Z" fill="white"/>
<path d="M511.789 9.91959L525.036 11.9688L515.338 17.5673L511.789 9.91959Z" fill="white"/>
<path d="M540.903 -6.88836L554.151 -4.83917L544.453 0.759326L540.903 -6.88836Z" fill="white"/>
<path d="M108.662 265.178L121.91 267.227L112.212 272.826L108.662 265.178Z" fill="white"/>
<path d="M137.777 248.37L151.024 250.42L141.327 256.018L137.777 248.37Z" fill="white"/>
<path d="M166.892 231.562L180.139 233.612L170.441 239.21L166.892 231.562Z" fill="white"/>
<path d="M196.006 214.754L209.254 216.804L199.556 222.402L196.006 214.754Z" fill="white"/>
<path d="M225.121 197.947L238.368 199.996L228.671 205.594L225.121 197.947Z" fill="white"/>
<path d="M254.236 181.139L267.483 183.188L257.785 188.786L254.236 181.139Z" fill="white"/>
<path d="M283.35 164.331L296.598 166.38L286.9 171.978L283.35 164.331Z" fill="white"/>
<path d="M312.465 147.523L325.712 149.572L316.015 155.171L312.465 147.523Z" fill="white"/>
<path d="M341.58 130.715L354.827 132.764L345.129 138.363L341.58 130.715Z" fill="white"/>
<path d="M370.695 113.907L383.942 115.956L374.244 121.555L370.695 113.907Z" fill="white"/>
<path d="M399.809 97.0991L413.057 99.1483L403.359 104.747L399.809 97.0991Z" fill="white"/>
<path d="M428.924 80.2912L442.171 82.3404L432.474 87.9389L428.924 80.2912Z" fill="white"/>
<path d="M458.039 63.4833L471.286 65.5324L461.588 71.1309L458.039 63.4833Z" fill="white"/>
<path d="M487.153 46.6753L500.401 48.7245L490.703 54.323L487.153 46.6753Z" fill="white"/>
<path d="M516.268 29.8674L529.515 31.9166L519.818 37.5151L516.268 29.8674Z" fill="white"/>
<path d="M545.383 13.0595L558.63 15.1087L548.932 20.7072L545.383 13.0595Z" fill="white"/>
<path d="M574.497 -3.74844L587.745 -1.69924L578.047 3.89925L574.497 -3.74844Z" fill="white"/>
<path d="M87.2261 300.087L100.473 302.136L90.7757 307.735L87.2261 300.087Z" fill="white"/>
<path d="M116.341 283.279L129.588 285.328L119.89 290.927L116.341 283.279Z" fill="white"/>
<path d="M145.456 266.471L158.703 268.52L149.005 274.119L145.456 266.471Z" fill="white"/>
<path d="M174.57 249.663L187.818 251.712L178.12 257.311L174.57 249.663Z" fill="white"/>
<path d="M203.685 232.855L216.932 234.905L207.235 240.503L203.685 232.855Z" fill="white"/>
<path d="M232.8 216.047L246.047 218.097L236.349 223.695L232.8 216.047Z" fill="white"/>
<path d="M261.914 199.24L275.162 201.289L265.464 206.887L261.914 199.24Z" fill="white"/>
<path d="M291.029 182.432L304.276 184.481L294.579 190.079L291.029 182.432Z" fill="white"/>
<path d="M320.144 165.624L333.391 167.673L323.693 173.271L320.144 165.624Z" fill="white"/>
<path d="M349.258 148.816L362.506 150.865L352.808 156.463L349.258 148.816Z" fill="white"/>
<path d="M378.373 132.008L391.62 134.057L381.923 139.656L378.373 132.008Z" fill="white"/>
<path d="M407.488 115.2L420.735 117.249L411.037 122.848L407.488 115.2Z" fill="white"/>
<path d="M436.603 98.3921L449.85 100.441L440.152 106.04L436.603 98.3921Z" fill="white"/>
<path d="M465.717 81.5841L478.965 83.6333L469.267 89.2318L465.717 81.5841Z" fill="white"/>
<path d="M494.832 64.7762L508.079 66.8254L498.382 72.4239L494.832 64.7762Z" fill="white"/>
<path d="M523.947 47.9683L537.194 50.0175L527.496 55.616L523.947 47.9683Z" fill="white"/>
<path d="M553.061 31.1604L566.309 33.2096L556.611 38.8081L553.061 31.1604Z" fill="white"/>
<path d="M582.176 14.3525L595.423 16.4016L585.726 22.0001L582.176 14.3525Z" fill="white"/>
<path d="M608.731 -0.977867L621.979 1.07132L612.281 6.66982L608.731 -0.977867Z" fill="white"/>
<path d="M715.272 50.5541L728.519 52.6032L718.821 58.2017L715.272 50.5541Z" fill="white"/>
<path d="M744.386 33.7461L757.634 35.7953L747.936 41.3938L744.386 33.7461Z" fill="white"/>
<path d="M754.305 73.0878L767.552 75.137L757.854 80.7355L754.305 73.0878Z" fill="white"/>
<path d="M675.919 27.8357L689.166 29.8849L679.469 35.4834L675.919 27.8357Z" fill="white"/>
<path d="M705.034 11.0278L718.281 13.077L708.583 18.6755L705.034 11.0278Z" fill="white"/>
<path d="M636.886 5.30195L650.133 7.35114L640.436 12.9496L636.886 5.30195Z" fill="white"/>
<path d="M148.975 286.973L162.222 289.022L152.524 294.621L148.975 286.973Z" fill="white"/>
<path d="M178.089 270.165L191.337 272.214L181.639 277.813L178.089 270.165Z" fill="white"/>
<path d="M207.204 253.357L220.452 255.406L210.754 261.005L207.204 253.357Z" fill="white"/>
<path d="M236.319 236.549L249.566 238.599L239.869 244.197L236.319 236.549Z" fill="white"/>
<path d="M265.434 219.741L278.681 221.791L268.983 227.389L265.434 219.741Z" fill="white"/>
<path d="M294.548 202.934L307.796 204.983L298.098 210.581L294.548 202.934Z" fill="white"/>
<path d="M323.663 186.126L336.91 188.175L327.213 193.773L323.663 186.126Z" fill="white"/>
<path d="M352.778 169.318L366.025 171.367L356.327 176.965L352.778 169.318Z" fill="white"/>
<path d="M381.892 152.51L395.14 154.559L385.442 160.157L381.892 152.51Z" fill="white"/>
<path d="M411.007 135.702L424.254 137.751L414.557 143.35L411.007 135.702Z" fill="white"/>
<path d="M440.122 118.894L453.369 120.943L443.671 126.542L440.122 118.894Z" fill="white"/>
<path d="M469.236 102.086L482.484 104.135L472.786 109.734L469.236 102.086Z" fill="white"/>
<path d="M498.351 85.2781L511.599 87.3273L501.901 92.9258L498.351 85.2781Z" fill="white"/>
<path d="M527.466 68.4702L540.713 70.5194L531.016 76.1179L527.466 68.4702Z" fill="white"/>
<path d="M556.581 51.6623L569.828 53.7115L560.13 59.31L556.581 51.6623Z" fill="white"/>
<path d="M585.695 34.8544L598.943 36.9036L589.245 42.5021L585.695 34.8544Z" fill="white"/>
<path d="M614.81 18.0465L628.057 20.0956L618.36 25.6941L614.81 18.0465Z" fill="white"/>
<path d="M643.925 1.23856L657.172 3.28775L647.474 8.88625L643.925 1.23856Z" fill="white"/>
<path d="M156.014 305.443L169.261 307.493L159.563 313.091L156.014 305.443Z" fill="white"/>
<path d="M185.128 288.635L198.376 290.685L188.678 296.283L185.128 288.635Z" fill="white"/>
<path d="M214.243 271.828L227.49 273.877L217.793 279.475L214.243 271.828Z" fill="white"/>
<path d="M243.358 255.02L256.605 257.069L246.907 262.667L243.358 255.02Z" fill="white"/>
<path d="M272.472 238.212L285.72 240.261L276.022 245.859L272.472 238.212Z" fill="white"/>
<path d="M301.587 221.404L314.834 223.453L305.137 229.051L301.587 221.404Z" fill="white"/>
<path d="M330.702 204.596L343.949 206.645L334.251 212.244L330.702 204.596Z" fill="white"/>
<path d="M359.816 187.788L373.064 189.837L363.366 195.436L359.816 187.788Z" fill="white"/>
<path d="M388.931 170.98L402.178 173.029L392.481 178.628L388.931 170.98Z" fill="white"/>
<path d="M418.046 154.172L431.293 156.221L421.595 161.82L418.046 154.172Z" fill="white"/>
<path d="M447.161 137.364L460.408 139.413L450.71 145.012L447.161 137.364Z" fill="white"/>
<path d="M476.275 120.556L489.523 122.605L479.825 128.204L476.275 120.556Z" fill="white"/>
<path d="M505.39 103.748L518.637 105.798L508.94 111.396L505.39 103.748Z" fill="white"/>
<path d="M534.505 86.9405L547.752 88.9897L538.054 94.5882L534.505 86.9405Z" fill="white"/>
<path d="M563.619 70.1325L576.867 72.1817L567.169 77.7802L563.619 70.1325Z" fill="white"/>
<path d="M592.734 53.3246L605.981 55.3738L596.284 60.9723L592.734 53.3246Z" fill="white"/>
<path d="M621.849 36.5167L635.096 38.5659L625.398 44.1644L621.849 36.5167Z" fill="white"/>
<path d="M650.964 19.7088L664.211 21.758L654.513 27.3565L650.964 19.7088Z" fill="white"/>
<path d="M188.328 309.322L201.575 311.371L191.877 316.97L188.328 309.322Z" fill="white"/>
<path d="M217.442 292.514L230.69 294.563L220.992 300.162L217.442 292.514Z" fill="white"/>
<path d="M246.557 275.706L259.804 277.755L250.107 283.354L246.557 275.706Z" fill="white"/>
<path d="M275.672 258.898L288.919 260.948L279.221 266.546L275.672 258.898Z" fill="white"/>
<path d="M304.787 242.09L318.034 244.14L308.336 249.738L304.787 242.09Z" fill="white"/>
<path d="M333.901 225.283L347.149 227.332L337.451 232.93L333.901 225.283Z" fill="white"/>
<path d="M363.016 208.475L376.263 210.524L366.566 216.122L363.016 208.475Z" fill="white"/>
<path d="M392.131 191.667L405.378 193.716L395.68 199.314L392.131 191.667Z" fill="white"/>
<path d="M421.245 174.859L434.493 176.908L424.795 182.506L421.245 174.859Z" fill="white"/>
<path d="M450.36 158.051L463.607 160.1L453.91 165.699L450.36 158.051Z" fill="white"/>
<path d="M479.475 141.243L492.722 143.292L483.024 148.891L479.475 141.243Z" fill="white"/>
<path d="M508.589 124.435L521.837 126.484L512.139 132.083L508.589 124.435Z" fill="white"/>
<path d="M537.704 107.627L550.951 109.676L541.254 115.275L537.704 107.627Z" fill="white"/>
<path d="M566.819 90.8192L580.066 92.8684L570.368 98.4669L566.819 90.8192Z" fill="white"/>
<path d="M595.934 74.0113L609.181 76.0605L599.483 81.659L595.934 74.0113Z" fill="white"/>
<path d="M625.048 57.2034L638.296 59.2526L628.598 64.8511L625.048 57.2034Z" fill="white"/>
<path d="M654.163 40.3955L667.41 42.4446L657.713 48.0431L654.163 40.3955Z" fill="white"/>
<path d="M683.278 23.5876L696.525 25.6368L686.827 31.2352L683.278 23.5876Z" fill="white"/>
<path d="M194.727 327.792L207.974 329.842L198.276 335.44L194.727 327.792Z" fill="white"/>
<path d="M223.841 310.984L237.089 313.034L227.391 318.632L223.841 310.984Z" fill="white"/>
<path d="M252.956 294.177L266.203 296.226L256.506 301.824L252.956 294.177Z" fill="white"/>
<path d="M282.071 277.369L295.318 279.418L285.62 285.016L282.071 277.369Z" fill="white"/>
<path d="M311.185 260.561L324.433 262.61L314.735 268.208L311.185 260.561Z" fill="white"/>
<path d="M340.3 243.753L353.547 245.802L343.85 251.4L340.3 243.753Z" fill="white"/>
<path d="M369.415 226.945L382.662 228.994L372.964 234.593L369.415 226.945Z" fill="white"/>
<path d="M398.529 210.137L411.777 212.186L402.079 217.785L398.529 210.137Z" fill="white"/>
<path d="M427.644 193.329L440.891 195.378L431.194 200.977L427.644 193.329Z" fill="white"/>
<path d="M456.759 176.521L470.006 178.57L460.308 184.169L456.759 176.521Z" fill="white"/>
<path d="M485.874 159.713L499.121 161.762L489.423 167.361L485.874 159.713Z" fill="white"/>
<path d="M514.988 142.905L528.236 144.954L518.538 150.553L514.988 142.905Z" fill="white"/>
<path d="M544.103 126.097L557.35 128.147L547.653 133.745L544.103 126.097Z" fill="white"/>
<path d="M573.218 109.289L586.465 111.339L576.767 116.937L573.218 109.289Z" fill="white"/>
<path d="M602.332 92.4815L615.58 94.5307L605.882 100.129L602.332 92.4815Z" fill="white"/>
<path d="M631.447 75.6736L644.694 77.7228L634.997 83.3213L631.447 75.6736Z" fill="white"/>
<path d="M660.562 58.8657L673.809 60.9149L664.111 66.5134L660.562 58.8657Z" fill="white"/>
<path d="M689.676 42.0578L702.924 44.107L693.226 49.7055L689.676 42.0578Z" fill="white"/>
<path d="M199.206 348.479L212.453 350.528L202.755 356.127L199.206 348.479Z" fill="white"/>
<path d="M228.32 331.671L241.568 333.72L231.87 339.319L228.32 331.671Z" fill="white"/>
<path d="M257.435 314.863L270.682 316.912L260.985 322.511L257.435 314.863Z" fill="white"/>
<path d="M286.55 298.055L299.797 300.104L290.099 305.703L286.55 298.055Z" fill="white"/>
<path d="M315.664 281.247L328.912 283.297L319.214 288.895L315.664 281.247Z" fill="white"/>
<path d="M344.779 264.439L358.027 266.489L348.329 272.087L344.779 264.439Z" fill="white"/>
<path d="M373.894 247.632L387.141 249.681L377.444 255.279L373.894 247.632Z" fill="white"/>
<path d="M403.009 230.824L416.256 232.873L406.558 238.471L403.009 230.824Z" fill="white"/>
<path d="M432.123 214.016L445.371 216.065L435.673 221.663L432.123 214.016Z" fill="white"/>
<path d="M461.238 197.208L474.485 199.257L464.788 204.855L461.238 197.208Z" fill="white"/>
<path d="M490.353 180.4L503.6 182.449L493.902 188.048L490.353 180.4Z" fill="white"/>
<path d="M519.467 163.592L532.715 165.641L523.017 171.24L519.467 163.592Z" fill="white"/>
<path d="M548.582 146.784L561.829 148.833L552.132 154.432L548.582 146.784Z" fill="white"/>
<path d="M577.697 129.976L590.944 132.025L581.246 137.624L577.697 129.976Z" fill="white"/>
<path d="M606.812 113.168L620.059 115.217L610.361 120.816L606.812 113.168Z" fill="white"/>
<path d="M635.926 96.3603L649.174 98.4095L639.476 104.008L635.926 96.3603Z" fill="white"/>
<path d="M665.041 79.5523L678.288 81.6015L668.591 87.2L665.041 79.5523Z" fill="white"/>
<path d="M694.156 62.7444L707.403 64.7936L697.705 70.3921L694.156 62.7444Z" fill="white"/>
<path d="M234.079 350.511L247.327 352.56L237.629 358.158L234.079 350.511Z" fill="white"/>
<path d="M263.194 333.703L276.441 335.752L266.744 341.351L263.194 333.703Z" fill="white"/>
<path d="M292.309 316.895L305.556 318.944L295.858 324.543L292.309 316.895Z" fill="white"/>
<path d="M321.423 300.087L334.671 302.136L324.973 307.735L321.423 300.087Z" fill="white"/>
<path d="M350.538 283.279L363.786 285.328L354.088 290.927L350.538 283.279Z" fill="white"/>
<path d="M379.653 266.471L392.9 268.52L383.203 274.119L379.653 266.471Z" fill="white"/>
<path d="M408.768 249.663L422.015 251.712L412.317 257.311L408.768 249.663Z" fill="white"/>
<path d="M437.882 232.855L451.13 234.905L441.432 240.503L437.882 232.855Z" fill="white"/>
<path d="M466.997 216.047L480.244 218.097L470.547 223.695L466.997 216.047Z" fill="white"/>
<path d="M496.112 199.24L509.359 201.289L499.661 206.887L496.112 199.24Z" fill="white"/>
<path d="M525.226 182.432L538.474 184.481L528.776 190.079L525.226 182.432Z" fill="white"/>
<path d="M554.341 165.624L567.588 167.673L557.891 173.271L554.341 165.624Z" fill="white"/>
<path d="M583.456 148.816L596.703 150.865L587.005 156.463L583.456 148.816Z" fill="white"/>
<path d="M612.571 132.008L625.818 134.057L616.12 139.656L612.571 132.008Z" fill="white"/>
<path d="M641.685 115.2L654.933 117.249L645.235 122.848L641.685 115.2Z" fill="white"/>
<path d="M670.8 98.392L684.047 100.441L674.35 106.04L670.8 98.392Z" fill="white"/>
<path d="M699.915 81.5841L713.162 83.6333L703.464 89.2318L699.915 81.5841Z" fill="white"/>
<path d="M729.029 64.7762L742.277 66.8254L732.579 72.4239L729.029 64.7762Z" fill="white"/>
<path d="M268.313 353.651L281.56 355.7L271.863 361.298L268.313 353.651Z" fill="white"/>
<path d="M297.428 336.843L310.675 338.892L300.977 344.491L297.428 336.843Z" fill="white"/>
<path d="M326.543 320.035L339.79 322.084L330.092 327.683L326.543 320.035Z" fill="white"/>
<path d="M355.657 303.227L368.905 305.276L359.207 310.875L355.657 303.227Z" fill="white"/>
<path d="M384.772 286.419L398.019 288.468L388.322 294.067L384.772 286.419Z" fill="white"/>
<path d="M413.887 269.611L427.134 271.66L417.436 277.259L413.887 269.611Z" fill="white"/>
<path d="M443.001 252.803L456.249 254.852L446.551 260.451L443.001 252.803Z" fill="white"/>
<path d="M472.116 235.995L485.363 238.045L475.666 243.643L472.116 235.995Z" fill="white"/>
<path d="M501.231 219.187L514.478 221.237L504.78 226.835L501.231 219.187Z" fill="white"/>
<path d="M530.345 202.379L543.593 204.429L533.895 210.027L530.345 202.379Z" fill="white"/>
<path d="M559.46 185.572L572.707 187.621L563.01 193.219L559.46 185.572Z" fill="white"/>
<path d="M588.575 168.764L601.822 170.813L592.124 176.411L588.575 168.764Z" fill="white"/>
<path d="M617.69 151.956L630.937 154.005L621.239 159.603L617.69 151.956Z" fill="white"/>
<path d="M646.804 135.148L660.052 137.197L650.354 142.796L646.804 135.148Z" fill="white"/>
<path d="M675.919 118.34L689.166 120.389L679.469 125.988L675.919 118.34Z" fill="white"/>
<path d="M705.034 101.532L718.281 103.581L708.583 109.18L705.034 101.532Z" fill="white"/>
<path d="M734.148 84.7241L747.396 86.7733L737.698 92.3718L734.148 84.7241Z" fill="white"/>
<path d="M273.752 373.414L286.999 375.463L277.302 381.062L273.752 373.414Z" fill="white"/>
<path d="M302.867 356.606L316.114 358.655L306.416 364.254L302.867 356.606Z" fill="white"/>
<path d="M331.982 339.798L345.229 341.847L335.531 347.446L331.982 339.798Z" fill="white"/>
<path d="M361.096 322.99L374.344 325.039L364.646 330.638L361.096 322.99Z" fill="white"/>
<path d="M390.211 306.182L403.458 308.231L393.761 313.83L390.211 306.182Z" fill="white"/>
<path d="M419.326 289.374L432.573 291.423L422.875 297.022L419.326 289.374Z" fill="white"/>
<path d="M448.44 272.566L461.688 274.616L451.99 280.214L448.44 272.566Z" fill="white"/>
<path d="M477.555 255.758L490.802 257.808L481.105 263.406L477.555 255.758Z" fill="white"/>
<path d="M506.67 238.951L519.917 241L510.219 246.598L506.67 238.951Z" fill="white"/>
<path d="M535.784 222.143L549.032 224.192L539.334 229.79L535.784 222.143Z" fill="white"/>
<path d="M564.899 205.335L578.146 207.384L568.449 212.982L564.899 205.335Z" fill="white"/>
<path d="M594.014 188.527L607.261 190.576L597.563 196.174L594.014 188.527Z" fill="white"/>
<path d="M623.129 171.719L636.376 173.768L626.678 179.367L623.129 171.719Z" fill="white"/>
<path d="M652.243 154.911L665.491 156.96L655.793 162.559L652.243 154.911Z" fill="white"/>
<path d="M681.358 138.103L694.605 140.152L684.908 145.751L681.358 138.103Z" fill="white"/>
<path d="M710.473 121.295L723.72 123.344L714.022 128.943L710.473 121.295Z" fill="white"/>
<path d="M739.587 104.487L752.835 106.536L743.137 112.135L739.587 104.487Z" fill="white"/>
<path d="M307.026 376L320.273 378.049L310.576 383.647L307.026 376Z" fill="white"/>
<path d="M336.141 359.192L349.388 361.241L339.69 366.839L336.141 359.192Z" fill="white"/>
<path d="M365.255 342.384L378.503 344.433L368.805 350.032L365.255 342.384Z" fill="white"/>
<path d="M394.37 325.576L407.617 327.625L397.92 333.224L394.37 325.576Z" fill="white"/>
<path d="M423.485 308.768L436.732 310.817L427.034 316.416L423.485 308.768Z" fill="white"/>
<path d="M452.6 291.96L465.847 294.009L456.149 299.608L452.6 291.96Z" fill="white"/>
<path d="M481.714 275.152L494.962 277.201L485.264 282.8L481.714 275.152Z" fill="white"/>
<path d="M510.829 258.344L524.076 260.393L514.379 265.992L510.829 258.344Z" fill="white"/>
<path d="M539.944 241.536L553.191 243.586L543.493 249.184L539.944 241.536Z" fill="white"/>
<path d="M569.058 224.728L582.306 226.778L572.608 232.376L569.058 224.728Z" fill="white"/>
<path d="M598.173 207.921L611.42 209.97L601.723 215.568L598.173 207.921Z" fill="white"/>
<path d="M627.288 191.113L640.535 193.162L630.837 198.76L627.288 191.113Z" fill="white"/>
<path d="M656.402 174.305L669.65 176.354L659.952 181.952L656.402 174.305Z" fill="white"/>
<path d="M685.517 157.497L698.765 159.546L689.067 165.144L685.517 157.497Z" fill="white"/>
<path d="M714.632 140.689L727.879 142.738L718.181 148.337L714.632 140.689Z" fill="white"/>
<path d="M743.747 123.881L756.994 125.93L747.296 131.529L743.747 123.881Z" fill="white"/>
<path d="M312.145 395.578L325.393 397.627L315.695 403.226L312.145 395.578Z" fill="white"/>
<path d="M341.26 378.77L354.507 380.819L344.809 386.418L341.26 378.77Z" fill="white"/>
<path d="M370.375 361.962L383.622 364.012L373.924 369.61L370.375 361.962Z" fill="white"/>
<path d="M399.489 345.154L412.737 347.204L403.039 352.802L399.489 345.154Z" fill="white"/>
<path d="M428.604 328.346L441.851 330.396L432.154 335.994L428.604 328.346Z" fill="white"/>
<path d="M457.719 311.539L470.966 313.588L461.268 319.186L457.719 311.539Z" fill="white"/>
<path d="M486.833 294.731L500.081 296.78L490.383 302.378L486.833 294.731Z" fill="white"/>
<path d="M515.948 277.923L529.195 279.972L519.498 285.57L515.948 277.923Z" fill="white"/>
<path d="M545.063 261.115L558.31 263.164L548.612 268.762L545.063 261.115Z" fill="white"/>
<path d="M574.177 244.307L587.425 246.356L577.727 251.955L574.177 244.307Z" fill="white"/>
<path d="M603.292 227.499L616.54 229.548L606.842 235.147L603.292 227.499Z" fill="white"/>
<path d="M632.407 210.691L645.654 212.74L635.956 218.339L632.407 210.691Z" fill="white"/>
<path d="M661.522 193.883L674.769 195.932L665.071 201.531L661.522 193.883Z" fill="white"/>
<path d="M690.636 177.075L703.884 179.124L694.186 184.723L690.636 177.075Z" fill="white"/>
<path d="M719.751 160.267L732.998 162.317L723.301 167.915L719.751 160.267Z" fill="white"/>
<path d="M748.866 143.459L762.113 145.509L752.415 151.107L748.866 143.459Z" fill="white"/>
<path d="M316.944 415.341L330.192 417.39L320.494 422.989L316.944 415.341Z" fill="white"/>
<path d="M346.059 398.533L359.306 400.583L349.609 406.181L346.059 398.533Z" fill="white"/>
<path d="M375.174 381.725L388.421 383.775L378.723 389.373L375.174 381.725Z" fill="white"/>
<path d="M404.288 364.918L417.536 366.967L407.838 372.565L404.288 364.918Z" fill="white"/>
<path d="M433.403 348.11L446.65 350.159L436.953 355.757L433.403 348.11Z" fill="white"/>
<path d="M462.518 331.302L475.765 333.351L466.067 338.949L462.518 331.302Z" fill="white"/>
<path d="M491.632 314.494L504.88 316.543L495.182 322.141L491.632 314.494Z" fill="white"/>
<path d="M520.747 297.686L533.994 299.735L524.297 305.334L520.747 297.686Z" fill="white"/>
<path d="M549.862 280.878L563.109 282.927L553.411 288.526L549.862 280.878Z" fill="white"/>
<path d="M578.977 264.07L592.224 266.119L582.526 271.718L578.977 264.07Z" fill="white"/>
<path d="M608.091 247.262L621.339 249.311L611.641 254.91L608.091 247.262Z" fill="white"/>
<path d="M637.206 230.454L650.453 232.503L640.756 238.102L637.206 230.454Z" fill="white"/>
<path d="M666.321 213.646L679.568 215.695L669.87 221.294L666.321 213.646Z" fill="white"/>
<path d="M695.435 196.838L708.683 198.888L698.985 204.486L695.435 196.838Z" fill="white"/>
<path d="M724.55 180.03L737.797 182.08L728.1 187.678L724.55 180.03Z" fill="white"/>
<path d="M753.665 163.223L766.912 165.272L757.214 170.87L753.665 163.223Z" fill="white"/>
<path d="M351.498 417.558L364.745 419.607L355.048 425.205L351.498 417.558Z" fill="white"/>
<path d="M380.613 400.75L393.86 402.799L384.162 408.398L380.613 400.75Z" fill="white"/>
<path d="M409.727 383.942L422.975 385.991L413.277 391.59L409.727 383.942Z" fill="white"/>
<path d="M438.842 367.134L452.089 369.183L442.392 374.782L438.842 367.134Z" fill="white"/>
<path d="M467.957 350.326L481.204 352.375L471.506 357.974L467.957 350.326Z" fill="white"/>
<path d="M497.072 333.518L510.319 335.567L500.621 341.166L497.072 333.518Z" fill="white"/>
<path d="M526.186 316.71L539.434 318.759L529.736 324.358L526.186 316.71Z" fill="white"/>
<path d="M555.301 299.902L568.548 301.952L558.85 307.55L555.301 299.902Z" fill="white"/>
<path d="M584.416 283.094L597.663 285.144L587.965 290.742L584.416 283.094Z" fill="white"/>
<path d="M613.53 266.286L626.778 268.336L617.08 273.934L613.53 266.286Z" fill="white"/>
<path d="M642.645 249.479L655.892 251.528L646.195 257.126L642.645 249.479Z" fill="white"/>
<path d="M671.76 232.671L685.007 234.72L675.309 240.318L671.76 232.671Z" fill="white"/>
<path d="M700.874 215.863L714.122 217.912L704.424 223.51L700.874 215.863Z" fill="white"/>
<path d="M729.989 199.055L743.236 201.104L733.539 206.703L729.989 199.055Z" fill="white"/>
<path d="M759.104 182.247L772.351 184.296L762.653 189.895L759.104 182.247Z" fill="white"/>
<path d="M385.412 420.513L398.659 422.562L388.961 428.161L385.412 420.513Z" fill="white"/>
<path d="M414.527 403.705L427.774 405.754L418.076 411.353L414.527 403.705Z" fill="white"/>
<path d="M443.641 386.897L456.889 388.946L447.191 394.545L443.641 386.897Z" fill="white"/>
<path d="M472.756 370.089L486.003 372.138L476.306 377.737L472.756 370.089Z" fill="white"/>
<path d="M501.871 353.281L515.118 355.33L505.42 360.929L501.871 353.281Z" fill="white"/>
<path d="M530.985 336.473L544.233 338.523L534.535 344.121L530.985 336.473Z" fill="white"/>
<path d="M560.1 319.665L573.347 321.715L563.65 327.313L560.1 319.665Z" fill="white"/>
<path d="M589.215 302.858L602.462 304.907L592.764 310.505L589.215 302.858Z" fill="white"/>
<path d="M618.329 286.05L631.577 288.099L621.879 293.697L618.329 286.05Z" fill="white"/>
<path d="M647.444 269.242L660.691 271.291L650.994 276.889L647.444 269.242Z" fill="white"/>
<path d="M676.559 252.434L689.806 254.483L680.108 260.081L676.559 252.434Z" fill="white"/>
<path d="M705.674 235.626L718.921 237.675L709.223 243.274L705.674 235.626Z" fill="white"/>
<path d="M734.788 218.818L748.036 220.867L738.338 226.466L734.788 218.818Z" fill="white"/>
<path d="M419.966 423.468L433.213 425.517L423.515 431.116L419.966 423.468Z" fill="white"/>
<path d="M449.08 406.66L462.328 408.709L452.63 414.308L449.08 406.66Z" fill="white"/>
<path d="M478.195 389.852L491.442 391.902L481.745 397.5L478.195 389.852Z" fill="white"/>
<path d="M507.31 373.044L520.557 375.094L510.859 380.692L507.31 373.044Z" fill="white"/>
<path d="M536.424 356.237L549.672 358.286L539.974 363.884L536.424 356.237Z" fill="white"/>
<path d="M565.539 339.429L578.786 341.478L569.089 347.076L565.539 339.429Z" fill="white"/>
<path d="M594.654 322.621L607.901 324.67L598.203 330.268L594.654 322.621Z" fill="white"/>
<path d="M623.768 305.813L637.016 307.862L627.318 313.46L623.768 305.813Z" fill="white"/>
<path d="M652.883 289.005L666.13 291.054L656.433 296.653L652.883 289.005Z" fill="white"/>
<path d="M681.998 272.197L695.245 274.246L685.547 279.845L681.998 272.197Z" fill="white"/>
<path d="M711.113 255.389L724.36 257.438L714.662 263.037L711.113 255.389Z" fill="white"/>
<path d="M740.227 238.581L753.475 240.63L743.777 246.229L740.227 238.581Z" fill="white"/>
<path d="M481.714 408.877L494.962 410.926L485.264 416.524L481.714 408.877Z" fill="white"/>
<path d="M510.829 392.069L524.076 394.118L514.379 399.716L510.829 392.069Z" fill="white"/>
<path d="M539.944 375.261L553.191 377.31L543.493 382.909L539.944 375.261Z" fill="white"/>
<path d="M569.058 358.453L582.306 360.502L572.608 366.101L569.058 358.453Z" fill="white"/>
<path d="M598.173 341.645L611.42 343.694L601.723 349.293L598.173 341.645Z" fill="white"/>
<path d="M627.288 324.837L640.535 326.886L630.837 332.485L627.288 324.837Z" fill="white"/>
<path d="M656.403 308.029L669.65 310.078L659.952 315.677L656.403 308.029Z" fill="white"/>
<path d="M685.517 291.221L698.765 293.27L689.067 298.869L685.517 291.221Z" fill="white"/>
<path d="M714.632 274.413L727.879 276.463L718.182 282.061L714.632 274.413Z" fill="white"/>
<path d="M743.747 257.605L756.994 259.655L747.296 265.253L743.747 257.605Z" fill="white"/>
</g>
</g>
<defs>
<filter id="filter0_d_201_2677" x="0.0829353" y="0.524475" width="777.422" height="548.727" filterUnits="userSpaceOnUse" color-interpolation-filters="sRGB">
<feFlood flood-opacity="0" result="BackgroundImageFix"/>
<feColorMatrix in="SourceAlpha" type="matrix" values="0 0 0 0 0 0 0 0 0 0 0 0 0 0 0 0 0 0 127 0" result="hardAlpha"/>
<feOffset dy="103.477"/>
<feGaussianBlur stdDeviation="11.4974"/>
<feColorMatrix type="matrix" values="0 0 0 0 0 0 0 0 0 0 0 0 0 0 0 0 0 0 0.25 0"/>
<feBlend mode="normal" in2="BackgroundImageFix" result="effect1_dropShadow_201_2677"/>
<feBlend mode="normal" in="SourceGraphic" in2="effect1_dropShadow_201_2677" result="shape"/>
</filter>
<linearGradient id="paint0_linear_201_2677" x1="241.305" y1="0" x2="241.305" y2="361.957" gradientUnits="userSpaceOnUse">
<stop stop-color="#F9D166"/>
<stop offset="1" stop-color="#F4922B"/>
</linearGradient>
<clipPath id="clip0_201_2677">
<rect width="482.609" height="361.957" rx="7.38858" transform="matrix(0.866044 -0.499967 0.866044 0.499967 23.0778 241.813)" fill="white"/>
</clipPath>
</defs>
</svg>
